<?xml version="1.0" encoding="UTF-8"?>
<!DOCTYPE svg PUBLIC "-//W3C//DTD SVG 1.1//EN" "http://www.w3.org/Graphics/SVG/1.1/DTD/svg11.dtd">
<svg xmlns="http://www.w3.org/2000/svg" version="1.1" width="1680px" height="270px" style="shape-rendering:geometricPrecision; text-rendering:geometricPrecision; image-rendering:optimizeQuality; fill-rule:evenodd; clip-rule:evenodd" xmlns:xlink="http://www.w3.org/1999/xlink">
<g><path style="opacity:1" fill="#fefefe" d="M -0.5,-0.5 C 559.5,-0.5 1119.5,-0.5 1679.5,-0.5C 1679.5,89.5 1679.5,179.5 1679.5,269.5C 1119.5,269.5 559.5,269.5 -0.5,269.5C -0.5,179.5 -0.5,89.5 -0.5,-0.5 Z"/></g>
<g><path style="opacity:1" fill="#912f91" d="M 116.5,37.5 C 117.239,37.369 117.906,37.5357 118.5,38C 115.882,40.1057 113.882,42.6057 112.5,45.5C 107.38,47.56 102.38,49.8933 97.5,52.5C 96.5269,54.9479 96.1936,57.6146 96.5,60.5C 94.5,62.1667 92.5,63.8333 90.5,65.5C 90.83,58.8002 90.4967,52.1335 89.5,45.5C 88.8933,45.6236 88.56,45.9569 88.5,46.5C 87.2073,48.2959 85.7073,49.9625 84,51.5C 83.5003,58.8258 83.3337,66.1591 83.5,73.5C 81.5372,74.9599 79.7038,76.6266 78,78.5C 77.8294,69.9899 77.3294,61.6566 76.5,53.5C 67.5,53.5 58.5,53.5 49.5,53.5C 49.1734,62.6822 49.5067,71.6822 50.5,80.5C 58.8333,80.5 67.1667,80.5 75.5,80.5C 72.559,85.5562 68.2257,87.8895 62.5,87.5C 58.8776,93.0179 56.211,99.0179 54.5,105.5C 51.6057,106.882 49.1057,108.882 47,111.5C 46.5357,110.906 46.369,110.239 46.5,109.5C 48.0746,101.945 50.7413,94.7779 54.5,88C 50.9106,87.7931 47.4106,87.2931 44,86.5C 43.3333,73.5 43.3333,60.5 44,47.5C 48.5,43 53,38.5 57.5,34C 70.1667,33.3333 82.8333,33.3333 95.5,34C 96.4558,37.3936 96.7892,40.8936 96.5,44.5C 103.016,41.7722 109.683,39.4389 116.5,37.5 Z"/></g>
<g><path style="opacity:1" fill="#6c5cab" d="M 240.5,33.5 C 238.539,35.9635 236.372,38.2968 234,40.5C 225.735,39.1724 217.568,39.1724 209.5,40.5C 207.167,42.1667 205.167,44.1667 203.5,46.5C 210.418,47.3478 218.085,47.8478 226.5,48C 224.627,49.7038 222.96,51.5372 221.5,53.5C 213.5,53.5 205.5,53.5 197.5,53.5C 197.5,61.5 197.5,69.5 197.5,77.5C 195.537,78.9599 193.704,80.6266 192,82.5C 191.83,72.3249 191.33,62.3249 190.5,52.5C 189.29,52.0679 188.29,51.4013 187.5,50.5C 189.749,49.9202 191.415,48.5869 192.5,46.5C 196.998,42.1702 201.665,38.0035 206.5,34C 217.828,33.5001 229.162,33.3335 240.5,33.5 Z"/></g>
<g><path style="opacity:1" fill="#883d99" d="M 163.5,35.5 C 161.841,38.833 159.175,40.4997 155.5,40.5C 140.761,39.2795 126.427,40.9462 112.5,45.5C 113.882,42.6057 115.882,40.1057 118.5,38C 117.906,37.5357 117.239,37.369 116.5,37.5C 131.87,33.0385 147.537,32.3719 163.5,35.5 Z"/></g>
<g><path style="opacity:1" fill="#7c4fa4" d="M 163.5,35.5 C 173.751,37.7989 183.418,41.4656 192.5,46.5C 191.415,48.5869 189.749,49.9202 187.5,50.5C 177.11,45.909 166.443,42.5757 155.5,40.5C 159.175,40.4997 161.841,38.833 163.5,35.5 Z"/></g>
<g><path style="opacity:1" fill="#fefdfe" d="M 60.5,40.5 C 68.5069,40.3336 76.5069,40.5003 84.5,41C 80.0588,46.0199 74.3922,47.8533 67.5,46.5C 63.5,46.3333 59.5,46.1667 55.5,46C 57.3734,44.2962 59.0401,42.4628 60.5,40.5 Z"/></g>
<g><path style="opacity:1" fill="#fdfcfd" d="M 155.5,40.5 C 166.443,42.5757 177.11,45.909 187.5,50.5C 188.29,51.4013 189.29,52.0679 190.5,52.5C 190.667,63.8382 190.5,75.1716 190,86.5C 187.191,94.4271 184.691,102.427 182.5,110.5C 179.482,110.665 176.482,110.498 173.5,110C 172.61,107.609 170.943,106.109 168.5,105.5C 167.292,104.766 165.959,104.433 164.5,104.5C 164.335,101.482 164.502,98.4816 165,95.5C 168.362,93.65 171.362,91.3167 174,88.5C 174.179,85.4465 174.679,82.4465 175.5,79.5C 180.63,75.5142 181.797,70.5142 179,64.5C 171.767,58.3422 165.767,59.3422 161,67.5C 160.038,72.7801 161.871,76.7801 166.5,79.5C 167.641,81.4213 167.808,83.4213 167,85.5C 164,87.8333 161,90.1667 158,92.5C 157.501,96.4862 157.334,100.486 157.5,104.5C 154.167,104.5 150.833,104.5 147.5,104.5C 147.823,97.9779 147.49,91.6446 146.5,85.5C 143.497,81.6569 140.664,77.6569 138,73.5C 137.503,71.1902 137.337,68.8568 137.5,66.5C 143.145,63.5365 144.978,58.8699 143,52.5C 138.88,47.29 133.714,46.1233 127.5,49C 121.719,55.7651 122.553,61.5985 130,66.5C 130.494,68.1341 130.66,69.8008 130.5,71.5C 130.343,72.8734 130.51,74.2068 131,75.5C 134,79.5 137,83.5 140,87.5C 140.499,93.1569 140.666,98.8236 140.5,104.5C 137.167,104.5 133.833,104.5 130.5,104.5C 130.823,97.9779 130.49,91.6446 129.5,85.5C 123.777,78.7751 117.444,72.7751 110.5,67.5C 106.366,66.5151 102.032,66.1818 97.5,66.5C 97.5,61.8333 97.5,57.1667 97.5,52.5C 102.38,49.8933 107.38,47.56 112.5,45.5C 126.427,40.9462 140.761,39.2795 155.5,40.5 Z"/></g>
<g><path style="opacity:1" fill="#fdfdfe" d="M 209.5,40.5 C 217.174,40.3336 224.841,40.5003 232.5,41C 230.833,42.6667 229.167,44.3333 227.5,46C 219.507,46.4997 211.507,46.6664 203.5,46.5C 205.167,44.1667 207.167,42.1667 209.5,40.5 Z"/></g>
<g><path style="opacity:1" fill="#fdfbfd" d="M 88.5,46.5 C 89.492,53.9818 89.8254,61.6484 89.5,69.5C 87.8729,71.6298 86.0396,73.6298 84,75.5C 83.5357,74.9056 83.369,74.2389 83.5,73.5C 83.3337,66.1591 83.5003,58.8258 84,51.5C 85.7073,49.9625 87.2073,48.2959 88.5,46.5 Z"/></g>
<g><path style="opacity:1" fill="#f8f8fb" d="M 238.5,65.5 C 237.855,69.6781 235.688,73.0114 232,75.5C 231.536,74.9056 231.369,74.2389 231.5,73.5C 231.334,66.1591 231.5,58.8258 232,51.5C 234.018,49.6499 235.851,47.6499 237.5,45.5C 238.497,52.1335 238.83,58.8002 238.5,65.5 Z"/></g>
<g><path style="opacity:1" fill="#686eb5" d="M 240.5,33.5 C 241.822,33.33 242.989,33.6634 244,34.5C 244.5,43.1603 244.666,51.8269 244.5,60.5C 242.5,62.1667 240.5,63.8333 238.5,65.5C 238.83,58.8002 238.497,52.1335 237.5,45.5C 235.851,47.6499 234.018,49.6499 232,51.5C 231.5,58.8258 231.334,66.1591 231.5,73.5C 229.537,74.9599 227.704,76.6266 226,78.5C 225.829,69.9899 225.329,61.6566 224.5,53.5C 223.5,53.5 222.5,53.5 221.5,53.5C 222.96,51.5372 224.627,49.7038 226.5,48C 218.085,47.8478 210.418,47.3478 203.5,46.5C 211.507,46.6664 219.507,46.4997 227.5,46C 229.167,44.3333 230.833,42.6667 232.5,41C 224.841,40.5003 217.174,40.3336 209.5,40.5C 217.568,39.1724 225.735,39.1724 234,40.5C 236.372,38.2968 238.539,35.9635 240.5,33.5 Z"/></g>
<g><path style="opacity:1" fill="#81449e" d="M 137.5,66.5 C 134.907,67.7536 132.573,69.4202 130.5,71.5C 130.66,69.8008 130.494,68.1341 130,66.5C 122.553,61.5985 121.719,55.7651 127.5,49C 133.714,46.1233 138.88,47.29 143,52.5C 144.978,58.8699 143.145,63.5365 137.5,66.5 Z"/></g>
<g><path style="opacity:1" fill="#a8a9d1" d="M 966.5,53.5 C 965.5,53.5 964.5,53.5 963.5,53.5C 954.426,53.2962 945.426,53.9629 936.5,55.5C 939.203,54.037 942.203,53.2037 945.5,53C 952.679,52.1787 959.679,52.3454 966.5,53.5 Z"/></g>
<g><path style="opacity:1" fill="#6f6eb2" d="M 963.5,53.5 C 963.801,56.317 965.134,56.9837 967.5,55.5C 968.59,56.727 969.924,57.5604 971.5,58C 969.203,59.1597 969.536,60.1597 972.5,61C 971.5,61.3333 970.5,61.6667 969.5,62C 970.451,62.7175 970.617,63.5509 970,64.5C 968.989,63.6634 967.822,63.33 966.5,63.5C 966.67,64.8221 966.337,65.9887 965.5,67C 968.232,70.376 967.565,72.876 963.5,74.5C 944.568,72.0769 930.401,79.0769 921,95.5C 917.882,102.187 915.549,109.187 914,116.5C 913.072,130.568 913.572,144.568 915.5,158.5C 916.105,162.315 916.105,165.982 915.5,169.5C 914.5,169.5 913.5,169.5 912.5,169.5C 913.735,171.773 913.402,173.606 911.5,175C 912.167,175.333 912.833,175.667 913.5,176C 911.292,177.462 910.626,179.295 911.5,181.5C 910.478,182.354 909.645,183.354 909,184.5C 908.667,183.833 908.333,183.167 908,182.5C 907.682,184.061 906.849,185.228 905.5,186C 906.5,186.333 907.5,186.667 908.5,187C 906.475,188.336 904.475,188.836 902.5,188.5C 894.296,175.398 889.463,161.065 888,145.5C 884.182,118.613 890.516,94.6133 907,73.5C 915.249,64.7973 925.082,58.7973 936.5,55.5C 945.426,53.9629 954.426,53.2962 963.5,53.5 Z"/></g>
<g><path style="opacity:1" fill="#5d80b4" d="M 1151.5,59.5 C 1151.63,60.3764 1151.3,61.0431 1150.5,61.5C 1149.57,60.3595 1148.74,60.3595 1148,61.5C 1145.69,58.3422 1143.52,58.1755 1141.5,61C 1146.51,61.8693 1146.17,62.5359 1140.5,63C 1141.17,63.3333 1141.83,63.6667 1142.5,64C 1137.53,67.6863 1137.86,71.853 1143.5,76.5C 1142.11,76.8072 1140.45,76.8072 1138.5,76.5C 1104.61,70.1985 1083.78,83.8652 1076,117.5C 1073.08,134.651 1074.75,151.317 1081,167.5C 1083.76,173.375 1087.26,178.709 1091.5,183.5C 1089.67,186.481 1087.84,189.481 1086,192.5C 1084.93,193.191 1083.77,193.691 1082.5,194C 1084.36,195.418 1084.86,197.251 1084,199.5C 1082.45,200.591 1081.28,201.924 1080.5,203.5C 1069.02,195.935 1060.86,185.602 1056,172.5C 1049.34,153.095 1047.84,133.429 1051.5,113.5C 1049.63,124.718 1050.46,135.718 1054,146.5C 1054.77,145.151 1055.94,144.318 1057.5,144C 1056.5,143.167 1055.5,142.333 1054.5,141.5C 1055.89,141.891 1056.89,141.058 1057.5,139C 1056.55,138.282 1056.38,137.449 1057,136.5C 1058.21,135.929 1059.37,135.262 1060.5,134.5C 1060.17,133.833 1059.83,133.167 1059.5,132.5C 1062.43,130.038 1063.1,127.038 1061.5,123.5C 1062.83,122.833 1064.17,122.167 1065.5,121.5C 1066.21,119.189 1067.21,117.022 1068.5,115C 1067.83,113.249 1067.49,111.583 1067.5,110C 1068.96,108.136 1069.96,105.969 1070.5,103.5C 1071.17,103.833 1071.83,104.167 1072.5,104.5C 1073.23,103.066 1074.23,101.9 1075.5,101C 1074.53,99.7964 1073.53,99.2964 1072.5,99.5C 1075.42,98.6384 1076.42,96.9717 1075.5,94.5C 1077.16,93.6733 1078.5,92.5067 1079.5,91C 1079.5,88.3333 1079.5,85.6667 1079.5,83C 1080.83,82.6667 1082.17,82.3333 1083.5,82C 1083.17,81.6667 1082.83,81.3333 1082.5,81C 1083.17,78.1413 1084.01,75.308 1085,72.5C 1085.33,73.5 1085.67,74.5 1086,75.5C 1087.66,71.9513 1088.82,68.2846 1089.5,64.5C 1085.64,65.8493 1081.97,67.6826 1078.5,70C 1078.83,70.3333 1079.17,70.6667 1079.5,71C 1078.45,71.4922 1077.45,71.3256 1076.5,70.5C 1074.74,72.2776 1072.74,73.6109 1070.5,74.5C 1091.35,53.9551 1116.01,47.7884 1144.5,56C 1146.86,57.2755 1149.19,58.4422 1151.5,59.5 Z"/></g>
<g><path style="opacity:1" fill="#e2c8e2" d="M 76.5,53.5 C 76.5,53.8333 76.5,54.1667 76.5,54.5C 67.8333,54.5 59.1667,54.5 50.5,54.5C 50.5,63.1667 50.5,71.8333 50.5,80.5C 49.5067,71.6822 49.1734,62.6822 49.5,53.5C 58.5,53.5 67.5,53.5 76.5,53.5 Z"/></g>
<g><path style="opacity:1" fill="#fefffe" d="M 76.5,54.5 C 76.8264,63.3494 76.493,72.0161 75.5,80.5C 67.1667,80.5 58.8333,80.5 50.5,80.5C 50.5,71.8333 50.5,63.1667 50.5,54.5C 59.1667,54.5 67.8333,54.5 76.5,54.5 Z"/></g>
<g><path style="opacity:1" fill="#f3edf6" d="M 132.5,53.5 C 137.493,53.997 138.493,56.1637 135.5,60C 130.382,59.8242 129.382,57.6576 132.5,53.5 Z"/></g>
<g><path style="opacity:1" fill="#d8d6ea" d="M 221.5,53.5 C 222.5,53.5 223.5,53.5 224.5,53.5C 224.5,53.8333 224.5,54.1667 224.5,54.5C 215.833,54.5 207.167,54.5 198.5,54.5C 198.5,63.1667 198.5,71.8333 198.5,80.5C 197.596,79.791 197.263,78.791 197.5,77.5C 197.5,69.5 197.5,61.5 197.5,53.5C 205.5,53.5 213.5,53.5 221.5,53.5 Z"/></g>
<g><path style="opacity:1" fill="#fefffe" d="M 224.5,54.5 C 224.826,63.3494 224.493,72.0161 223.5,80.5C 215.167,80.5 206.833,80.5 198.5,80.5C 198.5,71.8333 198.5,63.1667 198.5,54.5C 207.167,54.5 215.833,54.5 224.5,54.5 Z"/></g>
<g><path style="opacity:1" fill="#8d51af" d="M 640.5,81.5 C 630.23,90.0238 624.064,101.024 622,114.5C 621.76,118.252 621.26,121.919 620.5,125.5C 619.719,132.006 619.052,138.673 618.5,145.5C 618.291,146.994 617.624,148.161 616.5,149C 617.711,150.113 617.711,151.28 616.5,152.5C 620.311,153.738 620.311,154.404 616.5,154.5C 616.748,157.44 615.748,159.44 613.5,160.5C 614.025,161.192 614.692,161.692 615.5,162C 613.833,162.333 612.167,162.667 610.5,163C 613.167,163.667 613.167,164.333 610.5,165C 612.455,169.268 610.789,171.935 605.5,173C 606.624,173.249 607.624,173.749 608.5,174.5C 607.349,175.731 606.183,175.731 605,174.5C 603.833,171.5 602.667,168.5 601.5,165.5C 601.043,164.702 600.376,164.369 599.5,164.5C 597.953,160.748 596.953,156.748 596.5,152.5C 595.713,142.854 595.38,133.188 595.5,123.5C 596.388,99.8936 605.721,80.3936 623.5,65C 629.769,60.1985 636.769,57.0318 644.5,55.5C 646.591,55.6816 648.591,55.3482 650.5,54.5C 651.167,55.1667 651.833,55.8333 652.5,56.5C 654.432,55.4798 656.432,55.3131 658.5,56C 658.943,57.5185 658.276,58.6852 656.5,59.5C 657.167,59.8333 657.833,60.1667 658.5,60.5C 656.076,62.3035 654.409,64.6368 653.5,67.5C 654.529,67.2964 655.529,67.7964 656.5,69C 655.552,69.4828 654.552,69.6495 653.5,69.5C 653.5,70.5 653.5,71.5 653.5,72.5C 651.549,72.2267 650.049,72.8934 649,74.5C 648.667,74.1667 648.333,73.8333 648,73.5C 646.421,75.0412 644.587,76.2078 642.5,77C 640.963,78.1096 640.297,79.6096 640.5,81.5 Z"/></g>
<g><path style="opacity:1" fill="#8957b1" d="M 703.5,65.5 C 703.389,66.1174 703.056,66.6174 702.5,67C 704.293,69.7953 706.46,72.2953 709,74.5C 709.494,76.1341 709.66,77.8008 709.5,79.5C 713.5,79.8333 713.5,80.1667 709.5,80.5C 709.66,82.1992 709.494,83.8659 709,85.5C 708.751,84.376 708.251,83.376 707.5,82.5C 707.167,82.6667 706.833,82.8333 706.5,83C 705.993,85.1405 706.493,86.9738 708,88.5C 706.612,87.4464 705.112,87.2797 703.5,88C 704.448,88.4828 705.448,88.6495 706.5,88.5C 706.22,91.7265 704.887,94.3932 702.5,96.5C 701.396,95.3687 701.729,94.5354 703.5,94C 700.484,92.3141 697.484,90.8141 694.5,89.5C 680.909,74.7046 664.576,70.8712 645.5,78C 644.154,79.6692 642.487,80.8358 640.5,81.5C 640.297,79.6096 640.963,78.1096 642.5,77C 644.587,76.2078 646.421,75.0412 648,73.5C 648.333,73.8333 648.667,74.1667 649,74.5C 650.049,72.8934 651.549,72.2267 653.5,72.5C 653.5,71.5 653.5,70.5 653.5,69.5C 654.552,69.6495 655.552,69.4828 656.5,69C 655.529,67.7964 654.529,67.2964 653.5,67.5C 654.409,64.6368 656.076,62.3035 658.5,60.5C 657.833,60.1667 657.167,59.8333 656.5,59.5C 658.276,58.6852 658.943,57.5185 658.5,56C 656.432,55.3131 654.432,55.4798 652.5,56.5C 651.833,55.8333 651.167,55.1667 650.5,54.5C 648.591,55.3482 646.591,55.6816 644.5,55.5C 665.666,49.6389 685.333,52.9722 703.5,65.5 Z"/></g>
<g><path style="opacity:1" fill="#ab38ae" d="M 374.5,57.5 C 374.611,58.1174 374.944,58.6174 375.5,59C 373.98,61.7662 371.647,63.4328 368.5,64C 371.167,65 371.167,66 368.5,67C 371.259,69.4837 370.926,70.6503 367.5,70.5C 367.227,72.451 367.893,73.951 369.5,75C 366.183,75.4983 362.85,75.665 359.5,75.5C 349.833,75.5 340.167,75.5 330.5,75.5C 330.17,95.0072 330.503,114.341 331.5,133.5C 341.833,133.5 352.167,133.5 362.5,133.5C 367.134,133.054 370.801,134.554 373.5,138C 372.842,139.905 371.675,141.405 370,142.5C 369.508,143.549 369.674,144.549 370.5,145.5C 369.478,146.354 368.645,147.354 368,148.5C 367.016,146.205 366.183,146.539 365.5,149.5C 362.833,150.167 360.167,150.833 357.5,151.5C 348.342,152.167 339.342,152.833 330.5,153.5C 330.5,173.5 330.5,193.5 330.5,213.5C 322.167,213.5 313.833,213.5 305.5,213.5C 305.5,160.833 305.5,108.167 305.5,55.5C 325.836,55.3334 346.169,55.5 366.5,56C 369.168,56.567 371.834,57.067 374.5,57.5 Z"/></g>
<g><path style="opacity:1" fill="#7963b1" d="M 751.5,55.5 C 751.5,62.1667 751.5,68.8333 751.5,75.5C 765.218,75.9061 778.885,75.4061 792.5,74C 790.1,73.8142 787.766,73.3142 785.5,72.5C 788.078,72.3233 788.078,71.1567 785.5,69C 787.998,67.9138 789.998,66.2472 791.5,64C 791.167,63.6667 790.833,63.3333 790.5,63C 792.037,61.8904 792.703,60.3904 792.5,58.5C 794.857,58.6633 797.19,58.4966 799.5,58C 797.833,57.6667 796.167,57.3333 794.5,57C 800.016,56.8267 805.349,56.3267 810.5,55.5C 829.5,55.5 848.5,55.5 867.5,55.5C 862.684,56.3261 857.684,56.8261 852.5,57C 853.833,57.3333 855.167,57.6667 856.5,58C 854.302,58.3729 852.135,58.8729 850,59.5C 849.228,59.3552 848.561,59.0219 848,58.5C 847.276,60.6725 846.776,63.0058 846.5,65.5C 845.624,66.2508 844.624,66.7508 843.5,67C 845.878,67.9745 845.544,68.6411 842.5,69C 843.88,70.3236 844.214,71.6569 843.5,73C 845.167,73.3333 846.833,73.6667 848.5,74C 839.698,74.9667 831.031,75.8 822.5,76.5C 821.756,98.6762 820.922,121.01 820,143.5C 819.667,138.5 819.333,133.5 819,128.5C 818.316,130.359 817.316,132.026 816,133.5C 815.667,133.167 815.333,132.833 815,132.5C 814.879,134.727 814.046,136.56 812.5,138C 813.5,138.333 814.5,138.667 815.5,139C 813.998,141.247 811.998,142.914 809.5,144C 810.5,145 811.5,146 812.5,147C 810.849,148.943 808.849,150.443 806.5,151.5C 807.165,153.101 807.499,154.601 807.5,156C 802.492,156.869 802.825,157.536 808.5,158C 803.793,157.983 802.793,159.65 805.5,163C 802.129,163.174 801.129,164.674 802.5,167.5C 799.826,168.499 799.159,170.166 800.5,172.5C 799.699,180.118 799.199,187.784 799,195.5C 798.833,155.665 798.333,115.998 797.5,76.5C 782.167,76.5 766.833,76.5 751.5,76.5C 750.167,69.5 750.167,62.5 751.5,55.5 Z"/></g>
<g><path style="opacity:1" fill="#7e5db0" d="M 751.5,55.5 C 771.167,55.5 790.833,55.5 810.5,55.5C 805.349,56.3267 800.016,56.8267 794.5,57C 796.167,57.3333 797.833,57.6667 799.5,58C 797.19,58.4966 794.857,58.6633 792.5,58.5C 792.703,60.3904 792.037,61.8904 790.5,63C 790.833,63.3333 791.167,63.6667 791.5,64C 789.998,66.2472 787.998,67.9138 785.5,69C 788.078,71.1567 788.078,72.3233 785.5,72.5C 787.766,73.3142 790.1,73.8142 792.5,74C 778.885,75.4061 765.218,75.9061 751.5,75.5C 751.5,68.8333 751.5,62.1667 751.5,55.5 Z"/></g>
<g><path style="opacity:1" fill="#7768b2" d="M 867.5,55.5 C 868.491,62.3134 868.825,69.3134 868.5,76.5C 853.167,76.5 837.833,76.5 822.5,76.5C 831.031,75.8 839.698,74.9667 848.5,74C 846.833,73.6667 845.167,73.3333 843.5,73C 844.214,71.6569 843.88,70.3236 842.5,69C 845.544,68.6411 845.878,67.9745 843.5,67C 844.624,66.7508 845.624,66.2508 846.5,65.5C 846.776,63.0058 847.276,60.6725 848,58.5C 848.561,59.0219 849.228,59.3552 850,59.5C 852.135,58.8729 854.302,58.3729 856.5,58C 855.167,57.6667 853.833,57.3333 852.5,57C 857.684,56.8261 862.684,56.3261 867.5,55.5 Z"/></g>
<g><path style="opacity:1" fill="#6875b3" d="M 963.5,53.5 C 964.5,53.5 965.5,53.5 966.5,53.5C 984.982,56.402 999.648,65.402 1010.5,80.5C 1009.61,82.9027 1010.27,85.0694 1012.5,87C 1012.5,88.3333 1012.5,89.6667 1012.5,91C 1013.33,91.9147 1014.33,92.5814 1015.5,93C 1014.97,96.495 1013.63,99.6617 1011.5,102.5C 1012.03,103.192 1012.69,103.692 1013.5,104C 1012.58,104.374 1011.75,104.874 1011,105.5C 1010.71,107.952 1010.04,110.285 1009,112.5C 1008.97,109.895 1007.81,108.729 1005.5,109C 1006.17,109.667 1006.83,110.333 1007.5,111C 1007.2,112.32 1007.03,113.82 1007,115.5C 1004.15,116.433 1003.99,117.933 1006.5,120C 1004.6,120.199 1003.1,121.033 1002,122.5C 1001.61,118.658 1000.44,114.824 998.5,111C 999.172,109.421 998.505,108.254 996.5,107.5C 991.585,90.5197 980.585,79.5197 963.5,74.5C 967.565,72.876 968.232,70.376 965.5,67C 966.337,65.9887 966.67,64.8221 966.5,63.5C 967.822,63.33 968.989,63.6634 970,64.5C 970.617,63.5509 970.451,62.7175 969.5,62C 970.5,61.6667 971.5,61.3333 972.5,61C 969.536,60.1597 969.203,59.1597 971.5,58C 969.924,57.5604 968.59,56.727 967.5,55.5C 965.134,56.9837 963.801,56.317 963.5,53.5 Z"/></g>
<g><path style="opacity:1" fill="#4d8cb5" d="M 1266.5,55.5 C 1269.53,57.0177 1272.87,57.8511 1276.5,58C 1274.17,58.3333 1271.83,58.6667 1269.5,59C 1268.15,59.7724 1267.32,60.9391 1267,62.5C 1266.67,61.1667 1266.33,59.8333 1266,58.5C 1265.7,60.4405 1264.86,62.1072 1263.5,63.5C 1264.51,66.0281 1263.84,68.1947 1261.5,70C 1261.74,70.8732 1262.07,71.7065 1262.5,72.5C 1264.42,73.3078 1266.42,73.8078 1268.5,74C 1256.7,75.0279 1245.03,75.8613 1233.5,76.5C 1233.5,91.1667 1233.5,105.833 1233.5,120.5C 1233.84,121.338 1234.51,121.672 1235.5,121.5C 1236.61,122.29 1237.94,122.79 1239.5,123C 1238.37,124.016 1238.7,124.683 1240.5,125C 1239.5,125.333 1238.5,125.667 1237.5,126C 1238.41,127.699 1238.74,129.533 1238.5,131.5C 1236.9,131.312 1235.56,131.812 1234.5,133C 1235.17,133.333 1235.83,133.667 1236.5,134C 1232.15,134.419 1231.81,135.086 1235.5,136C 1233.91,136.862 1232.25,137.529 1230.5,138C 1233.83,138.333 1237.17,138.667 1240.5,139C 1239.94,139.383 1239.61,139.883 1239.5,140.5C 1237.26,140.205 1235.26,140.539 1233.5,141.5C 1232.82,158.351 1231.98,175.351 1231,192.5C 1230.67,188.833 1230.33,185.167 1230,181.5C 1228.63,182.993 1228.47,184.493 1229.5,186C 1229.17,186.167 1228.83,186.333 1228.5,186.5C 1227.75,185.624 1227.25,184.624 1227,183.5C 1226.69,184.766 1226.19,185.933 1225.5,187C 1226.63,188.016 1226.3,188.683 1224.5,189C 1227.03,190.316 1227.03,191.483 1224.5,192.5C 1225.46,193.812 1225.29,195.146 1224,196.5C 1223.58,195.044 1222.74,194.544 1221.5,195C 1221.62,196.268 1221.95,197.602 1222.5,199C 1221.32,201.125 1219.99,202.959 1218.5,204.5C 1214.86,205.268 1215.19,205.934 1219.5,206.5C 1219.5,207.833 1219.5,209.167 1219.5,210.5C 1218.5,210.5 1217.5,210.5 1216.5,210.5C 1216.65,209.448 1216.48,208.448 1216,207.5C 1215.33,209.167 1215.33,210.833 1216,212.5C 1216.33,212.167 1216.67,211.833 1217,211.5C 1220.94,212.138 1224.77,212.804 1228.5,213.5C 1221.83,213.5 1215.17,213.5 1208.5,213.5C 1208.5,160.833 1208.5,108.167 1208.5,55.5C 1227.83,55.5 1247.17,55.5 1266.5,55.5 Z"/></g>
<g><path style="opacity:1" fill="#31a7b7" d="M 1518.5,55.5 C 1518.67,68.8375 1518.5,82.1708 1518,95.5C 1517.67,90.5 1517.33,85.5 1517,80.5C 1516.67,88.5 1516.33,96.5 1516,104.5C 1514.99,103.663 1513.82,103.33 1512.5,103.5C 1512.83,105.5 1513.17,107.5 1513.5,109.5C 1510.4,109.413 1510.07,109.913 1512.5,111C 1510.11,111.691 1510.11,112.691 1512.5,114C 1511.93,115.205 1511.26,116.372 1510.5,117.5C 1509.83,117.167 1509.17,116.833 1508.5,116.5C 1507.86,118.296 1506.86,119.796 1505.5,121C 1505.38,122.789 1505.38,124.622 1505.5,126.5C 1504.62,127.251 1503.62,127.751 1502.5,128C 1503.62,128.249 1504.62,128.749 1505.5,129.5C 1504.02,130.113 1502.69,130.446 1501.5,130.5C 1502.09,131.799 1503.09,132.632 1504.5,133C 1502.87,133.494 1501.2,133.66 1499.5,133.5C 1499.3,135.39 1499.96,136.89 1501.5,138C 1500.66,139.011 1500.33,140.178 1500.5,141.5C 1499.32,141.719 1498.32,141.386 1497.5,140.5C 1498.17,140.167 1498.83,139.833 1499.5,139.5C 1497.82,135.403 1496.98,131.069 1497,126.5C 1496.52,141.011 1495.69,155.345 1494.5,169.5C 1494.5,131.5 1494.5,93.5 1494.5,55.5C 1502.5,55.5 1510.5,55.5 1518.5,55.5 Z"/></g>
<g><path style="opacity:1" fill="#29b3b9" d="M 1624.5,143.5 C 1623.24,145.486 1623.57,147.319 1625.5,149C 1623.99,150.439 1623.65,151.939 1624.5,153.5C 1623.56,153.489 1622.89,153.989 1622.5,155C 1622.91,155.945 1623.57,156.612 1624.5,157C 1622.7,157.317 1622.37,157.984 1623.5,159C 1622.81,160.067 1622.31,161.234 1622,162.5C 1621.72,160.114 1620.72,159.448 1619,160.5C 1618.67,162.047 1619.17,163.38 1620.5,164.5C 1619.29,166.421 1617.79,168.088 1616,169.5C 1615.55,166.894 1614.05,165.561 1611.5,165.5C 1608.85,160.193 1606.18,154.86 1603.5,149.5C 1602.83,148.167 1602.17,148.167 1601.5,149.5C 1591.17,170.835 1580.83,192.169 1570.5,213.5C 1561.49,213.666 1552.49,213.5 1543.5,213C 1558.49,186.016 1573.49,159.016 1588.5,132C 1583.1,122.699 1578.1,113.199 1573.5,103.5C 1574.58,103.539 1575.58,103.873 1576.5,104.5C 1576.58,100.952 1577.92,97.6184 1580.5,94.5C 1579.36,93.109 1579.36,91.7757 1580.5,90.5C 1581.09,90.7093 1581.59,91.0426 1582,91.5C 1583.27,86.807 1584.1,81.807 1584.5,76.5C 1591.68,89.3756 1598.68,102.376 1605.5,115.5C 1614.88,95.7414 1624.55,76.0747 1634.5,56.5C 1643.48,55.3347 1652.48,55.168 1661.5,56C 1647.63,81.1866 1633.8,106.353 1620,131.5C 1619.33,132.833 1619.33,134.167 1620,135.5C 1622.16,137.817 1623.66,140.484 1624.5,143.5 Z"/></g>
<g><path style="opacity:1" fill="#4c91b6" d="M 1266.5,55.5 C 1278.17,55.5 1289.83,55.5 1301.5,55.5C 1301.5,62.5 1301.5,69.5 1301.5,76.5C 1278.83,76.5 1256.17,76.5 1233.5,76.5C 1245.03,75.8613 1256.7,75.0279 1268.5,74C 1266.42,73.8078 1264.42,73.3078 1262.5,72.5C 1262.07,71.7065 1261.74,70.8732 1261.5,70C 1263.84,68.1947 1264.51,66.0281 1263.5,63.5C 1264.86,62.1072 1265.7,60.4405 1266,58.5C 1266.33,59.8333 1266.67,61.1667 1267,62.5C 1267.32,60.9391 1268.15,59.7724 1269.5,59C 1271.83,58.6667 1274.17,58.3333 1276.5,58C 1272.87,57.8511 1269.53,57.0177 1266.5,55.5 Z"/></g>
<g><path style="opacity:1" fill="#2eadb8" d="M 1584.5,76.5 C 1584.1,81.807 1583.27,86.807 1582,91.5C 1581.59,91.0426 1581.09,90.7093 1580.5,90.5C 1579.36,91.7757 1579.36,93.109 1580.5,94.5C 1577.92,97.6184 1576.58,100.952 1576.5,104.5C 1575.58,103.873 1574.58,103.539 1573.5,103.5C 1564.13,87.941 1555.13,72.1076 1546.5,56C 1555.83,55.3333 1565.17,55.3333 1574.5,56C 1578.24,62.6559 1581.58,69.4892 1584.5,76.5 Z"/></g>
<g><path style="opacity:1" fill="#c494c7" d="M 88.5,46.5 C 88.56,45.9569 88.8933,45.6236 89.5,45.5C 90.4967,52.1335 90.83,58.8002 90.5,65.5C 90.7678,67.099 90.4345,68.4324 89.5,69.5C 89.8254,61.6484 89.492,53.9818 88.5,46.5 Z"/></g>
<g><path style="opacity:1" fill="#4298b6" d="M 1337.5,55.5 C 1345.84,55.3336 1354.17,55.5003 1362.5,56C 1367.89,64.6126 1372.89,73.4459 1377.5,82.5C 1377.29,85.9704 1376.12,85.9704 1374,82.5C 1372.13,83.9973 1371.13,85.9973 1371,88.5C 1370.83,84.4886 1370,83.9886 1368.5,87C 1369.05,88.3985 1369.38,89.7318 1369.5,91C 1366.19,93.9216 1365.86,97.0882 1368.5,100.5C 1367.68,101.386 1366.68,101.719 1365.5,101.5C 1363.27,96.7013 1360.77,92.0346 1358,87.5C 1358.52,97.4665 1359.02,107.467 1359.5,117.5C 1358.78,117.082 1358.28,116.416 1358,115.5C 1357.83,116 1357.67,116.5 1357.5,117C 1358.61,123.462 1358.78,129.962 1358,136.5C 1357.81,130.436 1357.14,124.436 1356,118.5C 1355.25,119.126 1354.42,119.626 1353.5,120C 1355.96,121.512 1355.96,122.846 1353.5,124C 1353.83,124.333 1354.17,124.667 1354.5,125C 1351.12,125.722 1350.12,127.555 1351.5,130.5C 1348.52,134.82 1345.85,139.32 1343.5,144C 1344.71,146.709 1343.71,148.375 1340.5,149C 1341.04,150.744 1341.37,152.577 1341.5,154.5C 1339.67,155.428 1339.33,156.594 1340.5,158C 1339.68,170.425 1339.18,182.925 1339,195.5C 1337.88,148.84 1337.38,102.173 1337.5,55.5 Z"/></g>
<g><path style="opacity:1" fill="#6378bb" d="M 224.5,53.5 C 225.329,61.6566 225.829,69.9899 226,78.5C 227.704,76.6266 229.537,74.9599 231.5,73.5C 231.369,74.2389 231.536,74.9056 232,75.5C 235.688,73.0114 237.855,69.6781 238.5,65.5C 240.5,63.8333 242.5,62.1667 244.5,60.5C 244.666,64.5138 244.499,68.5138 244,72.5C 239.963,76.369 236.13,80.369 232.5,84.5C 231.615,87.06 229.949,89.06 227.5,90.5C 227.196,89.8501 226.863,89.1835 226.5,88.5C 216.856,87.5016 207.19,87.1682 197.5,87.5C 204.321,86.6715 211.321,86.1715 218.5,86C 220.373,84.2962 222.04,82.4628 223.5,80.5C 224.493,72.0161 224.826,63.3494 224.5,54.5C 224.5,54.1667 224.5,53.8333 224.5,53.5 Z"/></g>
<g><path style="opacity:1" fill="#883d99" d="M 76.5,53.5 C 77.3294,61.6566 77.8294,69.9899 78,78.5C 79.7038,76.6266 81.5372,74.9599 83.5,73.5C 83.369,74.2389 83.5357,74.9056 84,75.5C 86.0396,73.6298 87.8729,71.6298 89.5,69.5C 90.4345,68.4324 90.7678,67.099 90.5,65.5C 92.5,63.8333 94.5,62.1667 96.5,60.5C 96.5,62.8333 96.5,65.1667 96.5,67.5C 101.167,67.5 105.833,67.5 110.5,67.5C 117.444,72.7751 123.777,78.7751 129.5,85.5C 128.627,87.8863 127.127,89.8863 125,91.5C 124.768,90.2625 124.268,89.2625 123.5,88.5C 119.037,83.5354 114.37,78.7021 109.5,74C 104.5,73.3333 99.5,73.3333 94.5,74C 90.1667,78.3333 85.8333,82.6667 81.5,87C 75.1754,87.4995 68.8421,87.6662 62.5,87.5C 68.2257,87.8895 72.559,85.5562 75.5,80.5C 76.493,72.0161 76.8264,63.3494 76.5,54.5C 76.5,54.1667 76.5,53.8333 76.5,53.5 Z"/></g>
<g><path style="opacity:1" fill="#cba9d2" d="M 97.5,52.5 C 97.5,57.1667 97.5,61.8333 97.5,66.5C 102.032,66.1818 106.366,66.5151 110.5,67.5C 105.833,67.5 101.167,67.5 96.5,67.5C 96.5,65.1667 96.5,62.8333 96.5,60.5C 96.1936,57.6146 96.5269,54.9479 97.5,52.5 Z"/></g>
<g><path style="opacity:1" fill="#5986b5" d="M 1151.5,59.5 C 1158.09,62.3784 1163.92,66.3784 1169,71.5C 1168.6,73.6313 1167.6,75.6313 1166,77.5C 1163.1,81.3259 1159.77,84.6592 1156,87.5C 1150.78,82.768 1144.95,79.1014 1138.5,76.5C 1140.45,76.8072 1142.11,76.8072 1143.5,76.5C 1137.86,71.853 1137.53,67.6863 1142.5,64C 1141.83,63.6667 1141.17,63.3333 1140.5,63C 1146.17,62.5359 1146.51,61.8693 1141.5,61C 1143.52,58.1755 1145.69,58.3422 1148,61.5C 1148.74,60.3595 1149.57,60.3595 1150.5,61.5C 1151.3,61.0431 1151.63,60.3764 1151.5,59.5 Z"/></g>
<g><path style="opacity:1" fill="#705dac" d="M 168.5,105.5 C 167.375,107.129 166.041,108.629 164.5,110C 155.173,110.5 145.839,110.666 136.5,110.5C 139.462,107.036 142.629,103.703 146,100.5C 146.499,95.5111 146.666,90.5111 146.5,85.5C 147.49,91.6446 147.823,97.9779 147.5,104.5C 150.833,104.5 154.167,104.5 157.5,104.5C 157.334,100.486 157.501,96.4862 158,92.5C 161,90.1667 164,87.8333 167,85.5C 167.808,83.4213 167.641,81.4213 166.5,79.5C 161.871,76.7801 160.038,72.7801 161,67.5C 165.767,59.3422 171.767,58.3422 179,64.5C 181.797,70.5142 180.63,75.5142 175.5,79.5C 174.679,82.4465 174.179,85.4465 174,88.5C 171.362,91.3167 168.362,93.65 165,95.5C 164.502,98.4816 164.335,101.482 164.5,104.5C 165.959,104.433 167.292,104.766 168.5,105.5 Z"/></g>
<g><path style="opacity:1" fill="#efecf5" d="M 168.5,67.5 C 173.123,66.4082 174.956,68.0748 174,72.5C 168.42,74.7516 166.587,73.0849 168.5,67.5 Z"/></g>
<g><path style="opacity:1" fill="#a53cae" d="M 374.5,57.5 C 404.875,63.8745 417.708,82.5411 413,113.5C 409.142,133.062 397.642,145.562 378.5,151C 373.205,152.158 367.872,152.991 362.5,153.5C 351.833,153.5 341.167,153.5 330.5,153.5C 339.342,152.833 348.342,152.167 357.5,151.5C 360.167,150.833 362.833,150.167 365.5,149.5C 366.183,146.539 367.016,146.205 368,148.5C 368.645,147.354 369.478,146.354 370.5,145.5C 369.674,144.549 369.508,143.549 370,142.5C 371.675,141.405 372.842,139.905 373.5,138C 370.801,134.554 367.134,133.054 362.5,133.5C 384.089,129.016 392.922,115.682 389,93.5C 382.971,81.5595 373.138,75.8929 359.5,76.5C 359.5,76.1667 359.5,75.8333 359.5,75.5C 362.85,75.665 366.183,75.4983 369.5,75C 367.893,73.951 367.227,72.451 367.5,70.5C 370.926,70.6503 371.259,69.4837 368.5,67C 371.167,66 371.167,65 368.5,64C 371.647,63.4328 373.98,61.7662 375.5,59C 374.944,58.6174 374.611,58.1174 374.5,57.5 Z"/></g>
<g><path style="opacity:1" fill="#9548af" d="M 537.5,55.5 C 545.5,55.5 553.5,55.5 561.5,55.5C 561.5,68.1667 561.5,80.8333 561.5,93.5C 560.681,90.6946 560.181,87.6946 560,84.5C 560.124,97.675 559.29,110.675 557.5,123.5C 558.933,125.809 558.266,127.309 555.5,128C 556.833,128.667 556.833,129.333 555.5,130C 556.167,131.333 557.167,132.333 558.5,133C 557.167,133.333 555.833,133.667 554.5,134C 555.28,135.073 555.113,136.24 554,137.5C 553.667,136.833 553.333,136.167 553,135.5C 552.691,136.766 552.191,137.933 551.5,139C 551.833,140.667 552.167,142.333 552.5,144C 550.699,144.317 550.366,144.984 551.5,146C 550.874,146.75 550.374,147.584 550,148.5C 549.577,147.044 548.744,146.544 547.5,147C 547.966,148.299 547.966,149.799 547.5,151.5C 546.448,151.351 545.448,151.517 544.5,152C 544.421,153.907 544.754,155.907 545.5,158C 544.437,159.188 543.103,159.688 541.5,159.5C 541.383,161.484 542.05,163.15 543.5,164.5C 543.024,167.201 542.024,167.701 540.5,166C 540.833,165.667 541.167,165.333 541.5,165C 540.216,160.692 538.883,156.525 537.5,152.5C 537.5,148.833 537.5,145.167 537.5,141.5C 514.833,141.5 492.167,141.5 469.5,141.5C 476.345,140.833 483.345,140.167 490.5,139.5C 492.335,138.572 492.668,137.406 491.5,136C 492.833,135.667 494.167,135.333 495.5,135C 495.167,134.667 494.833,134.333 494.5,134C 495.308,133.692 495.975,133.192 496.5,132.5C 496.154,131.304 495.654,131.304 495,132.5C 494.833,131.667 494.667,130.833 494.5,130C 496.194,127.778 497.194,125.278 497.5,122.5C 488.01,121.976 478.676,121.309 469.5,120.5C 492.167,120.5 514.833,120.5 537.5,120.5C 537.5,98.8333 537.5,77.1667 537.5,55.5 Z"/></g>
<g><path style="opacity:1" fill="#fbfafc" d="M 123.5,88.5 C 123.5,93.8333 123.5,99.1667 123.5,104.5C 119.577,104.796 116.577,106.629 114.5,110C 111.167,110.667 107.833,110.667 104.5,110C 101.465,106.63 98.1317,103.63 94.5,101C 90.5138,100.501 86.5138,100.334 82.5,100.5C 79.5365,94.8548 74.8699,93.0215 68.5,95C 62.918,99.7388 62.0846,105.239 66,111.5C 72.4458,115.978 77.9458,114.978 82.5,108.5C 84.0453,107.548 85.712,107.215 87.5,107.5C 89.1992,107.34 90.8659,107.506 92.5,108C 95.5,111 98.5,114 101.5,117C 105.486,117.499 109.486,117.666 113.5,117.5C 113.5,119.833 113.5,122.167 113.5,124.5C 105.493,124.666 97.4931,124.5 89.5,124C 84.6157,116.445 78.7823,115.612 72,121.5C 68.0432,130.119 70.5432,135.452 79.5,137.5C 84.0549,137.555 87.3882,135.555 89.5,131.5C 97.6572,130.18 105.657,130.18 113.5,131.5C 113.5,133.5 113.5,135.5 113.5,137.5C 107.31,137.177 101.31,137.51 95.5,138.5C 90.0292,141.403 84.6959,144.57 79.5,148C 74.8452,148.499 70.1785,148.666 65.5,148.5C 64.5335,143.422 61.3668,141.088 56,141.5C 53.813,141.788 51.6463,142.122 49.5,142.5C 49.5,141.5 49.5,140.5 49.5,139.5C 49.2075,127.832 50.8741,116.499 54.5,105.5C 56.211,99.0179 58.8776,93.0179 62.5,87.5C 68.8421,87.6662 75.1754,87.4995 81.5,87C 85.8333,82.6667 90.1667,78.3333 94.5,74C 99.5,73.3333 104.5,73.3333 109.5,74C 114.37,78.7021 119.037,83.5354 123.5,88.5 Z"/></g>
<g><path style="opacity:1" fill="#fefdfe" d="M 694.5,89.5 C 706.036,107.491 709.869,127.158 706,148.5C 704.46,162.242 699.127,174.242 690,184.5C 677.143,194.896 662.976,197.229 647.5,191.5C 633.02,182.573 624.52,169.573 622,152.5C 620.96,143.528 620.46,134.528 620.5,125.5C 621.26,121.919 621.76,118.252 622,114.5C 624.064,101.024 630.23,90.0238 640.5,81.5C 642.487,80.8358 644.154,79.6692 645.5,78C 664.576,70.8712 680.909,74.7046 694.5,89.5 Z"/></g>
<g><path style="opacity:1" fill="#fdfdfe" d="M 963.5,74.5 C 980.585,79.5197 991.585,90.5197 996.5,107.5C 1001.54,129.308 1000.04,150.641 992,171.5C 983.443,187.862 969.943,195.529 951.5,194.5C 939.062,192.534 929.562,186.2 923,175.5C 920.368,169.728 917.868,164.061 915.5,158.5C 913.572,144.568 913.072,130.568 914,116.5C 915.549,109.187 917.882,102.187 921,95.5C 930.401,79.0769 944.568,72.0769 963.5,74.5 Z"/></g>
<g><path style="opacity:1" fill="#fefdfe" d="M 359.5,76.5 C 373.138,75.8929 382.971,81.5595 389,93.5C 392.922,115.682 384.089,129.016 362.5,133.5C 352.167,133.5 341.833,133.5 331.5,133.5C 331.5,114.5 331.5,95.5 331.5,76.5C 340.833,76.5 350.167,76.5 359.5,76.5 Z"/></g>
<g><path style="opacity:1" fill="#e0dbec" d="M 751.5,76.5 C 766.833,76.5 782.167,76.5 797.5,76.5C 797.5,122.167 797.5,167.833 797.5,213.5C 796.501,168.336 796.168,123.003 796.5,77.5C 781.324,77.8294 766.324,77.4961 751.5,76.5 Z"/></g>
<g><path style="opacity:1" fill="#e9e7f3" d="M 822.5,76.5 C 837.833,76.5 853.167,76.5 868.5,76.5C 853.676,77.4961 838.676,77.8294 823.5,77.5C 823.832,123.003 823.499,168.336 822.5,213.5C 822.5,167.833 822.5,122.167 822.5,76.5 Z"/></g>
<g><path style="opacity:1" fill="#2eabb7" d="M 1518.5,55.5 C 1519.5,107.997 1519.83,160.664 1519.5,213.5C 1511.17,213.5 1502.83,213.5 1494.5,213.5C 1494.5,198.833 1494.5,184.167 1494.5,169.5C 1495.69,155.345 1496.52,141.011 1497,126.5C 1496.98,131.069 1497.82,135.403 1499.5,139.5C 1498.83,139.833 1498.17,140.167 1497.5,140.5C 1498.32,141.386 1499.32,141.719 1500.5,141.5C 1500.33,140.178 1500.66,139.011 1501.5,138C 1499.96,136.89 1499.3,135.39 1499.5,133.5C 1501.2,133.66 1502.87,133.494 1504.5,133C 1503.09,132.632 1502.09,131.799 1501.5,130.5C 1502.69,130.446 1504.02,130.113 1505.5,129.5C 1504.62,128.749 1503.62,128.249 1502.5,128C 1503.62,127.751 1504.62,127.251 1505.5,126.5C 1505.38,124.622 1505.38,122.789 1505.5,121C 1506.86,119.796 1507.86,118.296 1508.5,116.5C 1509.17,116.833 1509.83,117.167 1510.5,117.5C 1511.26,116.372 1511.93,115.205 1512.5,114C 1510.11,112.691 1510.11,111.691 1512.5,111C 1510.07,109.913 1510.4,109.413 1513.5,109.5C 1513.17,107.5 1512.83,105.5 1512.5,103.5C 1513.82,103.33 1514.99,103.663 1516,104.5C 1516.33,96.5 1516.67,88.5 1517,80.5C 1517.33,85.5 1517.67,90.5 1518,95.5C 1518.5,82.1708 1518.67,68.8375 1518.5,55.5 Z"/></g>
<g><path style="opacity:1" fill="#835db1" d="M 703.5,65.5 C 721.645,80.3549 731.145,99.6882 732,123.5C 734.948,149.291 728.948,172.624 714,193.5C 695.065,214.078 672.231,220.744 645.5,213.5C 648.097,213.279 648.097,212.779 645.5,212C 646.784,211.316 647.951,211.483 649,212.5C 651.074,210.548 653.241,208.715 655.5,207C 654.692,206.692 654.025,206.192 653.5,205.5C 654.711,204.28 654.711,203.113 653.5,202C 655.531,201.368 657.198,200.201 658.5,198.5C 656.14,196.886 653.14,195.552 649.5,194.5C 648.388,193.735 647.721,192.735 647.5,191.5C 662.976,197.229 677.143,194.896 690,184.5C 699.127,174.242 704.46,162.242 706,148.5C 709.869,127.158 706.036,107.491 694.5,89.5C 697.484,90.8141 700.484,92.3141 703.5,94C 701.729,94.5354 701.396,95.3687 702.5,96.5C 704.887,94.3932 706.22,91.7265 706.5,88.5C 705.448,88.6495 704.448,88.4828 703.5,88C 705.112,87.2797 706.612,87.4464 708,88.5C 706.493,86.9738 705.993,85.1405 706.5,83C 706.833,82.8333 707.167,82.6667 707.5,82.5C 708.251,83.376 708.751,84.376 709,85.5C 709.494,83.8659 709.66,82.1992 709.5,80.5C 713.5,80.1667 713.5,79.8333 709.5,79.5C 709.66,77.8008 709.494,76.1341 709,74.5C 706.46,72.2953 704.293,69.7953 702.5,67C 703.056,66.6174 703.389,66.1174 703.5,65.5 Z"/></g>
<g><path style="opacity:1" fill="#904caf" d="M 561.5,93.5 C 561.5,133.5 561.5,173.5 561.5,213.5C 553.5,213.5 545.5,213.5 537.5,213.5C 537.5,193.167 537.5,172.833 537.5,152.5C 538.883,156.525 540.216,160.692 541.5,165C 541.167,165.333 540.833,165.667 540.5,166C 542.024,167.701 543.024,167.201 543.5,164.5C 542.05,163.15 541.383,161.484 541.5,159.5C 543.103,159.688 544.437,159.188 545.5,158C 544.754,155.907 544.421,153.907 544.5,152C 545.448,151.517 546.448,151.351 547.5,151.5C 547.966,149.799 547.966,148.299 547.5,147C 548.744,146.544 549.577,147.044 550,148.5C 550.374,147.584 550.874,146.75 551.5,146C 550.366,144.984 550.699,144.317 552.5,144C 552.167,142.333 551.833,140.667 551.5,139C 552.191,137.933 552.691,136.766 553,135.5C 553.333,136.167 553.667,136.833 554,137.5C 555.113,136.24 555.28,135.073 554.5,134C 555.833,133.667 557.167,133.333 558.5,133C 557.167,132.333 556.167,131.333 555.5,130C 556.833,129.333 556.833,128.667 555.5,128C 558.266,127.309 558.933,125.809 557.5,123.5C 559.29,110.675 560.124,97.675 560,84.5C 560.181,87.6946 560.681,90.6946 561.5,93.5 Z"/></g>
<g><path style="opacity:1" fill="#6c72b7" d="M 190.5,52.5 C 191.33,62.3249 191.83,72.3249 192,82.5C 193.704,80.6266 195.537,78.9599 197.5,77.5C 197.263,78.791 197.596,79.791 198.5,80.5C 206.833,80.5 215.167,80.5 223.5,80.5C 222.04,82.4628 220.373,84.2962 218.5,86C 211.321,86.1715 204.321,86.6715 197.5,87.5C 193.538,96.8773 190.038,106.544 187,116.5C 182.934,117.464 178.767,117.797 174.5,117.5C 174.5,119.833 174.5,122.167 174.5,124.5C 176.167,124.5 177.833,124.5 179.5,124.5C 177.833,126.5 176.167,128.5 174.5,130.5C 172.167,132.5 169.833,134.5 167.5,136.5C 167.816,128.248 167.482,120.081 166.5,112C 151.837,111.5 137.17,111.333 122.5,111.5C 126.97,110.514 131.637,110.181 136.5,110.5C 145.839,110.666 155.173,110.5 164.5,110C 166.041,108.629 167.375,107.129 168.5,105.5C 170.943,106.109 172.61,107.609 173.5,110C 176.482,110.498 179.482,110.665 182.5,110.5C 184.691,102.427 187.191,94.4271 190,86.5C 190.5,75.1716 190.667,63.8382 190.5,52.5 Z"/></g>
<g><path style="opacity:1" fill="#fbfbfd" d="M 197.5,87.5 C 207.19,87.1682 216.856,87.5016 226.5,88.5C 226.863,89.1835 227.196,89.8501 227.5,90.5C 228.487,92.4734 229.487,94.4734 230.5,96.5C 224.759,96.6949 220.759,99.3616 218.5,104.5C 213.156,104.334 207.823,104.501 202.5,105C 199.877,111.033 197.544,117.2 195.5,123.5C 190.208,124.495 184.875,124.828 179.5,124.5C 177.833,124.5 176.167,124.5 174.5,124.5C 174.5,122.167 174.5,119.833 174.5,117.5C 178.767,117.797 182.934,117.464 187,116.5C 190.038,106.544 193.538,96.8773 197.5,87.5 Z"/></g>
<g><path style="opacity:1" fill="#5e7cb3" d="M 1051.5,113.5 C 1053.95,98.4497 1060.28,85.4497 1070.5,74.5C 1072.74,73.6109 1074.74,72.2776 1076.5,70.5C 1077.45,71.3256 1078.45,71.4922 1079.5,71C 1079.17,70.6667 1078.83,70.3333 1078.5,70C 1081.97,67.6826 1085.64,65.8493 1089.5,64.5C 1088.82,68.2846 1087.66,71.9513 1086,75.5C 1085.67,74.5 1085.33,73.5 1085,72.5C 1084.01,75.308 1083.17,78.1413 1082.5,81C 1082.83,81.3333 1083.17,81.6667 1083.5,82C 1082.17,82.3333 1080.83,82.6667 1079.5,83C 1079.5,85.6667 1079.5,88.3333 1079.5,91C 1078.5,92.5067 1077.16,93.6733 1075.5,94.5C 1076.42,96.9717 1075.42,98.6384 1072.5,99.5C 1073.53,99.2964 1074.53,99.7964 1075.5,101C 1074.23,101.9 1073.23,103.066 1072.5,104.5C 1071.83,104.167 1071.17,103.833 1070.5,103.5C 1069.96,105.969 1068.96,108.136 1067.5,110C 1067.49,111.583 1067.83,113.249 1068.5,115C 1067.21,117.022 1066.21,119.189 1065.5,121.5C 1064.17,122.167 1062.83,122.833 1061.5,123.5C 1063.1,127.038 1062.43,130.038 1059.5,132.5C 1059.83,133.167 1060.17,133.833 1060.5,134.5C 1059.37,135.262 1058.21,135.929 1057,136.5C 1056.38,137.449 1056.55,138.282 1057.5,139C 1056.89,141.058 1055.89,141.891 1054.5,141.5C 1055.5,142.333 1056.5,143.167 1057.5,144C 1055.94,144.318 1054.77,145.151 1054,146.5C 1050.46,135.718 1049.63,124.718 1051.5,113.5 Z"/></g>
<g><path style="opacity:1" fill="#7852a5" d="M 137.5,66.5 C 137.337,68.8568 137.503,71.1902 138,73.5C 140.664,77.6569 143.497,81.6569 146.5,85.5C 146.666,90.5111 146.499,95.5111 146,100.5C 142.629,103.703 139.462,107.036 136.5,110.5C 131.637,110.181 126.97,110.514 122.5,111.5C 121.883,111.611 121.383,111.944 121,112.5C 120.501,117.155 120.334,121.821 120.5,126.5C 118.427,128.58 116.093,130.246 113.5,131.5C 105.657,130.18 97.6572,130.18 89.5,131.5C 87.3882,135.555 84.0549,137.555 79.5,137.5C 70.5432,135.452 68.0432,130.119 72,121.5C 78.7823,115.612 84.6157,116.445 89.5,124C 97.4931,124.5 105.493,124.666 113.5,124.5C 113.5,122.167 113.5,119.833 113.5,117.5C 109.486,117.666 105.486,117.499 101.5,117C 98.5,114 95.5,111 92.5,108C 90.8659,107.506 89.1992,107.34 87.5,107.5C 88.9599,105.537 90.6266,103.704 92.5,102C 88.9748,101.821 85.6414,101.321 82.5,100.5C 86.5138,100.334 90.5138,100.501 94.5,101C 98.1317,103.63 101.465,106.63 104.5,110C 107.833,110.667 111.167,110.667 114.5,110C 116.577,106.629 119.577,104.796 123.5,104.5C 123.5,99.1667 123.5,93.8333 123.5,88.5C 124.268,89.2625 124.768,90.2625 125,91.5C 127.127,89.8863 128.627,87.8863 129.5,85.5C 130.49,91.6446 130.823,97.9779 130.5,104.5C 133.833,104.5 137.167,104.5 140.5,104.5C 140.666,98.8236 140.499,93.1569 140,87.5C 137,83.5 134,79.5 131,75.5C 130.51,74.2068 130.343,72.8734 130.5,71.5C 132.573,69.4202 134.907,67.7536 137.5,66.5 Z"/></g>
<g><path style="opacity:1" fill="#e2bbe3" d="M 359.5,75.5 C 359.5,75.8333 359.5,76.1667 359.5,76.5C 350.167,76.5 340.833,76.5 331.5,76.5C 331.5,95.5 331.5,114.5 331.5,133.5C 330.503,114.341 330.17,95.0072 330.5,75.5C 340.167,75.5 349.833,75.5 359.5,75.5 Z"/></g>
<g><path style="opacity:1" fill="#5a81c0" d="M 232.5,84.5 C 235.766,91.6329 238.433,98.9662 240.5,106.5C 238.833,109.167 237.167,111.833 235.5,114.5C 229.469,119.049 224.136,118.383 219.5,112.5C 215.217,111.508 210.884,111.174 206.5,111.5C 211.909,111.79 215.909,109.456 218.5,104.5C 220.759,99.3616 224.759,96.6949 230.5,96.5C 229.487,94.4734 228.487,92.4734 227.5,90.5C 229.949,89.06 231.615,87.06 232.5,84.5 Z"/></g>
<g><path style="opacity:1" fill="#647ab4" d="M 1010.5,80.5 C 1023.14,100.996 1027.64,123.33 1024,147.5C 1021.91,175.226 1009.07,196.059 985.5,210C 973.036,215.493 960.036,217.493 946.5,216C 945.263,215.768 944.263,215.268 943.5,214.5C 949.167,214.5 954.833,214.5 960.5,214.5C 960.351,213.448 960.517,212.448 961,211.5C 961.667,212.833 962.333,212.833 963,211.5C 963.163,209.324 963.996,207.491 965.5,206C 965.673,203.74 965.673,201.407 965.5,199C 966.449,198.383 967.282,198.549 968,199.5C 968.5,198.5 969,197.5 969.5,196.5C 963.785,196.392 957.785,195.725 951.5,194.5C 969.943,195.529 983.443,187.862 992,171.5C 1000.04,150.641 1001.54,129.308 996.5,107.5C 998.505,108.254 999.172,109.421 998.5,111C 1000.44,114.824 1001.61,118.658 1002,122.5C 1003.1,121.033 1004.6,120.199 1006.5,120C 1003.99,117.933 1004.15,116.433 1007,115.5C 1007.03,113.82 1007.2,112.32 1007.5,111C 1006.83,110.333 1006.17,109.667 1005.5,109C 1007.81,108.729 1008.97,109.895 1009,112.5C 1010.04,110.285 1010.71,107.952 1011,105.5C 1011.75,104.874 1012.58,104.374 1013.5,104C 1012.69,103.692 1012.03,103.192 1011.5,102.5C 1013.63,99.6617 1014.97,96.495 1015.5,93C 1014.33,92.5814 1013.33,91.9147 1012.5,91C 1012.5,89.6667 1012.5,88.3333 1012.5,87C 1010.27,85.0694 1009.61,82.9027 1010.5,80.5 Z"/></g>
<g><path style="opacity:1" fill="#85409b" d="M 82.5,100.5 C 85.6414,101.321 88.9748,101.821 92.5,102C 90.6266,103.704 88.9599,105.537 87.5,107.5C 85.712,107.215 84.0453,107.548 82.5,108.5C 77.9458,114.978 72.4458,115.978 66,111.5C 62.0846,105.239 62.918,99.7388 68.5,95C 74.8699,93.0215 79.5365,94.8548 82.5,100.5 Z"/></g>
<g><path style="opacity:1" fill="#f5eff6" d="M 71.5,100.5 C 75.9764,100.8 77.3097,102.967 75.5,107C 70.5705,107.427 69.2372,105.26 71.5,100.5 Z"/></g>
<g><path style="opacity:1" fill="#eff2f8" d="M 225.5,104.5 C 230.123,103.408 231.956,105.075 231,109.5C 225.438,111.77 223.605,110.103 225.5,104.5 Z"/></g>
<g><path style="opacity:1" fill="#cfabda" d="M 537.5,55.5 C 537.5,77.1667 537.5,98.8333 537.5,120.5C 514.833,120.5 492.167,120.5 469.5,120.5C 469.5,120.167 469.5,119.833 469.5,119.5C 491.833,119.5 514.167,119.5 536.5,119.5C 536.169,97.9935 536.503,76.6601 537.5,55.5 Z"/></g>
<g><path style="opacity:1" fill="#9c45af" d="M 445.5,55.5 C 445.071,93.5219 445.571,131.522 447,169.5C 447.333,162.833 447.667,156.167 448,149.5C 449.505,147.702 449.672,145.868 448.5,144C 451.612,143.149 451.946,141.983 449.5,140.5C 451.743,139.808 453.41,138.475 454.5,136.5C 455.706,134.516 455.706,132.516 454.5,130.5C 455.867,127.94 457.867,126.106 460.5,125C 459.692,124.692 459.025,124.192 458.5,123.5C 458.846,122.304 459.346,122.304 460,123.5C 460.44,121.924 461.273,120.59 462.5,119.5C 462.354,117.685 462.188,115.685 462,113.5C 463.399,112.773 464.899,112.273 466.5,112C 464.122,111.026 464.456,110.359 467.5,110C 463.982,106.177 463.982,105.343 467.5,107.5C 468.5,90.1795 468.833,72.8461 468.5,55.5C 469.497,76.6601 469.831,97.9935 469.5,119.5C 469.5,119.833 469.5,120.167 469.5,120.5C 478.676,121.309 488.01,121.976 497.5,122.5C 497.194,125.278 496.194,127.778 494.5,130C 494.667,130.833 494.833,131.667 495,132.5C 495.654,131.304 496.154,131.304 496.5,132.5C 495.975,133.192 495.308,133.692 494.5,134C 494.833,134.333 495.167,134.667 495.5,135C 494.167,135.333 492.833,135.667 491.5,136C 492.668,137.406 492.335,138.572 490.5,139.5C 483.345,140.167 476.345,140.833 469.5,141.5C 469.5,165.5 469.5,189.5 469.5,213.5C 461.167,213.5 452.833,213.5 444.5,213.5C 444.168,160.664 444.501,107.997 445.5,55.5 Z"/></g>
<g><path style="opacity:1" fill="#9e3fae" d="M 445.5,55.5 C 453.167,55.5 460.833,55.5 468.5,55.5C 468.833,72.8461 468.5,90.1795 467.5,107.5C 463.982,105.343 463.982,106.177 467.5,110C 464.456,110.359 464.122,111.026 466.5,112C 464.899,112.273 463.399,112.773 462,113.5C 462.188,115.685 462.354,117.685 462.5,119.5C 461.273,120.59 460.44,121.924 460,123.5C 459.346,122.304 458.846,122.304 458.5,123.5C 459.025,124.192 459.692,124.692 460.5,125C 457.867,126.106 455.867,127.94 454.5,130.5C 455.706,132.516 455.706,134.516 454.5,136.5C 453.41,138.475 451.743,139.808 449.5,140.5C 451.946,141.983 451.612,143.149 448.5,144C 449.672,145.868 449.505,147.702 448,149.5C 447.667,156.167 447.333,162.833 447,169.5C 445.571,131.522 445.071,93.5219 445.5,55.5 Z"/></g>
<g><path style="opacity:1" fill="#3f9eb7" d="M 1377.5,82.5 C 1388.08,100.663 1398.42,118.997 1408.5,137.5C 1406.76,137.652 1404.92,137.652 1403,137.5C 1404.15,140.727 1402.99,142.894 1399.5,144C 1400.5,145 1401.5,146 1402.5,147C 1400.72,149.417 1399.39,152.083 1398.5,155C 1399.1,157.692 1400.1,160.192 1401.5,162.5C 1401.46,163.416 1401.12,164.083 1400.5,164.5C 1387.67,144.286 1376,123.286 1365.5,101.5C 1366.68,101.719 1367.68,101.386 1368.5,100.5C 1365.86,97.0882 1366.19,93.9216 1369.5,91C 1369.38,89.7318 1369.05,88.3985 1368.5,87C 1370,83.9886 1370.83,84.4886 1371,88.5C 1371.13,85.9973 1372.13,83.9973 1374,82.5C 1376.12,85.9704 1377.29,85.9704 1377.5,82.5 Z"/></g>
<g><path style="opacity:1" fill="#fbfbfd" d="M 122.5,111.5 C 137.17,111.333 151.837,111.5 166.5,112C 167.482,120.081 167.816,128.248 167.5,136.5C 167.812,143.422 167.479,150.256 166.5,157C 151.837,157.5 137.17,157.667 122.5,157.5C 121.094,157.027 120.427,156.027 120.5,154.5C 120.5,145.167 120.5,135.833 120.5,126.5C 120.334,121.821 120.501,117.155 121,112.5C 121.383,111.944 121.883,111.611 122.5,111.5 Z"/></g>
<g><path style="opacity:1" fill="#fafbfd" d="M 206.5,111.5 C 210.884,111.174 215.217,111.508 219.5,112.5C 224.136,118.383 229.469,119.049 235.5,114.5C 237.55,120.561 238.383,126.894 238,133.5C 231.932,130.151 226.765,131.151 222.5,136.5C 206.514,137.499 190.514,137.833 174.5,137.5C 174.5,135.167 174.5,132.833 174.5,130.5C 183.192,130.831 191.859,130.498 200.5,129.5C 202.705,123.55 204.705,117.55 206.5,111.5 Z"/></g>
<g><path style="opacity:1" fill="#5a77ba" d="M 218.5,104.5 C 215.909,109.456 211.909,111.79 206.5,111.5C 204.705,117.55 202.705,123.55 200.5,129.5C 191.859,130.498 183.192,130.831 174.5,130.5C 176.167,128.5 177.833,126.5 179.5,124.5C 184.875,124.828 190.208,124.495 195.5,123.5C 197.544,117.2 199.877,111.033 202.5,105C 207.823,104.501 213.156,104.334 218.5,104.5 Z"/></g>
<g><path style="opacity:1" fill="#863a98" d="M 54.5,105.5 C 50.8741,116.499 49.2075,127.832 49.5,139.5C 47.5,141.167 45.5,142.833 43.5,144.5C 43.3336,136.16 43.5003,127.827 44,119.5C 44.5348,115.962 45.3681,112.628 46.5,109.5C 46.369,110.239 46.5357,110.906 47,111.5C 49.1057,108.882 51.6057,106.882 54.5,105.5 Z"/></g>
<g><path style="opacity:1" fill="#479fb9" d="M 1337.5,55.5 C 1337.38,102.173 1337.88,148.84 1339,195.5C 1339.18,182.925 1339.68,170.425 1340.5,158C 1339.33,156.594 1339.67,155.428 1341.5,154.5C 1341.37,152.577 1341.04,150.744 1340.5,149C 1343.71,148.375 1344.71,146.709 1343.5,144C 1345.85,139.32 1348.52,134.82 1351.5,130.5C 1350.12,127.555 1351.12,125.722 1354.5,125C 1354.17,124.667 1353.83,124.333 1353.5,124C 1355.96,122.846 1355.96,121.512 1353.5,120C 1354.42,119.626 1355.25,119.126 1356,118.5C 1357.14,124.436 1357.81,130.436 1358,136.5C 1358.78,129.962 1358.61,123.462 1357.5,117C 1357.67,116.5 1357.83,116 1358,115.5C 1358.28,116.416 1358.78,117.082 1359.5,117.5C 1360.49,149.427 1360.83,181.427 1360.5,213.5C 1352.5,213.5 1344.5,213.5 1336.5,213.5C 1336.17,160.664 1336.5,107.997 1337.5,55.5 Z"/></g>
<g><path style="opacity:1" fill="#37a4b7" d="M 1430.5,55.5 C 1430.06,85.8656 1430.56,116.199 1432,146.5C 1432.33,148.167 1432.67,149.833 1433,151.5C 1433.31,150.234 1433.81,149.067 1434.5,148C 1434.17,147.667 1433.83,147.333 1433.5,147C 1434.74,146.544 1435.58,147.044 1436,148.5C 1436.5,147.333 1437.33,146.5 1438.5,146C 1435.83,145.333 1435.83,144.667 1438.5,144C 1437.64,143.311 1436.98,142.478 1436.5,141.5C 1437.6,141.002 1438.6,140.669 1439.5,140.5C 1438.97,139.808 1438.31,139.308 1437.5,139C 1440.27,138.309 1440.93,136.809 1439.5,134.5C 1440.88,132.365 1441.88,130.032 1442.5,127.5C 1442.96,130.893 1443.96,130.893 1445.5,127.5C 1444.05,126.15 1443.38,124.484 1443.5,122.5C 1444.5,122.5 1445.5,122.5 1446.5,122.5C 1446.35,123.552 1446.52,124.552 1447,125.5C 1447.31,124.234 1447.81,123.067 1448.5,122C 1446.48,120.445 1446.15,118.611 1447.5,116.5C 1449.53,117.629 1449.86,117.129 1448.5,115C 1449.07,113.795 1449.74,112.628 1450.5,111.5C 1451.5,92.8452 1451.83,74.1786 1451.5,55.5C 1452.5,107.997 1452.83,160.664 1452.5,213.5C 1443.81,213.831 1435.14,213.498 1426.5,212.5C 1417.81,196.446 1409.14,180.446 1400.5,164.5C 1401.12,164.083 1401.46,163.416 1401.5,162.5C 1400.1,160.192 1399.1,157.692 1398.5,155C 1399.39,152.083 1400.72,149.417 1402.5,147C 1401.5,146 1400.5,145 1399.5,144C 1402.99,142.894 1404.15,140.727 1403,137.5C 1404.92,137.652 1406.76,137.652 1408.5,137.5C 1416.65,151.799 1424.32,166.466 1431.5,181.5C 1431.83,180.667 1432.17,179.833 1432.5,179C 1431.89,171.14 1431.06,163.306 1430,155.5C 1429.17,121.997 1429.34,88.6641 1430.5,55.5 Z"/></g>
<g><path style="opacity:1" fill="#36a0b6" d="M 1430.5,55.5 C 1437.5,55.5 1444.5,55.5 1451.5,55.5C 1451.83,74.1786 1451.5,92.8452 1450.5,111.5C 1449.74,112.628 1449.07,113.795 1448.5,115C 1449.86,117.129 1449.53,117.629 1447.5,116.5C 1446.15,118.611 1446.48,120.445 1448.5,122C 1447.81,123.067 1447.31,124.234 1447,125.5C 1446.52,124.552 1446.35,123.552 1446.5,122.5C 1445.5,122.5 1444.5,122.5 1443.5,122.5C 1443.38,124.484 1444.05,126.15 1445.5,127.5C 1443.96,130.893 1442.96,130.893 1442.5,127.5C 1441.88,130.032 1440.88,132.365 1439.5,134.5C 1440.93,136.809 1440.27,138.309 1437.5,139C 1438.31,139.308 1438.97,139.808 1439.5,140.5C 1438.6,140.669 1437.6,141.002 1436.5,141.5C 1436.98,142.478 1437.64,143.311 1438.5,144C 1435.83,144.667 1435.83,145.333 1438.5,146C 1437.33,146.5 1436.5,147.333 1436,148.5C 1435.58,147.044 1434.74,146.544 1433.5,147C 1433.83,147.333 1434.17,147.667 1434.5,148C 1433.81,149.067 1433.31,150.234 1433,151.5C 1432.67,149.833 1432.33,148.167 1432,146.5C 1430.56,116.199 1430.06,85.8656 1430.5,55.5 Z"/></g>
<g><path style="opacity:1" fill="#4791b5" d="M 1235.5,121.5 C 1253.83,121.5 1272.17,121.5 1290.5,121.5C 1290.5,127.833 1290.5,134.167 1290.5,140.5C 1273.5,140.5 1256.5,140.5 1239.5,140.5C 1239.61,139.883 1239.94,139.383 1240.5,139C 1237.17,138.667 1233.83,138.333 1230.5,138C 1232.25,137.529 1233.91,136.862 1235.5,136C 1231.81,135.086 1232.15,134.419 1236.5,134C 1235.83,133.667 1235.17,133.333 1234.5,133C 1235.56,131.812 1236.9,131.312 1238.5,131.5C 1238.74,129.533 1238.41,127.699 1237.5,126C 1238.5,125.667 1239.5,125.333 1240.5,125C 1238.7,124.683 1238.37,124.016 1239.5,123C 1237.94,122.79 1236.61,122.29 1235.5,121.5 Z"/></g>
<g><path style="opacity:1" fill="#518ec7" d="M 240.5,106.5 C 242.264,110.205 243.431,114.205 244,118.5C 244.5,126.493 244.666,134.493 244.5,142.5C 241.474,145.195 238.474,147.862 235.5,150.5C 229.839,152.51 225.506,150.843 222.5,145.5C 216.537,144.504 210.537,144.171 204.5,144.5C 205.96,142.537 207.627,140.704 209.5,139C 197.659,138.831 185.993,138.331 174.5,137.5C 190.514,137.833 206.514,137.499 222.5,136.5C 226.765,131.151 231.932,130.151 238,133.5C 238.383,126.894 237.55,120.561 235.5,114.5C 237.167,111.833 238.833,109.167 240.5,106.5 Z"/></g>
<g><path style="opacity:1" fill="#f6f3f8" d="M 78.5,124.5 C 82.485,124.629 83.8183,126.463 82.5,130C 76.5456,131.227 75.2123,129.394 78.5,124.5 Z"/></g>
<g><path style="opacity:1" fill="#796ab3" d="M 797.5,76.5 C 798.333,115.998 798.833,155.665 799,195.5C 799.199,187.784 799.699,180.118 800.5,172.5C 799.159,170.166 799.826,168.499 802.5,167.5C 801.129,164.674 802.129,163.174 805.5,163C 802.793,159.65 803.793,157.983 808.5,158C 802.825,157.536 802.492,156.869 807.5,156C 807.499,154.601 807.165,153.101 806.5,151.5C 808.849,150.443 810.849,148.943 812.5,147C 811.5,146 810.5,145 809.5,144C 811.998,142.914 813.998,141.247 815.5,139C 814.5,138.667 813.5,138.333 812.5,138C 814.046,136.56 814.879,134.727 815,132.5C 815.333,132.833 815.667,133.167 816,133.5C 817.316,132.026 818.316,130.359 819,128.5C 819.333,133.5 819.667,138.5 820,143.5C 820.922,121.01 821.756,98.6762 822.5,76.5C 822.5,122.167 822.5,167.833 822.5,213.5C 814.167,213.5 805.833,213.5 797.5,213.5C 797.5,167.833 797.5,122.167 797.5,76.5 Z"/></g>
<g><path style="opacity:1" fill="#6a66b1" d="M 132.5,121.5 C 139.445,119.775 144.278,122.108 147,128.5C 147.667,134.5 147.667,140.5 147,146.5C 141.846,148.825 139.679,147.158 140.5,141.5C 138.5,141.5 136.5,141.5 134.5,141.5C 134.647,146.541 132.481,148.207 128,146.5C 127.333,139.833 127.333,133.167 128,126.5C 129.707,124.963 131.207,123.296 132.5,121.5 Z"/></g>
<g><path style="opacity:1" fill="#f2f1f8" d="M 135.5,127.5 C 139.8,127.815 141.467,130.149 140.5,134.5C 138.167,134.5 135.833,134.5 133.5,134.5C 133.166,131.812 133.832,129.479 135.5,127.5 Z"/></g>
<g><path style="opacity:1" fill="#c3a2d5" d="M 595.5,123.5 C 595.38,133.188 595.713,142.854 596.5,152.5C 595.007,146.908 594.341,141.074 594.5,135C 594.501,130.985 594.835,127.151 595.5,123.5 Z"/></g>
<g><path style="opacity:1" fill="#81a6c8" d="M 1171.5,198.5 C 1171.5,182.167 1171.5,165.833 1171.5,149.5C 1171.5,143.167 1171.5,136.833 1171.5,130.5C 1154.17,130.5 1136.83,130.5 1119.5,130.5C 1119.5,136.833 1119.5,143.167 1119.5,149.5C 1118.51,143.021 1118.18,136.354 1118.5,129.5C 1136.5,129.5 1154.5,129.5 1172.5,129.5C 1172.83,152.673 1172.5,175.673 1171.5,198.5 Z"/></g>
<g><path style="opacity:1" fill="#5385b4" d="M 1171.5,149.5 C 1170.78,149.918 1170.28,150.584 1170,151.5C 1169.59,144.82 1168.92,138.487 1168,132.5C 1165.82,136.078 1164.32,139.578 1163.5,143C 1164.17,143.333 1164.83,143.667 1165.5,144C 1163.37,146.425 1161.87,149.258 1161,152.5C 1160.67,151.167 1160.33,149.833 1160,148.5C 1159.08,151.063 1159.58,153.23 1161.5,155C 1158.33,155.582 1158,156.582 1160.5,158C 1158.17,158.333 1155.83,158.667 1153.5,159C 1154.83,159.667 1155.83,160.667 1156.5,162C 1155.36,162.741 1155.36,163.575 1156.5,164.5C 1155.27,165.59 1154.44,166.924 1154,168.5C 1153.67,168.167 1153.33,167.833 1153,167.5C 1152.83,174.191 1152.33,180.858 1151.5,187.5C 1150.83,174.673 1150.17,162.006 1149.5,149.5C 1139.5,149.5 1129.5,149.5 1119.5,149.5C 1119.5,143.167 1119.5,136.833 1119.5,130.5C 1136.83,130.5 1154.17,130.5 1171.5,130.5C 1171.5,136.833 1171.5,143.167 1171.5,149.5 Z"/></g>
<g><path style="opacity:1" fill="#5189b4" d="M 1171.5,149.5 C 1171.5,165.833 1171.5,182.167 1171.5,198.5C 1160.04,208.435 1146.71,214.101 1131.5,215.5C 1133.22,214.776 1135.05,214.109 1137,213.5C 1137.63,211.414 1137.13,211.081 1135.5,212.5C 1134.5,212.167 1133.83,211.5 1133.5,210.5C 1133.84,206.838 1135.01,206.171 1137,208.5C 1138.02,206.731 1138.19,205.064 1137.5,203.5C 1138.03,202.808 1138.69,202.308 1139.5,202C 1139.17,201.667 1138.83,201.333 1138.5,201C 1142.19,200.086 1141.85,199.419 1137.5,199C 1138.67,198.5 1139.5,197.667 1140,196.5C 1141.84,197.833 1142.34,197.666 1141.5,196C 1142.98,194.426 1144.65,193.093 1146.5,192C 1145.94,191.617 1145.61,191.117 1145.5,190.5C 1146.15,189.188 1147.15,188.188 1148.5,187.5C 1149.5,174.851 1149.83,162.184 1149.5,149.5C 1150.17,162.006 1150.83,174.673 1151.5,187.5C 1152.33,180.858 1152.83,174.191 1153,167.5C 1153.33,167.833 1153.67,168.167 1154,168.5C 1154.44,166.924 1155.27,165.59 1156.5,164.5C 1155.36,163.575 1155.36,162.741 1156.5,162C 1155.83,160.667 1154.83,159.667 1153.5,159C 1155.83,158.667 1158.17,158.333 1160.5,158C 1158,156.582 1158.33,155.582 1161.5,155C 1159.58,153.23 1159.08,151.063 1160,148.5C 1160.33,149.833 1160.67,151.167 1161,152.5C 1161.87,149.258 1163.37,146.425 1165.5,144C 1164.83,143.667 1164.17,143.333 1163.5,143C 1164.32,139.578 1165.82,136.078 1168,132.5C 1168.92,138.487 1169.59,144.82 1170,151.5C 1170.28,150.584 1170.78,149.918 1171.5,149.5 Z"/></g>
<g><path style="opacity:1" fill="#606cb4" d="M 155.5,121.5 C 157.144,121.286 158.644,121.62 160,122.5C 160.667,130.5 160.667,138.5 160,146.5C 158.333,147.833 156.667,147.833 155,146.5C 154.199,138.088 154.366,129.755 155.5,121.5 Z"/></g>
<g><path style="opacity:1" fill="#f1f6fa" d="M 230.5,137.5 C 234.252,138.306 235.252,140.472 233.5,144C 228.148,144.175 227.148,142.009 230.5,137.5 Z"/></g>
<g><path style="opacity:1" fill="#6ba6c3" d="M 1233.5,120.5 C 1252.83,120.5 1272.17,120.5 1291.5,120.5C 1291.5,127.5 1291.5,134.5 1291.5,141.5C 1272.17,141.5 1252.83,141.5 1233.5,141.5C 1235.26,140.539 1237.26,140.205 1239.5,140.5C 1256.5,140.5 1273.5,140.5 1290.5,140.5C 1290.5,134.167 1290.5,127.833 1290.5,121.5C 1272.17,121.5 1253.83,121.5 1235.5,121.5C 1234.51,121.672 1233.84,121.338 1233.5,120.5 Z"/></g>
<g><path style="opacity:1" fill="#7b4fa4" d="M 95.5,138.5 C 99.5138,138.334 103.514,138.501 107.5,139C 105.627,140.704 103.96,142.537 102.5,144.5C 100.473,144.338 98.4727,144.505 96.5,145C 91.6657,148.252 86.6657,151.252 81.5,154C 76.1358,154.171 70.8025,154.671 65.5,155.5C 63.1125,159.86 59.4458,161.86 54.5,161.5C 55.653,167.471 57.653,173.138 60.5,178.5C 59.4154,180.587 57.7488,181.92 55.5,182.5C 48.8756,170.764 44.8756,158.097 43.5,144.5C 45.5,142.833 47.5,141.167 49.5,139.5C 49.5,140.5 49.5,141.5 49.5,142.5C 51.6463,142.122 53.813,141.788 56,141.5C 61.3668,141.088 64.5335,143.422 65.5,148.5C 70.1785,148.666 74.8452,148.499 79.5,148C 84.6959,144.57 90.0292,141.403 95.5,138.5 Z"/></g>
<g><path style="opacity:1" fill="#e7d5ec" d="M 469.5,141.5 C 492.167,141.5 514.833,141.5 537.5,141.5C 537.5,145.167 537.5,148.833 537.5,152.5C 537.5,172.833 537.5,193.167 537.5,213.5C 536.502,190.006 536.169,166.339 536.5,142.5C 514.5,142.5 492.5,142.5 470.5,142.5C 470.831,166.339 470.498,190.006 469.5,213.5C 469.5,189.5 469.5,165.5 469.5,141.5 Z"/></g>
<g><path style="opacity:1" fill="#fbfbfc" d="M 102.5,144.5 C 106.167,144.5 109.833,144.5 113.5,144.5C 113.5,146.833 113.5,149.167 113.5,151.5C 109.486,151.334 105.486,151.501 101.5,152C 94.3725,157.459 87.5392,163.292 81,169.5C 80.5012,173.486 80.3345,177.486 80.5,181.5C 74.4908,181.666 68.4908,181.499 62.5,181C 61.9341,180.005 61.2674,179.172 60.5,178.5C 57.653,173.138 55.653,167.471 54.5,161.5C 59.4458,161.86 63.1125,159.86 65.5,155.5C 70.8025,154.671 76.1358,154.171 81.5,154C 86.6657,151.252 91.6657,148.252 96.5,145C 98.4727,144.505 100.473,144.338 102.5,144.5 Z"/></g>
<g><path style="opacity:1" fill="#fbfcfd" d="M 204.5,144.5 C 210.537,144.171 216.537,144.504 222.5,145.5C 225.506,150.843 229.839,152.51 235.5,150.5C 234.757,161.234 231.424,171.401 225.5,181C 219.167,181.333 212.833,181.667 206.5,182C 204.983,183.685 203.316,185.185 201.5,186.5C 197.315,182.481 192.982,178.647 188.5,175C 180.507,174.5 172.507,174.334 164.5,174.5C 164.5,171.167 164.5,167.833 164.5,164.5C 168.676,164.247 171.676,162.247 173.5,158.5C 178.753,156.956 183.753,157.29 188.5,159.5C 190.962,162.464 193.629,165.297 196.5,168C 199.5,168.333 202.5,168.667 205.5,169C 209.235,174.604 214.235,175.938 220.5,173C 225.383,167.942 225.716,162.609 221.5,157C 214.995,152.917 209.662,154.083 205.5,160.5C 203.235,161.647 200.902,161.814 198.5,161C 196.63,158.96 194.63,157.127 192.5,155.5C 191.71,154.206 190.71,153.039 189.5,152C 184.511,151.501 179.511,151.334 174.5,151.5C 174.5,149.167 174.5,146.833 174.5,144.5C 184.5,144.5 194.5,144.5 204.5,144.5 Z"/></g>
<g><path style="opacity:1" fill="#faf9fc" d="M 54.5,148.5 C 59.1585,148.015 60.4919,149.848 58.5,154C 53.7282,154.81 52.3948,152.977 54.5,148.5 Z"/></g>
<g><path style="opacity:1" fill="#5b7ebe" d="M 174.5,130.5 C 174.5,132.833 174.5,135.167 174.5,137.5C 185.993,138.331 197.659,138.831 209.5,139C 207.627,140.704 205.96,142.537 204.5,144.5C 194.5,144.5 184.5,144.5 174.5,144.5C 174.5,146.833 174.5,149.167 174.5,151.5C 179.511,151.334 184.511,151.501 189.5,152C 190.71,153.039 191.71,154.206 192.5,155.5C 191.5,157.167 190.167,158.5 188.5,159.5C 183.753,157.29 178.753,156.956 173.5,158.5C 171.676,162.247 168.676,164.247 164.5,164.5C 164.5,167.833 164.5,171.167 164.5,174.5C 171.655,175.329 178.989,175.829 186.5,176C 184.627,177.704 182.96,179.537 181.5,181.5C 173.804,181.831 166.138,181.497 158.5,180.5C 157.549,175.23 157.215,169.897 157.5,164.5C 154.167,164.5 150.833,164.5 147.5,164.5C 146.671,171.655 146.171,178.989 146,186.5C 144.296,188.373 142.463,190.04 140.5,191.5C 140.5,182.5 140.5,173.5 140.5,164.5C 141.96,162.537 143.627,160.704 145.5,159C 137.656,158.829 129.989,158.329 122.5,157.5C 137.17,157.667 151.837,157.5 166.5,157C 167.479,150.256 167.812,143.422 167.5,136.5C 169.833,134.5 172.167,132.5 174.5,130.5 Z"/></g>
<g><path style="opacity:1" fill="#5191c9" d="M 188.5,159.5 C 190.167,158.5 191.5,157.167 192.5,155.5C 194.63,157.127 196.63,158.96 198.5,161C 200.902,161.814 203.235,161.647 205.5,160.5C 209.662,154.083 214.995,152.917 221.5,157C 225.716,162.609 225.383,167.942 220.5,173C 214.235,175.938 209.235,174.604 205.5,169C 202.5,168.667 199.5,168.333 196.5,168C 193.629,165.297 190.962,162.464 188.5,159.5 Z"/></g>
<g><path style="opacity:1" fill="#fbfbfd" d="M 114.5,158.5 C 116.348,162.256 119.348,164.256 123.5,164.5C 123.665,167.518 123.498,170.518 123,173.5C 119.31,176.691 115.477,179.691 111.5,182.5C 110.511,186.107 110.177,189.774 110.5,193.5C 108.251,195.934 106.084,198.601 104,201.5C 102.62,209.282 105.787,213.949 113.5,215.5C 121.69,213.802 124.857,208.802 123,200.5C 121.292,198.457 119.292,196.79 117,195.5C 116.503,193.19 116.337,190.857 116.5,188.5C 116.414,187.504 116.748,186.671 117.5,186C 121.951,183.217 126.117,180.05 130,176.5C 130.499,172.514 130.666,168.514 130.5,164.5C 133.833,164.5 137.167,164.5 140.5,164.5C 140.5,173.5 140.5,182.5 140.5,191.5C 140.829,197.537 140.496,203.537 139.5,209.5C 134.695,212.932 133.195,217.599 135,223.5C 136.5,225 138,226.5 139.5,228C 131.55,228.46 123.884,227.293 116.5,224.5C 109.877,222.623 103.544,219.956 97.5,216.5C 96.52,213.914 96.1866,211.247 96.5,208.5C 96.8314,199.808 96.498,191.141 95.5,182.5C 94.5832,181.873 93.5832,181.539 92.5,181.5C 90.5,181.5 88.5,181.5 86.5,181.5C 86.3354,178.482 86.502,175.482 87,172.5C 93.1249,168.044 98.9583,163.211 104.5,158C 108.027,157.192 111.36,157.359 114.5,158.5 Z"/></g>
<g><path style="opacity:1" fill="#616db5" d="M 120.5,154.5 C 120.427,156.027 121.094,157.027 122.5,157.5C 129.989,158.329 137.656,158.829 145.5,159C 143.627,160.704 141.96,162.537 140.5,164.5C 137.167,164.5 133.833,164.5 130.5,164.5C 130.666,168.514 130.499,172.514 130,176.5C 126.117,180.05 121.951,183.217 117.5,186C 116.748,186.671 116.414,187.504 116.5,188.5C 114.5,190.167 112.5,191.833 110.5,193.5C 110.177,189.774 110.511,186.107 111.5,182.5C 115.477,179.691 119.31,176.691 123,173.5C 123.498,170.518 123.665,167.518 123.5,164.5C 119.348,164.256 116.348,162.256 114.5,158.5C 116.754,157.585 118.754,156.252 120.5,154.5 Z"/></g>
<g><path style="opacity:1" fill="#f2f7fb" d="M 212.5,161.5 C 217.241,161.161 218.574,163.161 216.5,167.5C 211.827,168.128 210.494,166.128 212.5,161.5 Z"/></g>
<g><path style="opacity:1" fill="#26b9b9" d="M 1624.5,143.5 C 1638.17,166.327 1651.51,189.494 1664.5,213C 1655.17,213.667 1645.83,213.667 1636.5,213C 1628,197.156 1619.66,181.323 1611.5,165.5C 1614.05,165.561 1615.55,166.894 1616,169.5C 1617.79,168.088 1619.29,166.421 1620.5,164.5C 1619.17,163.38 1618.67,162.047 1619,160.5C 1620.72,159.448 1621.72,160.114 1622,162.5C 1622.31,161.234 1622.81,160.067 1623.5,159C 1622.37,157.984 1622.7,157.317 1624.5,157C 1623.57,156.612 1622.91,155.945 1622.5,155C 1622.89,153.989 1623.56,153.489 1624.5,153.5C 1623.65,151.939 1623.99,150.439 1625.5,149C 1623.57,147.319 1623.24,145.486 1624.5,143.5 Z"/></g>
<g><path style="opacity:1" fill="#fdfefe" d="M 147.5,164.5 C 150.833,164.5 154.167,164.5 157.5,164.5C 157.215,169.897 157.549,175.23 158.5,180.5C 166.138,181.497 173.804,181.831 181.5,181.5C 183.199,181.34 184.866,181.506 186.5,182C 189.682,185.349 193.015,188.516 196.5,191.5C 194.851,193.65 193.018,195.65 191,197.5C 190.667,203.833 190.333,210.167 190,216.5C 176.809,223.84 162.643,227.84 147.5,228.5C 153.08,225.03 154.913,220.03 153,213.5C 151.649,211.981 150.149,210.648 148.5,209.5C 147.501,194.515 147.167,179.515 147.5,164.5 Z"/></g>
<g><path style="opacity:1" fill="#8956b1" d="M 620.5,125.5 C 620.46,134.528 620.96,143.528 622,152.5C 624.52,169.573 633.02,182.573 647.5,191.5C 647.721,192.735 648.388,193.735 649.5,194.5C 653.14,195.552 656.14,196.886 658.5,198.5C 657.198,200.201 655.531,201.368 653.5,202C 654.711,203.113 654.711,204.28 653.5,205.5C 654.025,206.192 654.692,206.692 655.5,207C 653.241,208.715 651.074,210.548 649,212.5C 647.951,211.483 646.784,211.316 645.5,212C 648.097,212.779 648.097,213.279 645.5,213.5C 633.14,210.397 622.64,204.064 614,194.5C 607.152,185.444 602.318,175.444 599.5,164.5C 600.376,164.369 601.043,164.702 601.5,165.5C 602.667,168.5 603.833,171.5 605,174.5C 606.183,175.731 607.349,175.731 608.5,174.5C 607.624,173.749 606.624,173.249 605.5,173C 610.789,171.935 612.455,169.268 610.5,165C 613.167,164.333 613.167,163.667 610.5,163C 612.167,162.667 613.833,162.333 615.5,162C 614.692,161.692 614.025,161.192 613.5,160.5C 615.748,159.44 616.748,157.44 616.5,154.5C 620.311,154.404 620.311,153.738 616.5,152.5C 617.711,151.28 617.711,150.113 616.5,149C 617.624,148.161 618.291,146.994 618.5,145.5C 619.052,138.673 619.719,132.006 620.5,125.5 Z"/></g>
<g><path style="opacity:1" fill="#dfb8e2" d="M 330.5,153.5 C 341.167,153.5 351.833,153.5 362.5,153.5C 352.347,154.494 342.014,154.828 331.5,154.5C 331.83,174.34 331.497,194.007 330.5,213.5C 330.5,193.5 330.5,173.5 330.5,153.5 Z"/></g>
<g><path style="opacity:1" fill="#6874b3" d="M 915.5,158.5 C 917.868,164.061 920.368,169.728 923,175.5C 929.562,186.2 939.062,192.534 951.5,194.5C 957.785,195.725 963.785,196.392 969.5,196.5C 969,197.5 968.5,198.5 968,199.5C 967.282,198.549 966.449,198.383 965.5,199C 965.673,201.407 965.673,203.74 965.5,206C 963.996,207.491 963.163,209.324 963,211.5C 962.333,212.833 961.667,212.833 961,211.5C 960.517,212.448 960.351,213.448 960.5,214.5C 954.833,214.5 949.167,214.5 943.5,214.5C 925.884,212.185 912.218,203.519 902.5,188.5C 904.475,188.836 906.475,188.336 908.5,187C 907.5,186.667 906.5,186.333 905.5,186C 906.849,185.228 907.682,184.061 908,182.5C 908.333,183.167 908.667,183.833 909,184.5C 909.645,183.354 910.478,182.354 911.5,181.5C 910.626,179.295 911.292,177.462 913.5,176C 912.833,175.667 912.167,175.333 911.5,175C 913.402,173.606 913.735,171.773 912.5,169.5C 913.5,169.5 914.5,169.5 915.5,169.5C 916.105,165.982 916.105,162.315 915.5,158.5 Z"/></g>
<g><path style="opacity:1" fill="#6d5dac" d="M 120.5,126.5 C 120.5,135.833 120.5,145.167 120.5,154.5C 118.754,156.252 116.754,157.585 114.5,158.5C 111.36,157.359 108.027,157.192 104.5,158C 98.9583,163.211 93.1249,168.044 87,172.5C 86.502,175.482 86.3354,178.482 86.5,181.5C 88.5,181.5 90.5,181.5 92.5,181.5C 90.5389,183.963 88.3722,186.297 86,188.5C 77.735,187.172 69.5683,187.172 61.5,188.5C 59.1667,190.167 57.1667,192.167 55.5,194.5C 62.4179,195.348 70.0846,195.848 78.5,196C 76.6266,197.704 74.9599,199.537 73.5,201.5C 65.5,201.5 57.5,201.5 49.5,201.5C 49.5,209.5 49.5,217.5 49.5,225.5C 47.5,227.167 45.5,228.833 43.5,230.5C 43.3335,219.162 43.5001,207.828 44,196.5C 48.0688,191.94 51.9021,187.274 55.5,182.5C 57.7488,181.92 59.4154,180.587 60.5,178.5C 61.2674,179.172 61.9341,180.005 62.5,181C 68.4908,181.499 74.4908,181.666 80.5,181.5C 80.3345,177.486 80.5012,173.486 81,169.5C 87.5392,163.292 94.3725,157.459 101.5,152C 105.486,151.501 109.486,151.334 113.5,151.5C 113.5,149.167 113.5,146.833 113.5,144.5C 109.833,144.5 106.167,144.5 102.5,144.5C 103.96,142.537 105.627,140.704 107.5,139C 103.514,138.501 99.5138,138.334 95.5,138.5C 101.31,137.51 107.31,137.177 113.5,137.5C 113.5,135.5 113.5,133.5 113.5,131.5C 116.093,130.246 118.427,128.58 120.5,126.5 Z"/></g>
<g><path style="opacity:1" fill="#479bce" d="M 244.5,142.5 C 243.245,156.02 239.578,168.853 233.5,181C 235.134,181.494 236.801,181.66 238.5,181.5C 237.04,183.463 235.373,185.296 233.5,187C 225.323,187.171 217.323,187.671 209.5,188.5C 207.167,190.167 205.167,192.167 203.5,194.5C 209.75,195.349 216.75,195.849 224.5,196C 222.627,197.704 220.96,199.537 219.5,201.5C 212.167,201.5 204.833,201.5 197.5,201.5C 197.5,208.833 197.5,216.167 197.5,223.5C 195.537,224.96 193.704,226.627 192,228.5C 191.798,226.744 191.298,225.078 190.5,223.5C 189.893,223.624 189.56,223.957 189.5,224.5C 171.088,233.867 151.754,237.2 131.5,234.5C 137.473,235.697 142.473,234.197 146.5,230C 144.068,228.913 144.402,228.413 147.5,228.5C 162.643,227.84 176.809,223.84 190,216.5C 190.333,210.167 190.667,203.833 191,197.5C 193.018,195.65 194.851,193.65 196.5,191.5C 193.015,188.516 189.682,185.349 186.5,182C 184.866,181.506 183.199,181.34 181.5,181.5C 182.96,179.537 184.627,177.704 186.5,176C 178.989,175.829 171.655,175.329 164.5,174.5C 172.507,174.334 180.507,174.5 188.5,175C 192.982,178.647 197.315,182.481 201.5,186.5C 203.316,185.185 204.983,183.685 206.5,182C 212.833,181.667 219.167,181.333 225.5,181C 231.424,171.401 234.757,161.234 235.5,150.5C 238.474,147.862 241.474,145.195 244.5,142.5 Z"/></g>
<g><path style="opacity:1" fill="#4a93b6" d="M 1233.5,141.5 C 1233.5,158.5 1233.5,175.5 1233.5,192.5C 1244.42,193.045 1255.42,193.878 1266.5,195C 1264.63,196.085 1262.96,197.418 1261.5,199C 1262.5,199.333 1263.5,199.667 1264.5,200C 1262.18,201.32 1260.18,202.986 1258.5,205C 1260.93,206.087 1260.6,206.587 1257.5,206.5C 1257.33,211.041 1258,211.374 1259.5,207.5C 1260.51,207.938 1260.51,208.604 1259.5,209.5C 1261.77,210.314 1264.1,210.814 1266.5,211C 1263.83,211.333 1261.17,211.667 1258.5,212C 1257.94,212.383 1257.61,212.883 1257.5,213.5C 1247.83,213.5 1238.17,213.5 1228.5,213.5C 1224.77,212.804 1220.94,212.138 1217,211.5C 1216.67,211.833 1216.33,212.167 1216,212.5C 1215.33,210.833 1215.33,209.167 1216,207.5C 1216.48,208.448 1216.65,209.448 1216.5,210.5C 1217.5,210.5 1218.5,210.5 1219.5,210.5C 1219.5,209.167 1219.5,207.833 1219.5,206.5C 1215.19,205.934 1214.86,205.268 1218.5,204.5C 1219.99,202.959 1221.32,201.125 1222.5,199C 1221.95,197.602 1221.62,196.268 1221.5,195C 1222.74,194.544 1223.58,195.044 1224,196.5C 1225.29,195.146 1225.46,193.812 1224.5,192.5C 1227.03,191.483 1227.03,190.316 1224.5,189C 1226.3,188.683 1226.63,188.016 1225.5,187C 1226.19,185.933 1226.69,184.766 1227,183.5C 1227.25,184.624 1227.75,185.624 1228.5,186.5C 1228.83,186.333 1229.17,186.167 1229.5,186C 1228.47,184.493 1228.63,182.993 1230,181.5C 1230.33,185.167 1230.67,188.833 1231,192.5C 1231.98,175.351 1232.82,158.351 1233.5,141.5 Z"/></g>
<g><path style="opacity:1" fill="#fdfdfe" d="M 61.5,188.5 C 69.1739,188.334 76.8406,188.5 84.5,189C 82.8333,190.667 81.1667,192.333 79.5,194C 71.5069,194.5 63.5069,194.666 55.5,194.5C 57.1667,192.167 59.1667,190.167 61.5,188.5 Z"/></g>
<g><path style="opacity:1" fill="#5f79bc" d="M 116.5,188.5 C 116.337,190.857 116.503,193.19 117,195.5C 119.292,196.79 121.292,198.457 123,200.5C 124.857,208.802 121.69,213.802 113.5,215.5C 105.787,213.949 102.62,209.282 104,201.5C 106.084,198.601 108.251,195.934 110.5,193.5C 112.5,191.833 114.5,190.167 116.5,188.5 Z"/></g>
<g><path style="opacity:1" fill="#fdfefe" d="M 209.5,188.5 C 217.174,188.334 224.841,188.5 232.5,189C 230.833,190.667 229.167,192.333 227.5,194C 219.507,194.5 211.507,194.666 203.5,194.5C 205.167,192.167 207.167,190.167 209.5,188.5 Z"/></g>
<g><path style="opacity:1" fill="#3fabd7" d="M 238.5,181.5 C 240.467,181.261 242.301,181.594 244,182.5C 244.667,195.167 244.667,207.833 244,220.5C 239.167,225.333 234.333,230.167 229.5,235C 217.167,235.667 204.833,235.667 192.5,235C 192,234.5 191.5,234 191,233.5C 190.819,230.305 190.319,227.305 189.5,224.5C 189.56,223.957 189.893,223.624 190.5,223.5C 191.298,225.078 191.798,226.744 192,228.5C 193.704,226.627 195.537,224.96 197.5,223.5C 197.5,225.167 197.5,226.833 197.5,228.5C 206.5,228.5 215.5,228.5 224.5,228.5C 224.5,219.5 224.5,210.5 224.5,201.5C 222.833,201.5 221.167,201.5 219.5,201.5C 220.96,199.537 222.627,197.704 224.5,196C 216.75,195.849 209.75,195.349 203.5,194.5C 211.507,194.666 219.507,194.5 227.5,194C 229.167,192.333 230.833,190.667 232.5,189C 224.841,188.5 217.174,188.334 209.5,188.5C 217.323,187.671 225.323,187.171 233.5,187C 235.373,185.296 237.04,183.463 238.5,181.5 Z"/></g>
<g><path style="opacity:1" fill="#5887b5" d="M 1091.5,183.5 C 1103.87,192.851 1117.87,196.351 1133.5,194C 1137.43,192.523 1141.43,191.356 1145.5,190.5C 1145.61,191.117 1145.94,191.617 1146.5,192C 1144.65,193.093 1142.98,194.426 1141.5,196C 1142.34,197.666 1141.84,197.833 1140,196.5C 1139.5,197.667 1138.67,198.5 1137.5,199C 1141.85,199.419 1142.19,200.086 1138.5,201C 1138.83,201.333 1139.17,201.667 1139.5,202C 1138.69,202.308 1138.03,202.808 1137.5,203.5C 1138.19,205.064 1138.02,206.731 1137,208.5C 1135.01,206.171 1133.84,206.838 1133.5,210.5C 1133.83,211.5 1134.5,212.167 1135.5,212.5C 1137.13,211.081 1137.63,211.414 1137,213.5C 1135.05,214.109 1133.22,214.776 1131.5,215.5C 1117.44,217.798 1103.77,215.964 1090.5,210C 1086.93,208.058 1083.6,205.892 1080.5,203.5C 1081.28,201.924 1082.45,200.591 1084,199.5C 1084.86,197.251 1084.36,195.418 1082.5,194C 1083.77,193.691 1084.93,193.191 1086,192.5C 1087.84,189.481 1089.67,186.481 1091.5,183.5 Z"/></g>
<g><path style="opacity:1" fill="#fdfdfe" d="M 88.5,194.5 C 89.492,201.982 89.8254,209.648 89.5,217.5C 87.8729,219.63 86.0396,221.63 84,223.5C 83.5357,222.906 83.369,222.239 83.5,221.5C 83.3337,214.159 83.5003,206.826 84,199.5C 85.7073,197.963 87.2073,196.296 88.5,194.5 Z"/></g>
<g><path style="opacity:1" fill="#686eb5" d="M 92.5,181.5 C 93.5832,181.539 94.5832,181.873 95.5,182.5C 96.498,191.141 96.8314,199.808 96.5,208.5C 94.5,210.167 92.5,211.833 90.5,213.5C 90.83,206.8 90.4967,200.134 89.5,193.5C 88.8933,193.624 88.56,193.957 88.5,194.5C 87.2073,196.296 85.7073,197.963 84,199.5C 83.5003,206.826 83.3337,214.159 83.5,221.5C 81.5372,222.96 79.7038,224.627 78,226.5C 77.8294,217.99 77.3294,209.657 76.5,201.5C 75.5,201.5 74.5,201.5 73.5,201.5C 74.9599,199.537 76.6266,197.704 78.5,196C 70.0846,195.848 62.4179,195.348 55.5,194.5C 63.5069,194.666 71.5069,194.5 79.5,194C 81.1667,192.333 82.8333,190.667 84.5,189C 76.8406,188.5 69.1739,188.334 61.5,188.5C 69.5683,187.172 77.735,187.172 86,188.5C 88.3722,186.297 90.5389,183.963 92.5,181.5 Z"/></g>
<g><path style="opacity:1" fill="#f6fbfd" d="M 237.5,193.5 C 238.656,201.323 238.823,209.323 238,217.5C 236,219.5 234,221.5 232,223.5C 231.333,215.5 231.333,207.5 232,199.5C 234.04,197.63 235.873,195.63 237.5,193.5 Z"/></g>
<g><path style="opacity:1" fill="#4496b6" d="M 1233.5,192.5 C 1256.83,192.5 1280.17,192.5 1303.5,192.5C 1303.5,199.5 1303.5,206.5 1303.5,213.5C 1288.17,213.5 1272.83,213.5 1257.5,213.5C 1257.61,212.883 1257.94,212.383 1258.5,212C 1261.17,211.667 1263.83,211.333 1266.5,211C 1264.1,210.814 1261.77,210.314 1259.5,209.5C 1260.51,208.604 1260.51,207.938 1259.5,207.5C 1258,211.374 1257.33,211.041 1257.5,206.5C 1260.6,206.587 1260.93,206.087 1258.5,205C 1260.18,202.986 1262.18,201.32 1264.5,200C 1263.5,199.667 1262.5,199.333 1261.5,199C 1262.96,197.418 1264.63,196.085 1266.5,195C 1255.42,193.878 1244.42,193.045 1233.5,192.5 Z"/></g>
<g><path style="opacity:1" fill="#d8d6ea" d="M 73.5,201.5 C 74.5,201.5 75.5,201.5 76.5,201.5C 76.5,201.833 76.5,202.167 76.5,202.5C 67.8333,202.5 59.1667,202.5 50.5,202.5C 50.5,211.167 50.5,219.833 50.5,228.5C 50.1667,228.5 49.8333,228.5 49.5,228.5C 49.5,227.5 49.5,226.5 49.5,225.5C 49.5,217.5 49.5,209.5 49.5,201.5C 57.5,201.5 65.5,201.5 73.5,201.5 Z"/></g>
<g><path style="opacity:1" fill="#fefffe" d="M 76.5,202.5 C 76.5,211.167 76.5,219.833 76.5,228.5C 67.8333,228.5 59.1667,228.5 50.5,228.5C 50.5,219.833 50.5,211.167 50.5,202.5C 59.1667,202.5 67.8333,202.5 76.5,202.5 Z"/></g>
<g><path style="opacity:1" fill="#f1f3f9" d="M 112.5,201.5 C 116.473,202.075 117.473,204.242 115.5,208C 110.148,208.175 109.148,206.009 112.5,201.5 Z"/></g>
<g><path style="opacity:1" fill="#fbfdfe" d="M 219.5,201.5 C 221.167,201.5 222.833,201.5 224.5,201.5C 224.5,210.5 224.5,219.5 224.5,228.5C 215.5,228.5 206.5,228.5 197.5,228.5C 197.5,226.833 197.5,225.167 197.5,223.5C 197.5,216.167 197.5,208.833 197.5,201.5C 204.833,201.5 212.167,201.5 219.5,201.5 Z"/></g>
<g><path style="opacity:1" fill="#6179bb" d="M 76.5,201.5 C 77.3294,209.657 77.8294,217.99 78,226.5C 79.7038,224.627 81.5372,222.96 83.5,221.5C 83.369,222.239 83.5357,222.906 84,223.5C 86.0396,221.63 87.8729,219.63 89.5,217.5C 90.4345,216.432 90.7678,215.099 90.5,213.5C 92.5,211.833 94.5,210.167 96.5,208.5C 96.1866,211.247 96.52,213.914 97.5,216.5C 103.544,219.956 109.877,222.623 116.5,224.5C 115.712,227.621 113.712,229.288 110.5,229.5C 104.954,227.729 99.6207,225.395 94.5,222.5C 90.0149,226.485 85.6816,230.651 81.5,235C 77.5138,235.499 73.5138,235.666 69.5,235.5C 70.9599,233.537 72.6266,231.704 74.5,230C 65.9899,229.829 57.6566,229.329 49.5,228.5C 49.8333,228.5 50.1667,228.5 50.5,228.5C 59.1667,228.5 67.8333,228.5 76.5,228.5C 76.5,219.833 76.5,211.167 76.5,202.5C 76.5,202.167 76.5,201.833 76.5,201.5 Z"/></g>
<g><path style="opacity:1" fill="#aeb5d9" d="M 88.5,194.5 C 88.56,193.957 88.8933,193.624 89.5,193.5C 90.4967,200.134 90.83,206.8 90.5,213.5C 90.7678,215.099 90.4345,216.432 89.5,217.5C 89.8254,209.648 89.492,201.982 88.5,194.5 Z"/></g>
<g><path style="opacity:1" fill="#d4e6ee" d="M 1303.5,192.5 C 1304.49,199.648 1304.82,206.981 1304.5,214.5C 1272.33,214.832 1240.33,214.498 1208.5,213.5C 1215.17,213.5 1221.83,213.5 1228.5,213.5C 1238.17,213.5 1247.83,213.5 1257.5,213.5C 1272.83,213.5 1288.17,213.5 1303.5,213.5C 1303.5,206.5 1303.5,199.5 1303.5,192.5 Z"/></g>
<g><path style="opacity:1" fill="#528cc6" d="M 147.5,164.5 C 147.167,179.515 147.501,194.515 148.5,209.5C 150.149,210.648 151.649,211.981 153,213.5C 154.913,220.03 153.08,225.03 147.5,228.5C 144.402,228.413 144.068,228.913 146.5,230C 142.473,234.197 137.473,235.697 131.5,234.5C 124.179,233.707 117.179,232.04 110.5,229.5C 113.712,229.288 115.712,227.621 116.5,224.5C 123.884,227.293 131.55,228.46 139.5,228C 138,226.5 136.5,225 135,223.5C 133.195,217.599 134.695,212.932 139.5,209.5C 140.496,203.537 140.829,197.537 140.5,191.5C 142.463,190.04 144.296,188.373 146,186.5C 146.171,178.989 146.671,171.655 147.5,164.5 Z"/></g>
<g><path style="opacity:1" fill="#f0f5fa" d="M 141.5,215.5 C 145.509,215.014 147.342,216.68 147,220.5C 141.42,222.752 139.587,221.085 141.5,215.5 Z"/></g>
<g><path style="opacity:1" fill="#606bb4" d="M 49.5,225.5 C 49.5,226.5 49.5,227.5 49.5,228.5C 57.6566,229.329 65.9899,229.829 74.5,230C 72.6266,231.704 70.9599,233.537 69.5,235.5C 61.16,235.666 52.8267,235.5 44.5,235C 43.6198,233.644 43.2865,232.144 43.5,230.5C 45.5,228.833 47.5,227.167 49.5,225.5 Z"/></g>
</svg>
