<?xml version="1.0" encoding="UTF-8"?>
<!DOCTYPE svg PUBLIC "-//W3C//DTD SVG 1.1//EN" "http://www.w3.org/Graphics/SVG/1.1/DTD/svg11.dtd">
<svg xmlns="http://www.w3.org/2000/svg" version="1.1" width="500px" height="500px" style="shape-rendering:geometricPrecision; text-rendering:geometricPrecision; image-rendering:optimizeQuality; fill-rule:evenodd; clip-rule:evenodd" xmlns:xlink="http://www.w3.org/1999/xlink">
<g><path style="opacity:1" fill="#fdfbfc" d="M -0.5,-0.5 C 12.1667,-0.5 24.8333,-0.5 37.5,-0.5C 25.1667,12.5 12.5,25.1667 -0.5,37.5C -0.5,24.8333 -0.5,12.1667 -0.5,-0.5 Z"/></g>
<g><path style="opacity:1" fill="#90298e" d="M 37.5,-0.5 C 67.1667,-0.5 96.8333,-0.5 126.5,-0.5C 129.06,0.220313 130.893,1.88698 132,4.5C 132.333,12.5 132.667,20.5 133,28.5C 136.324,26.4207 139.824,24.7541 143.5,23.5C 135.513,33.1662 126.513,42.4995 116.5,51.5C 116.666,43.8261 116.5,36.1594 116,28.5C 110.667,33.8333 105.333,39.1667 100,44.5C 99.5003,52.8267 99.3336,61.16 99.5,69.5C 94.202,74.2969 89.0354,79.2969 84,84.5C 83.8307,72.6595 83.3307,60.9928 82.5,49.5C 60.5,49.5 38.5,49.5 16.5,49.5C 16.5,71.8333 16.5,94.1667 16.5,116.5C 24.5,116.5 32.5,116.5 40.5,116.5C 35.5,121.833 30.5,127.167 25.5,132.5C 18.4921,132.666 11.4921,132.5 4.5,132C 1.88698,130.893 0.220313,129.06 -0.5,126.5C -0.5,96.8333 -0.5,67.1667 -0.5,37.5C 12.5,25.1667 25.1667,12.5 37.5,-0.5 Z"/></g>
<g><path style="opacity:1" fill="#fdfbfd" d="M 126.5,-0.5 C 161.833,-0.5 197.167,-0.5 232.5,-0.5C 232.5,-0.166667 232.5,0.166667 232.5,0.5C 220.167,0.728199 208.167,2.39487 196.5,5.5C 177.933,9.13289 160.266,15.1329 143.5,23.5C 139.824,24.7541 136.324,26.4207 133,28.5C 132.667,20.5 132.333,12.5 132,4.5C 130.893,1.88698 129.06,0.220313 126.5,-0.5 Z"/></g>
<g><path style="opacity:1" fill="#fdfcfd" d="M 262.5,-0.5 C 309.833,-0.5 357.167,-0.5 404.5,-0.5C 393.728,9.77062 383.062,20.2706 372.5,31C 368.239,29.9488 364.239,28.1155 360.5,25.5C 352.833,22.1667 345.167,18.8333 337.5,15.5C 326.615,11.7605 315.615,8.42713 304.5,5.5C 290.462,2.83093 276.462,0.830934 262.5,-0.5 Z"/></g>
<g><path style="opacity:1" fill="#7258a9" d="M 404.5,-0.5 C 409.833,-0.5 415.167,-0.5 420.5,-0.5C 402.833,17.8333 384.833,35.8333 366.5,53.5C 366.756,51.2075 366.423,49.0408 365.5,47C 359.28,44.0591 353.28,40.8924 347.5,37.5C 352.44,34.2297 356.773,30.2297 360.5,25.5C 364.239,28.1155 368.239,29.9488 372.5,31C 383.062,20.2706 393.728,9.77062 404.5,-0.5 Z"/></g>
<g><path style="opacity:1" fill="#6c5aaa" d="M 420.5,-0.5 C 431.167,-0.5 441.833,-0.5 452.5,-0.5C 447.703,4.79798 442.703,9.96464 437.5,15C 428.657,15.1704 419.99,15.6704 411.5,16.5C 406.167,21.5 400.833,26.5 395.5,31.5C 394.957,31.56 394.624,31.8933 394.5,32.5C 402.472,33.4977 410.472,33.831 418.5,33.5C 413.5,38.8333 408.5,44.1667 403.5,49.5C 396.833,49.5 390.167,49.5 383.5,49.5C 382.509,56.3134 382.175,63.3134 382.5,70.5C 377.167,75.5 371.833,80.5 366.5,85.5C 366.5,74.8333 366.5,64.1667 366.5,53.5C 384.833,35.8333 402.833,17.8333 420.5,-0.5 Z"/></g>
<g><path style="opacity:1" fill="#6962af" d="M 452.5,-0.5 C 464.833,-0.5 477.167,-0.5 489.5,-0.5C 473.167,16.1667 456.833,32.8333 440.5,49.5C 428.167,49.5 415.833,49.5 403.5,49.5C 408.5,44.1667 413.5,38.8333 418.5,33.5C 430.678,33.8284 442.678,33.4951 454.5,32.5C 459.965,27.5364 465.298,22.3697 470.5,17C 450.836,16.5 431.169,16.3334 411.5,16.5C 419.99,15.6704 428.657,15.1704 437.5,15C 442.703,9.96464 447.703,4.79798 452.5,-0.5 Z"/></g>
<g><path style="opacity:1" fill="#6466b1" d="M 489.5,-0.5 C 490.833,-0.5 492.167,-0.5 493.5,-0.5C 495.792,0.789873 497.792,2.45654 499.5,4.5C 499.5,13.1667 499.5,21.8333 499.5,30.5C 494.167,35.5 488.833,40.5 483.5,45.5C 483.822,39.642 483.489,33.9753 482.5,28.5C 476.833,33.5 471.5,38.8333 466.5,44.5C 465.509,50.979 465.176,57.6457 465.5,64.5C 460.167,69.5 454.833,74.5 449.5,79.5C 449.5,69.5 449.5,59.5 449.5,49.5C 446.5,49.5 443.5,49.5 440.5,49.5C 456.833,32.8333 473.167,16.1667 489.5,-0.5 Z"/></g>
<g><path style="opacity:1" fill="#f3f3f9" d="M 493.5,-0.5 C 495.5,-0.5 497.5,-0.5 499.5,-0.5C 499.5,1.16667 499.5,2.83333 499.5,4.5C 497.792,2.45654 495.792,0.789873 493.5,-0.5 Z"/></g>
<g><path style="opacity:1" fill="#873797" d="M 232.5,0.5 C 235.518,0.335374 238.518,0.50204 241.5,1C 235.964,6.36864 230.63,11.8686 225.5,17.5C 208.538,19.3765 191.872,22.7099 175.5,27.5C 182.5,20.1667 189.5,12.8333 196.5,5.5C 208.167,2.39487 220.167,0.728199 232.5,0.5 Z"/></g>
<g><path style="opacity:1" fill="#81419c" d="M 232.5,0.5 C 232.5,0.166667 232.5,-0.166667 232.5,-0.5C 242.5,-0.5 252.5,-0.5 262.5,-0.5C 276.462,0.830934 290.462,2.83093 304.5,5.5C 301.102,10.4063 297.102,14.9063 292.5,19C 291.552,19.4828 290.552,19.6495 289.5,19.5C 268.231,16.4931 246.898,15.8265 225.5,17.5C 230.63,11.8686 235.964,6.36864 241.5,1C 238.518,0.50204 235.518,0.335374 232.5,0.5 Z"/></g>
<g><path style="opacity:1" fill="#7b4aa1" d="M 304.5,5.5 C 315.615,8.42713 326.615,11.7605 337.5,15.5C 333.5,19.8333 329.5,24.1667 325.5,28.5C 313.456,25.1557 301.456,22.1557 289.5,19.5C 290.552,19.6495 291.552,19.4828 292.5,19C 297.102,14.9063 301.102,10.4063 304.5,5.5 Z"/></g>
<g><path style="opacity:1" fill="#8b3093" d="M 196.5,5.5 C 189.5,12.8333 182.5,20.1667 175.5,27.5C 161.2,33.1473 147.2,39.6473 133.5,47C 132.518,54.747 132.185,62.5803 132.5,70.5C 127.167,75.5 121.833,80.5 116.5,85.5C 116.5,74.1667 116.5,62.8333 116.5,51.5C 126.513,42.4995 135.513,33.1662 143.5,23.5C 160.266,15.1329 177.933,9.13289 196.5,5.5 Z"/></g>
<g><path style="opacity:1" fill="#aa5ba9" d="M 44.5,16.5 C 64.3373,15.1721 84.3373,15.1721 104.5,16.5C 104.376,17.1067 104.043,17.44 103.5,17.5C 84.0071,16.5029 64.3404,16.1696 44.5,16.5 Z"/></g>
<g><path style="opacity:1" fill="#fefdfe" d="M 44.5,16.5 C 64.3404,16.1696 84.0071,16.5029 103.5,17.5C 98.3687,22.1302 93.3687,26.9635 88.5,32C 68.5,32.6667 48.5,32.6667 28.5,32C 33.702,26.6303 39.0353,21.4636 44.5,16.5 Z"/></g>
<g><path style="opacity:1" fill="#fdfdfe" d="M 289.5,19.5 C 301.456,22.1557 313.456,25.1557 325.5,28.5C 332.757,31.4801 340.091,34.4801 347.5,37.5C 353.28,40.8924 359.28,44.0591 365.5,47C 366.423,49.0408 366.756,51.2075 366.5,53.5C 366.5,64.1667 366.5,74.8333 366.5,85.5C 366.667,98.1711 366.5,110.838 366,123.5C 362.857,132.427 360.024,141.427 357.5,150.5C 352.735,163.29 348.235,176.29 344,189.5C 342.246,191.25 340.079,191.917 337.5,191.5C 332.5,191.5 327.5,191.5 322.5,191.5C 320.756,184.869 316.756,180.035 310.5,177C 307.28,175.648 303.947,174.814 300.5,174.5C 299.345,167.679 299.179,160.679 300,153.5C 307.943,148.556 315.609,143.223 323,137.5C 324.267,129.938 324.934,122.271 325,114.5C 335.048,109.916 340.548,102.083 341.5,91C 340.911,87.2959 339.911,83.7959 338.5,80.5C 334.024,71.2257 326.524,66.559 316,66.5C 303.593,67.2385 295.593,73.5718 292,85.5C 289.775,98.7237 294.609,108.057 306.5,113.5C 307.611,118.416 307.778,123.416 307,128.5C 300.92,132.79 294.753,136.957 288.5,141C 285.945,142.555 284.112,144.722 283,147.5C 282.5,156.494 282.334,165.494 282.5,174.5C 274.167,174.5 265.833,174.5 257.5,174.5C 257.5,170.833 257.5,167.167 257.5,163.5C 257.828,151.988 257.495,140.654 256.5,129.5C 251.563,121.291 245.896,113.624 239.5,106.5C 237.842,103.206 235.676,100.206 233,97.5C 232.333,92.1667 232.333,86.8333 233,81.5C 240.809,78.1929 245.976,72.5262 248.5,64.5C 250.835,45.9827 242.669,35.316 224,32.5C 207.029,35.459 199.029,45.459 200,62.5C 202.065,71.5664 207.398,77.8997 216,81.5C 216.499,85.8206 216.666,90.1539 216.5,94.5C 216.335,97.5184 216.502,100.518 217,103.5C 220.332,108.327 223.832,112.993 227.5,117.5C 231.783,123.623 236.283,129.623 241,135.5C 241.498,138.482 241.665,141.482 241.5,144.5C 241.5,154.5 241.5,164.5 241.5,174.5C 233.167,174.5 224.833,174.5 216.5,174.5C 216.829,159.657 216.496,144.99 215.5,130.5C 210.559,123.89 204.892,117.89 198.5,112.5C 193.167,106.5 187.5,100.833 181.5,95.5C 177.669,90.8362 173.336,86.6695 168.5,83C 156.505,82.5001 144.505,82.3335 132.5,82.5C 132.5,78.5 132.5,74.5 132.5,70.5C 132.185,62.5803 132.518,54.747 133.5,47C 147.2,39.6473 161.2,33.1473 175.5,27.5C 191.872,22.7099 208.538,19.3765 225.5,17.5C 246.898,15.8265 268.231,16.4931 289.5,19.5 Z"/></g>
<g><path style="opacity:1" fill="#7650a5" d="M 337.5,15.5 C 345.167,18.8333 352.833,22.1667 360.5,25.5C 356.773,30.2297 352.44,34.2297 347.5,37.5C 340.091,34.4801 332.757,31.4801 325.5,28.5C 329.5,24.1667 333.5,19.8333 337.5,15.5 Z"/></g>
<g><path style="opacity:1" fill="#fdfdfe" d="M 411.5,16.5 C 431.169,16.3334 450.836,16.5 470.5,17C 465.298,22.3697 459.965,27.5364 454.5,32.5C 434.66,32.8304 414.993,32.4971 395.5,31.5C 400.833,26.5 406.167,21.5 411.5,16.5 Z"/></g>
<g><path style="opacity:1" fill="#fdfcfd" d="M 116.5,51.5 C 116.5,62.8333 116.5,74.1667 116.5,85.5C 111.559,92.11 105.892,98.11 99.5,103.5C 99.5,92.1667 99.5,80.8333 99.5,69.5C 99.3336,61.16 99.5003,52.8267 100,44.5C 105.333,39.1667 110.667,33.8333 116,28.5C 116.5,36.1594 116.666,43.8261 116.5,51.5 Z"/></g>
<g><path style="opacity:1" fill="#fdfdfe" d="M 482.5,28.5 C 482.667,48.5028 482.5,68.5028 482,88.5C 476.963,93.3687 472.13,98.3687 467.5,103.5C 466.503,84.0071 466.17,64.3404 466.5,44.5C 471.5,38.8333 476.833,33.5 482.5,28.5 Z"/></g>
<g><path style="opacity:1" fill="#8e86c1" d="M 395.5,31.5 C 414.993,32.4971 434.66,32.8304 454.5,32.5C 442.678,33.4951 430.678,33.8284 418.5,33.5C 410.472,33.831 402.472,33.4977 394.5,32.5C 394.624,31.8933 394.957,31.56 395.5,31.5 Z"/></g>
<g><path style="opacity:1" fill="#80429d" d="M 248.5,64.5 C 247.761,64.369 247.094,64.5357 246.5,65C 236.632,75.0355 226.632,84.8688 216.5,94.5C 216.666,90.1539 216.499,85.8206 216,81.5C 207.398,77.8997 202.065,71.5664 200,62.5C 199.029,45.459 207.029,35.459 224,32.5C 242.669,35.316 250.835,45.9827 248.5,64.5 Z"/></g>
<g><path style="opacity:1" fill="#fefefe" d="M 82.5,49.5 C 82.5,71.8333 82.5,94.1667 82.5,116.5C 68.5,116.5 54.5,116.5 40.5,116.5C 54.5,116.5 68.5,116.5 82.5,116.5C 82.5,94.1667 82.5,71.8333 82.5,49.5 Z"/></g>
<g><path style="opacity:1" fill="#faf8fb" d="M 221.5,49.5 C 231.371,49.5705 234.538,54.2372 231,63.5C 225.58,67.8089 220.914,67.1423 217,61.5C 215.474,56.2389 216.974,52.2389 221.5,49.5 Z"/></g>
<g><path style="opacity:1" fill="#fefffe" d="M 383.5,49.5 C 390.167,49.5 396.833,49.5 403.5,49.5C 415.833,49.5 428.167,49.5 440.5,49.5C 443.5,49.5 446.5,49.5 449.5,49.5C 449.5,59.5 449.5,69.5 449.5,79.5C 449.5,90.8333 449.5,102.167 449.5,113.5C 449.5,114.167 449.5,114.833 449.5,115.5C 427.5,115.5 405.5,115.5 383.5,115.5C 383.5,93.5 383.5,71.5 383.5,49.5 Z"/></g>
<g><path style="opacity:1" fill="#5e6db5" d="M 499.5,30.5 C 499.5,41.8333 499.5,53.1667 499.5,64.5C 494.202,69.2969 489.035,74.2969 484,79.5C 483.5,68.1716 483.333,56.8382 483.5,45.5C 488.833,40.5 494.167,35.5 499.5,30.5 Z"/></g>
<g><path style="opacity:1" fill="#7b49a0" d="M 248.5,64.5 C 245.976,72.5262 240.809,78.1929 233,81.5C 232.333,86.8333 232.333,92.1667 233,97.5C 235.676,100.206 237.842,103.206 239.5,106.5C 236.105,110.898 232.105,114.564 227.5,117.5C 223.832,112.993 220.332,108.327 217,103.5C 216.502,100.518 216.335,97.5184 216.5,94.5C 226.632,84.8688 236.632,75.0355 246.5,65C 247.094,64.5357 247.761,64.369 248.5,64.5 Z"/></g>
<g><path style="opacity:1" fill="#5e75b9" d="M 482.5,28.5 C 483.489,33.9753 483.822,39.642 483.5,45.5C 483.333,56.8382 483.5,68.1716 484,79.5C 489.035,74.2969 494.202,69.2969 499.5,64.5C 499.5,74.1667 499.5,83.8333 499.5,93.5C 489.596,104.907 479.096,115.907 468,126.5C 467.805,127.819 467.972,129.153 468.5,130.5C 464.5,134.167 460.5,137.833 456.5,141.5C 454.719,138.777 453.052,135.943 451.5,133C 444.842,132.5 438.175,132.334 431.5,132.5C 436.5,127.167 441.5,121.833 446.5,116.5C 447.791,116.737 448.791,116.404 449.5,115.5C 449.5,114.833 449.5,114.167 449.5,113.5C 454.833,108.5 460.167,103.5 465.5,98.5C 465.201,100.604 465.534,102.604 466.5,104.5C 467.107,104.376 467.44,104.043 467.5,103.5C 472.13,98.3687 476.963,93.3687 482,88.5C 482.5,68.5028 482.667,48.5028 482.5,28.5 Z"/></g>
<g><path style="opacity:1" fill="#8790c6" d="M 466.5,44.5 C 466.17,64.3404 466.503,84.0071 467.5,103.5C 467.44,104.043 467.107,104.376 466.5,104.5C 465.534,102.604 465.201,100.604 465.5,98.5C 465.5,87.1667 465.5,75.8333 465.5,64.5C 465.176,57.6457 465.509,50.979 466.5,44.5 Z"/></g>
<g><path style="opacity:1" fill="#7254a7" d="M 338.5,80.5 C 334.6,85.9076 330.1,90.9076 325,95.5C 324.536,94.9056 324.369,94.2389 324.5,93.5C 324.201,84.6922 319.867,81.5256 311.5,84C 306.021,89.3062 306.355,94.3062 312.5,99C 314.473,99.4955 316.473,99.6621 318.5,99.5C 319.239,99.369 319.906,99.5357 320.5,100C 315.965,104.703 311.298,109.203 306.5,113.5C 294.609,108.057 289.775,98.7237 292,85.5C 295.593,73.5718 303.593,67.2385 316,66.5C 326.524,66.559 334.024,71.2257 338.5,80.5 Z"/></g>
<g><path style="opacity:1" fill="#883595" d="M 132.5,70.5 C 132.5,74.5 132.5,78.5 132.5,82.5C 141.991,83.33 151.658,83.83 161.5,84C 156.297,89.0354 151.297,94.202 146.5,99.5C 140.158,99.3338 133.825,99.5005 127.5,100C 116.804,111.03 105.804,121.697 94.5,132C 86.5069,132.5 78.5069,132.666 70.5,132.5C 79.8333,122.5 89.5,112.833 99.5,103.5C 105.892,98.11 111.559,92.11 116.5,85.5C 121.833,80.5 127.167,75.5 132.5,70.5 Z"/></g>
<g><path style="opacity:1" fill="#6d5cab" d="M 338.5,80.5 C 339.911,83.7959 340.911,87.2959 341.5,91C 340.548,102.083 335.048,109.916 325,114.5C 324.934,122.271 324.267,129.938 323,137.5C 315.609,143.223 307.943,148.556 300,153.5C 299.179,160.679 299.345,167.679 300.5,174.5C 296.433,180.075 291.766,185.241 286.5,190C 267.836,190.5 249.17,190.667 230.5,190.5C 239.167,181.167 248.167,172.167 257.5,163.5C 257.5,167.167 257.5,170.833 257.5,174.5C 265.833,174.5 274.167,174.5 282.5,174.5C 282.334,165.494 282.5,156.494 283,147.5C 284.112,144.722 285.945,142.555 288.5,141C 294.753,136.957 300.92,132.79 307,128.5C 307.778,123.416 307.611,118.416 306.5,113.5C 311.298,109.203 315.965,104.703 320.5,100C 319.906,99.5357 319.239,99.369 318.5,99.5C 321.167,98.1667 323.167,96.1667 324.5,93.5C 324.369,94.2389 324.536,94.9056 325,95.5C 330.1,90.9076 334.6,85.9076 338.5,80.5 Z"/></g>
<g><path style="opacity:1" fill="#843f9b" d="M 132.5,82.5 C 144.505,82.3335 156.505,82.5001 168.5,83C 173.336,86.6695 177.669,90.8362 181.5,95.5C 178.167,99.5 174.5,103.167 170.5,106.5C 168.037,104.539 165.703,102.372 163.5,100C 157.843,99.5006 152.176,99.3339 146.5,99.5C 151.297,94.202 156.297,89.0354 161.5,84C 151.658,83.83 141.991,83.33 132.5,82.5 Z"/></g>
<g><path style="opacity:1" fill="#f8f7fb" d="M 324.5,93.5 C 323.167,96.1667 321.167,98.1667 318.5,99.5C 316.473,99.6621 314.473,99.4955 312.5,99C 306.355,94.3062 306.021,89.3062 311.5,84C 319.867,81.5256 324.201,84.6922 324.5,93.5 Z"/></g>
<g><path style="opacity:1" fill="#5e6db5" d="M 465.5,64.5 C 465.5,75.8333 465.5,87.1667 465.5,98.5C 460.167,103.5 454.833,108.5 449.5,113.5C 449.5,102.167 449.5,90.8333 449.5,79.5C 454.833,74.5 460.167,69.5 465.5,64.5 Z"/></g>
<g><path style="opacity:1" fill="#fefefe" d="M 499.5,93.5 C 499.5,138.833 499.5,184.167 499.5,229.5C 499.167,229.5 498.833,229.5 498.5,229.5C 497.216,212.73 494.216,196.396 489.5,180.5C 487.132,170.724 483.799,161.39 479.5,152.5C 476.868,144.57 473.202,137.237 468.5,130.5C 467.972,129.153 467.805,127.819 468,126.5C 479.096,115.907 489.596,104.907 499.5,93.5 Z"/></g>
<g><path style="opacity:1" fill="#fefdfe" d="M 146.5,99.5 C 152.176,99.3339 157.843,99.5006 163.5,100C 165.703,102.372 168.037,104.539 170.5,106.5C 175.833,112.5 181.5,118.167 187.5,123.5C 191.13,127.631 194.963,131.631 199,135.5C 199.499,141.491 199.666,147.491 199.5,153.5C 199.5,160.5 199.5,167.5 199.5,174.5C 189.542,175.229 182.042,179.895 177,188.5C 176.517,189.448 176.351,190.448 176.5,191.5C 171.5,191.5 166.5,191.5 161.5,191.5C 158.482,191.665 155.482,191.498 152.5,191C 147.298,185.63 141.965,180.464 136.5,175.5C 134,172.168 131,169.334 127.5,167C 121.843,166.501 116.176,166.334 110.5,166.5C 106.167,166.5 101.833,166.5 97.5,166.5C 94.7623,157.602 88.7623,152.102 79.5,150C 58.5126,149.321 48.6793,159.488 50,180.5C 55.0369,194.755 64.8703,200.755 79.5,198.5C 88.2168,196.802 94.2168,191.802 97.5,183.5C 105.479,182.335 113.479,182.168 121.5,183C 122.705,184.376 124.038,185.542 125.5,186.5C 131.833,193.5 138.5,200.167 145.5,206.5C 154.986,207.494 164.652,207.827 174.5,207.5C 174.5,213.167 174.5,218.833 174.5,224.5C 159.167,224.5 143.833,224.5 128.5,224.5C 123.786,224.827 119.12,224.493 114.5,223.5C 106.825,209.884 95.4917,205.384 80.5,210C 65.9547,218.843 62.4547,231.009 70,246.5C 76.9592,256.096 86.1258,259.429 97.5,256.5C 105.526,254.48 111.193,249.646 114.5,242C 134.497,241.5 154.497,241.333 174.5,241.5C 174.5,242.833 174.5,244.167 174.5,245.5C 174.5,249.5 174.5,253.5 174.5,257.5C 159.657,257.171 144.99,257.504 130.5,258.5C 126.827,260 123.494,262 120.5,264.5C 110.391,270.058 100.391,275.891 90.5,282C 79.1716,282.5 67.8382,282.667 56.5,282.5C 53.5316,276.198 48.8649,271.532 42.5,268.5C 33.7749,265.129 25.6082,266.129 18,271.5C 16.8011,268.274 16.3011,264.941 16.5,261.5C 16.2285,249.462 16.5618,237.462 17.5,225.5C 19.626,205.197 24.2927,185.531 31.5,166.5C 35.7772,154.838 41.1106,143.672 47.5,133C 55.1594,132.5 62.8261,132.334 70.5,132.5C 78.5069,132.666 86.5069,132.5 94.5,132C 105.804,121.697 116.804,111.03 127.5,100C 133.825,99.5005 140.158,99.3338 146.5,99.5 Z"/></g>
<g><path style="opacity:1" fill="#7d419c" d="M 181.5,95.5 C 187.5,100.833 193.167,106.5 198.5,112.5C 195.167,116.5 191.5,120.167 187.5,123.5C 181.5,118.167 175.833,112.5 170.5,106.5C 174.5,103.167 178.167,99.5 181.5,95.5 Z"/></g>
<g><path style="opacity:1" fill="#6664b0" d="M 382.5,70.5 C 382.5,85.8333 382.5,101.167 382.5,116.5C 385.833,116.5 389.167,116.5 392.5,116.5C 381.166,128.843 369.5,140.177 357.5,150.5C 360.024,141.427 362.857,132.427 366,123.5C 366.5,110.838 366.667,98.1711 366.5,85.5C 371.833,80.5 377.167,75.5 382.5,70.5 Z"/></g>
<g><path style="opacity:1" fill="#7650a5" d="M 239.5,106.5 C 245.896,113.624 251.563,121.291 256.5,129.5C 251.833,134.833 246.833,139.833 241.5,144.5C 241.665,141.482 241.498,138.482 241,135.5C 236.283,129.623 231.783,123.623 227.5,117.5C 232.105,114.564 236.105,110.898 239.5,106.5 Z"/></g>
<g><path style="opacity:1" fill="#7848a0" d="M 198.5,112.5 C 204.892,117.89 210.559,123.89 215.5,130.5C 215.664,133.187 215.497,135.854 215,138.5C 209.965,143.703 204.798,148.703 199.5,153.5C 199.666,147.491 199.499,141.491 199,135.5C 194.963,131.631 191.13,127.631 187.5,123.5C 191.5,120.167 195.167,116.5 198.5,112.5 Z"/></g>
<g><path style="opacity:1" fill="#d8d9eb" d="M 383.5,49.5 C 383.5,71.5 383.5,93.5 383.5,115.5C 405.5,115.5 427.5,115.5 449.5,115.5C 448.791,116.404 447.791,116.737 446.5,116.5C 428.5,116.5 410.5,116.5 392.5,116.5C 389.167,116.5 385.833,116.5 382.5,116.5C 382.5,101.167 382.5,85.8333 382.5,70.5C 382.175,63.3134 382.509,56.3134 383.5,49.5 Z"/></g>
<g><path style="opacity:1" fill="#8c3093" d="M 82.5,49.5 C 83.3307,60.9928 83.8307,72.6595 84,84.5C 89.0354,79.2969 94.202,74.2969 99.5,69.5C 99.5,80.8333 99.5,92.1667 99.5,103.5C 89.5,112.833 79.8333,122.5 70.5,132.5C 62.8261,132.334 55.1594,132.5 47.5,133C 41.1106,143.672 35.7772,154.838 31.5,166.5C 23.2203,173.443 15.2203,180.776 7.5,188.5C 12.031,169.075 19.031,150.575 28.5,133C 27.552,132.517 26.552,132.351 25.5,132.5C 30.5,127.167 35.5,121.833 40.5,116.5C 54.5,116.5 68.5,116.5 82.5,116.5C 82.5,94.1667 82.5,71.8333 82.5,49.5 Z"/></g>
<g><path style="opacity:1" fill="#fdfbfd" d="M -0.5,126.5 C 0.220313,129.06 1.88698,130.893 4.5,132C 11.4921,132.5 18.4921,132.666 25.5,132.5C 26.552,132.351 27.552,132.517 28.5,133C 19.031,150.575 12.031,169.075 7.5,188.5C 3.33466,202.493 1.00132,216.826 0.5,231.5C 0.166667,231.5 -0.166667,231.5 -0.5,231.5C -0.5,196.5 -0.5,161.5 -0.5,126.5 Z"/></g>
<g><path style="opacity:1" fill="#fdfdfe" d="M 431.5,132.5 C 438.175,132.334 444.842,132.5 451.5,133C 453.052,135.943 454.719,138.777 456.5,141.5C 459.297,146.928 461.964,152.428 464.5,158C 450.718,156.057 440.718,161.223 434.5,173.5C 421.085,174.035 407.752,174.868 394.5,176C 392.959,177.579 391.792,179.413 391,181.5C 386.333,195.5 381.667,209.5 377,223.5C 375.989,224.337 374.822,224.67 373.5,224.5C 361.833,224.5 350.167,224.5 338.5,224.5C 333.833,224.5 329.167,224.5 324.5,224.5C 324.5,218.833 324.5,213.167 324.5,207.5C 333.839,207.666 343.173,207.5 352.5,207C 353.931,206.535 355.097,205.701 356,204.5C 364.172,180.65 372.339,156.817 380.5,133C 397.497,132.5 414.497,132.333 431.5,132.5 Z"/></g>
<g><path style="opacity:1" fill="#5480bf" d="M 479.5,152.5 C 483.799,161.39 487.132,170.724 489.5,180.5C 489.649,181.552 489.483,182.552 489,183.5C 481.905,190.089 475.405,197.089 469.5,204.5C 456.082,210.395 445.082,207.395 436.5,195.5C 440.833,191.5 445.167,187.5 449.5,183.5C 451.476,190.488 455.809,192.655 462.5,190C 468.592,182.965 467.258,177.798 458.5,174.5C 465.5,167.167 472.5,159.833 479.5,152.5 Z"/></g>
<g><path style="opacity:1" fill="#843c9a" d="M 110.5,166.5 C 100.167,177.167 89.8333,187.833 79.5,198.5C 64.8703,200.755 55.0369,194.755 50,180.5C 48.6793,159.488 58.5126,149.321 79.5,150C 88.7623,152.102 94.7623,157.602 97.5,166.5C 101.833,166.5 106.167,166.5 110.5,166.5 Z"/></g>
<g><path style="opacity:1" fill="#606cb4" d="M 392.5,116.5 C 410.5,116.5 428.5,116.5 446.5,116.5C 441.5,121.833 436.5,127.167 431.5,132.5C 414.497,132.333 397.497,132.5 380.5,133C 372.339,156.817 364.172,180.65 356,204.5C 355.097,205.701 353.931,206.535 352.5,207C 343.173,207.5 333.839,207.666 324.5,207.5C 324.5,213.167 324.5,218.833 324.5,224.5C 329.167,224.5 333.833,224.5 338.5,224.5C 328.833,234.833 318.833,244.833 308.5,254.5C 308.5,243.167 308.5,231.833 308.5,220.5C 318.5,211.167 328.167,201.5 337.5,191.5C 340.079,191.917 342.246,191.25 344,189.5C 348.235,176.29 352.735,163.29 357.5,150.5C 369.5,140.177 381.166,128.843 392.5,116.5 Z"/></g>
<g><path style="opacity:1" fill="#fdfcfd" d="M 70.5,166.5 C 82.1327,166.267 85.1327,171.1 79.5,181C 69.9514,184.126 65.7848,180.626 67,170.5C 68.3756,169.295 69.5423,167.962 70.5,166.5 Z"/></g>
<g><path style="opacity:1" fill="#7e419c" d="M 110.5,166.5 C 116.176,166.334 121.843,166.501 127.5,167C 131,169.334 134,172.168 136.5,175.5C 132.5,178.833 128.833,182.5 125.5,186.5C 124.038,185.542 122.705,184.376 121.5,183C 113.479,182.168 105.479,182.335 97.5,183.5C 94.2168,191.802 88.2168,196.802 79.5,198.5C 89.8333,187.833 100.167,177.167 110.5,166.5 Z"/></g>
<g><path style="opacity:1" fill="#5a79bb" d="M 468.5,130.5 C 473.202,137.237 476.868,144.57 479.5,152.5C 472.5,159.833 465.5,167.167 458.5,174.5C 452.833,174.833 449.833,177.833 449.5,183.5C 445.167,187.5 440.833,191.5 436.5,195.5C 435.972,194.279 435.305,193.113 434.5,192C 424.506,191.5 414.506,191.334 404.5,191.5C 399.976,206.574 395.142,221.574 390,236.5C 389.07,238.552 387.57,240.052 385.5,241C 365.169,241.5 344.836,241.667 324.5,241.5C 335.659,240.669 346.993,240.169 358.5,240C 363.703,234.965 368.703,229.798 373.5,224.5C 374.822,224.67 375.989,224.337 377,223.5C 381.667,209.5 386.333,195.5 391,181.5C 391.792,179.413 392.959,177.579 394.5,176C 407.752,174.868 421.085,174.035 434.5,173.5C 440.718,161.223 450.718,156.057 464.5,158C 461.964,152.428 459.297,146.928 456.5,141.5C 460.5,137.833 464.5,134.167 468.5,130.5 Z"/></g>
<g><path style="opacity:1" fill="#f7f9fc" d="M 458.5,174.5 C 467.258,177.798 468.592,182.965 462.5,190C 455.809,192.655 451.476,190.488 449.5,183.5C 449.833,177.833 452.833,174.833 458.5,174.5 Z"/></g>
<g><path style="opacity:1" fill="#7948a0" d="M 136.5,175.5 C 141.965,180.464 147.298,185.63 152.5,191C 155.482,191.498 158.482,191.665 161.5,191.5C 156.776,197.227 151.442,202.227 145.5,206.5C 138.5,200.167 131.833,193.5 125.5,186.5C 128.833,182.5 132.5,178.833 136.5,175.5 Z"/></g>
<g><path style="opacity:1" fill="#686ab3" d="M 300.5,174.5 C 303.947,174.814 307.28,175.648 310.5,177C 316.756,180.035 320.756,184.869 322.5,191.5C 327.5,191.5 332.5,191.5 337.5,191.5C 328.167,201.5 318.5,211.167 308.5,220.5C 308.825,212.648 308.492,204.982 307.5,197.5C 306.746,194.909 305.079,193.076 302.5,192C 267.502,191.5 232.502,191.333 197.5,191.5C 208.321,190.505 219.321,190.172 230.5,190.5C 249.17,190.667 267.836,190.5 286.5,190C 291.766,185.241 296.433,180.075 300.5,174.5 Z"/></g>
<g><path style="opacity:1" fill="#fefefe" d="M 197.5,191.5 C 232.502,191.333 267.502,191.5 302.5,192C 305.079,193.076 306.746,194.909 307.5,197.5C 307.987,233.253 307.487,268.92 306,304.5C 305.097,305.701 303.931,306.535 302.5,307C 267.502,307.5 232.502,307.667 197.5,307.5C 194.909,306.746 193.076,305.079 192,302.5C 191.5,267.502 191.333,232.502 191.5,197.5C 192.5,194.5 194.5,192.5 197.5,191.5 Z"/></g>
<g><path style="opacity:1" fill="#fdfefe" d="M 436.5,195.5 C 445.082,207.395 456.082,210.395 469.5,204.5C 472.394,203.118 474.894,201.118 477,198.5C 480.814,214.319 482.314,230.319 481.5,246.5C 468.251,238.477 456.418,240.144 446,251.5C 444.441,253.217 443.608,255.217 443.5,257.5C 403.833,257.5 364.167,257.5 324.5,257.5C 324.5,252.167 324.5,246.833 324.5,241.5C 344.836,241.667 365.169,241.5 385.5,241C 387.57,240.052 389.07,238.552 390,236.5C 395.142,221.574 399.976,206.574 404.5,191.5C 414.506,191.334 424.506,191.5 434.5,192C 435.305,193.113 435.972,194.279 436.5,195.5 Z"/></g>
<g><path style="opacity:1" fill="#7353a6" d="M 256.5,129.5 C 257.495,140.654 257.828,151.988 257.5,163.5C 248.167,172.167 239.167,181.167 230.5,190.5C 219.321,190.172 208.321,190.505 197.5,191.5C 194.5,192.5 192.5,194.5 191.5,197.5C 190.505,208.321 190.172,219.321 190.5,230.5C 185.167,235.5 179.833,240.5 174.5,245.5C 174.5,244.167 174.5,242.833 174.5,241.5C 154.497,241.333 134.497,241.5 114.5,242C 111.193,249.646 105.526,254.48 97.5,256.5C 107.833,245.833 118.167,235.167 128.5,224.5C 143.833,224.5 159.167,224.5 174.5,224.5C 174.5,218.833 174.5,213.167 174.5,207.5C 164.652,207.827 154.986,207.494 145.5,206.5C 151.442,202.227 156.776,197.227 161.5,191.5C 166.5,191.5 171.5,191.5 176.5,191.5C 176.351,190.448 176.517,189.448 177,188.5C 182.042,179.895 189.542,175.229 199.5,174.5C 199.5,167.5 199.5,160.5 199.5,153.5C 204.798,148.703 209.965,143.703 215,138.5C 215.497,135.854 215.664,133.187 215.5,130.5C 216.496,144.99 216.829,159.657 216.5,174.5C 224.833,174.5 233.167,174.5 241.5,174.5C 241.5,164.5 241.5,154.5 241.5,144.5C 246.833,139.833 251.833,134.833 256.5,129.5 Z"/></g>
<g><path style="opacity:1" fill="#873796" d="M 31.5,166.5 C 24.2927,185.531 19.626,205.197 17.5,225.5C 11.8686,230.63 6.36864,235.964 1,241.5C 0.501655,238.183 0.334989,234.85 0.5,231.5C 1.00132,216.826 3.33466,202.493 7.5,188.5C 15.2203,180.776 23.2203,173.443 31.5,166.5 Z"/></g>
<g><path style="opacity:1" fill="#7a48a0" d="M 128.5,224.5 C 118.167,235.167 107.833,245.833 97.5,256.5C 86.1258,259.429 76.9592,256.096 70,246.5C 62.4547,231.009 65.9547,218.843 80.5,210C 95.4917,205.384 106.825,209.884 114.5,223.5C 119.12,224.493 123.786,224.827 128.5,224.5 Z"/></g>
<g><path style="opacity:1" fill="#6a5fad" d="M 251.5,225.5 C 247.773,229.233 243.773,232.566 239.5,235.5C 230.521,230.491 225.521,233.158 224.5,243.5C 224.539,245.952 225.206,247.952 226.5,249.5C 220.87,255.631 215.036,261.631 209,267.5C 208.5,257.506 208.334,247.506 208.5,237.5C 210.031,227.288 215.698,220.455 225.5,217C 236.077,214.476 244.744,217.309 251.5,225.5 Z"/></g>
<g><path style="opacity:1" fill="#4f8cc6" d="M 489.5,180.5 C 494.216,196.396 497.216,212.73 498.5,229.5C 498.666,234.179 498.499,238.845 498,243.5C 490.298,251.369 482.465,259.036 474.5,266.5C 473.161,258.83 468.828,256.33 461.5,259C 456.021,264.306 456.355,269.306 462.5,274C 463.793,274.49 465.127,274.657 466.5,274.5C 462.5,278.833 458.5,283.167 454.5,287.5C 448.68,285.178 444.68,281.011 442.5,275C 427.837,274.5 413.17,274.333 398.5,274.5C 403.297,269.202 408.297,264.035 413.5,259C 400.171,258.5 386.837,258.333 373.5,258.5C 362.167,258.5 350.833,258.5 339.5,258.5C 334.305,258.821 329.305,258.487 324.5,257.5C 364.167,257.5 403.833,257.5 443.5,257.5C 443.608,255.217 444.441,253.217 446,251.5C 456.418,240.144 468.251,238.477 481.5,246.5C 482.314,230.319 480.814,214.319 477,198.5C 474.894,201.118 472.394,203.118 469.5,204.5C 475.405,197.089 481.905,190.089 489,183.5C 489.483,182.552 489.649,181.552 489.5,180.5 Z"/></g>
<g><path style="opacity:1" fill="#6368b2" d="M 290.5,222.5 C 290.666,228.176 290.499,233.843 290,239.5C 284.965,244.703 279.798,249.703 274.5,254.5C 274.333,243.495 274.5,232.495 275,221.5C 278.013,216.465 282.18,215.298 287.5,218C 289.141,219.129 290.141,220.629 290.5,222.5 Z"/></g>
<g><path style="opacity:1" fill="#f9f6fa" d="M 87.5,224.5 C 95.8788,223.715 99.7121,227.381 99,235.5C 93.6667,243.5 88.3333,243.5 83,235.5C 82.3333,233.833 82.3333,232.167 83,230.5C 84.332,228.34 85.832,226.34 87.5,224.5 Z"/></g>
<g><path style="opacity:1" fill="#5a73b8" d="M 338.5,224.5 C 350.167,224.5 361.833,224.5 373.5,224.5C 368.703,229.798 363.703,234.965 358.5,240C 346.993,240.169 335.659,240.669 324.5,241.5C 324.5,246.833 324.5,252.167 324.5,257.5C 329.305,258.487 334.305,258.821 339.5,258.5C 334.5,263.833 329.5,269.167 324.5,274.5C 319.202,279.297 314.035,284.297 309,289.5C 308.5,277.838 308.333,266.171 308.5,254.5C 318.833,244.833 328.833,234.833 338.5,224.5 Z"/></g>
<g><path style="opacity:1" fill="#833e9a" d="M 17.5,225.5 C 16.5618,237.462 16.2285,249.462 16.5,261.5C 11.5354,265.963 6.70209,270.63 2,275.5C 1.72158,274.584 1.22158,273.918 0.5,273.5C 0.814971,269.629 0.481638,265.962 -0.5,262.5C -0.5,252.167 -0.5,241.833 -0.5,231.5C -0.166667,231.5 0.166667,231.5 0.5,231.5C 0.334989,234.85 0.501655,238.183 1,241.5C 6.36864,235.964 11.8686,230.63 17.5,225.5 Z"/></g>
<g><path style="opacity:1" fill="#6e5bab" d="M 190.5,230.5 C 190.5,241.167 190.5,251.833 190.5,262.5C 185.167,267.5 179.833,272.5 174.5,277.5C 174.5,276.5 174.5,275.5 174.5,274.5C 165.167,274.5 155.833,274.5 146.5,274.5C 151.297,269.202 156.297,264.035 161.5,259C 151.172,258.5 140.839,258.334 130.5,258.5C 144.99,257.504 159.657,257.171 174.5,257.5C 174.5,253.5 174.5,249.5 174.5,245.5C 179.833,240.5 185.167,235.5 190.5,230.5 Z"/></g>
<g><path style="opacity:1" fill="#fafafc" d="M 239.5,235.5 C 241.301,239.933 241.967,244.6 241.5,249.5C 236.5,249.5 231.5,249.5 226.5,249.5C 225.206,247.952 224.539,245.952 224.5,243.5C 225.521,233.158 230.521,230.491 239.5,235.5 Z"/></g>
<g><path style="opacity:1" fill="#6766b1" d="M 251.5,225.5 C 254.294,227.819 256.128,230.819 257,234.5C 257.667,248.833 257.667,263.167 257,277.5C 254.459,282.069 250.625,283.569 245.5,282C 243.951,280.786 242.785,279.286 242,277.5C 241.501,273.848 241.335,270.182 241.5,266.5C 235.833,266.5 230.167,266.5 224.5,266.5C 224.665,269.85 224.498,273.183 224,276.5C 222.02,281.906 218.186,283.739 212.5,282C 210.274,280.773 208.774,278.939 208,276.5C 207.173,263.327 207.34,250.327 208.5,237.5C 208.334,247.506 208.5,257.506 209,267.5C 215.036,261.631 220.87,255.631 226.5,249.5C 231.5,249.5 236.5,249.5 241.5,249.5C 241.967,244.6 241.301,239.933 239.5,235.5C 243.773,232.566 247.773,229.233 251.5,225.5 Z"/></g>
<g><path style="opacity:1" fill="#4893ca" d="M 498.5,229.5 C 498.833,229.5 499.167,229.5 499.5,229.5C 499.5,240.5 499.5,251.5 499.5,262.5C 498.635,268.004 497.968,273.671 497.5,279.5C 491.202,285.297 485.035,291.297 479,297.5C 478.517,296.552 478.351,295.552 478.5,294.5C 478.627,292.085 478.793,289.751 479,287.5C 470.726,292.816 462.559,292.816 454.5,287.5C 458.5,283.167 462.5,278.833 466.5,274.5C 471.167,273.833 473.833,271.167 474.5,266.5C 482.465,259.036 490.298,251.369 498,243.5C 498.499,238.845 498.666,234.179 498.5,229.5 Z"/></g>
<g><path style="opacity:1" fill="#7154a7" d="M 130.5,258.5 C 140.839,258.334 151.172,258.5 161.5,259C 156.297,264.035 151.297,269.202 146.5,274.5C 142.486,274.334 138.486,274.501 134.5,275C 120.998,283.252 107.331,291.252 93.5,299C 91.5273,299.495 89.5273,299.662 87.5,299.5C 98.6313,287.868 109.965,276.368 121.5,265C 121.272,264.601 120.938,264.435 120.5,264.5C 123.494,262 126.827,260 130.5,258.5 Z"/></g>
<g><path style="opacity:1" fill="#6472b8" d="M 290.5,222.5 C 291.662,240.329 291.829,258.329 291,276.5C 288.983,281.924 285.15,283.758 279.5,282C 278.069,281.535 276.903,280.701 276,279.5C 274.594,271.251 274.094,262.917 274.5,254.5C 279.798,249.703 284.965,244.703 290,239.5C 290.499,233.843 290.666,228.176 290.5,222.5 Z"/></g>
<g><path style="opacity:1" fill="#5679bc" d="M 339.5,258.5 C 350.833,258.5 362.167,258.5 373.5,258.5C 368.5,263.833 363.5,269.167 358.5,274.5C 347.167,274.5 335.833,274.5 324.5,274.5C 329.5,269.167 334.5,263.833 339.5,258.5 Z"/></g>
<g><path style="opacity:1" fill="#527fbf" d="M 373.5,258.5 C 386.837,258.333 400.171,258.5 413.5,259C 408.297,264.035 403.297,269.202 398.5,274.5C 385.167,274.5 371.833,274.5 358.5,274.5C 363.5,269.167 368.5,263.833 373.5,258.5 Z"/></g>
<g><path style="opacity:1" fill="#f6f9fc" d="M 474.5,266.5 C 473.833,271.167 471.167,273.833 466.5,274.5C 465.127,274.657 463.793,274.49 462.5,274C 456.355,269.306 456.021,264.306 461.5,259C 468.828,256.33 473.161,258.83 474.5,266.5 Z"/></g>
<g><path style="opacity:1" fill="#7752a5" d="M 120.5,264.5 C 120.938,264.435 121.272,264.601 121.5,265C 109.965,276.368 98.6313,287.868 87.5,299.5C 77.1613,299.334 66.828,299.5 56.5,300C 53.4113,307.927 47.7447,312.76 39.5,314.5C 49.2978,304.202 59.2978,294.035 69.5,284C 64.9805,283.825 60.6472,283.325 56.5,282.5C 67.8382,282.667 79.1716,282.5 90.5,282C 100.391,275.891 110.391,270.058 120.5,264.5 Z"/></g>
<g><path style="opacity:1" fill="#7e439d" d="M 16.5,261.5 C 16.3011,264.941 16.8011,268.274 18,271.5C 25.6082,266.129 33.7749,265.129 42.5,268.5C 37.7706,273.224 33.4373,278.224 29.5,283.5C 27.8333,284.833 26.1667,286.167 24.5,287.5C 18.4447,293.56 12.1114,299.226 5.5,304.5C 3.55497,294.219 1.8883,283.886 0.5,273.5C 1.22158,273.918 1.72158,274.584 2,275.5C 6.70209,270.63 11.5354,265.963 16.5,261.5 Z"/></g>
<g><path style="opacity:1" fill="#7949a0" d="M 42.5,268.5 C 48.8649,271.532 53.5316,276.198 56.5,282.5C 60.6472,283.325 64.9805,283.825 69.5,284C 59.2978,294.035 49.2978,304.202 39.5,314.5C 35.3656,315.485 31.0323,315.818 26.5,315.5C 26.5,316.5 26.5,317.5 26.5,318.5C 23.1667,323.833 18.8333,328.167 13.5,331.5C 10.6747,322.529 8.00807,313.529 5.5,304.5C 12.1114,299.226 18.4447,293.56 24.5,287.5C 24.093,297.268 28.4264,300.768 37.5,298C 43.2051,292.186 42.5384,287.186 35.5,283C 33.4024,282.322 31.4024,282.489 29.5,283.5C 33.4373,278.224 37.7706,273.224 42.5,268.5 Z"/></g>
<g><path style="opacity:1" fill="#fdfcfd" d="M -0.5,262.5 C 0.481638,265.962 0.814971,269.629 0.5,273.5C 1.8883,283.886 3.55497,294.219 5.5,304.5C 8.00807,313.529 10.6747,322.529 13.5,331.5C 17.2238,341.281 21.2238,350.948 25.5,360.5C 28.1155,364.239 29.9488,368.239 31,372.5C 20.2706,383.062 9.77062,393.728 -0.5,404.5C -0.5,357.167 -0.5,309.833 -0.5,262.5 Z"/></g>
<g><path style="opacity:1" fill="#fbfdfe" d="M 499.5,262.5 C 499.5,298.833 499.5,335.167 499.5,371.5C 498.354,369.525 496.687,368.025 494.5,367C 490.848,366.501 487.182,366.335 483.5,366.5C 479.116,366.826 474.783,366.492 470.5,365.5C 476.32,354.861 481.32,343.861 485.5,332.5C 491.318,315.269 495.318,297.603 497.5,279.5C 497.968,273.671 498.635,268.004 499.5,262.5 Z"/></g>
<g><path style="opacity:1" fill="#fefdfe" d="M 146.5,274.5 C 155.833,274.5 165.167,274.5 174.5,274.5C 174.5,275.5 174.5,276.5 174.5,277.5C 174.5,282.167 174.5,286.833 174.5,291.5C 164.828,291.334 155.161,291.5 145.5,292C 128.458,306.711 111.125,321.044 93.5,335C 92.4178,336.33 91.7512,337.83 91.5,339.5C 90.507,347.984 90.1736,356.651 90.5,365.5C 76.1667,365.5 61.8333,365.5 47.5,365.5C 44.1667,359.5 40.8333,353.5 37.5,347.5C 33.612,337.825 29.9453,328.158 26.5,318.5C 26.5,317.5 26.5,316.5 26.5,315.5C 31.0323,315.818 35.3656,315.485 39.5,314.5C 47.7447,312.76 53.4113,307.927 56.5,300C 66.828,299.5 77.1613,299.334 87.5,299.5C 89.5273,299.662 91.5273,299.495 93.5,299C 107.331,291.252 120.998,283.252 134.5,275C 138.486,274.501 142.486,274.334 146.5,274.5 Z"/></g>
<g><path style="opacity:1" fill="#fdfefe" d="M 324.5,274.5 C 335.833,274.5 347.167,274.5 358.5,274.5C 371.833,274.5 385.167,274.5 398.5,274.5C 413.17,274.333 427.837,274.5 442.5,275C 444.68,281.011 448.68,285.178 454.5,287.5C 462.559,292.816 470.726,292.816 479,287.5C 478.793,289.751 478.627,292.085 478.5,294.5C 473.718,315.509 466.718,335.843 457.5,355.5C 455.441,358.611 453.608,361.944 452,365.5C 451.329,366.252 450.496,366.586 449.5,366.5C 434.496,366.333 419.496,366.5 404.5,367C 399.989,370.847 395.489,374.68 391,378.5C 386.009,374.343 381.176,370.009 376.5,365.5C 372.037,360.535 367.37,355.702 362.5,351C 360.846,350.392 359.179,349.892 357.5,349.5C 345.833,349.5 334.167,349.5 322.5,349.5C 314.833,349.5 307.167,349.5 299.5,349.5C 299.5,341.167 299.5,332.833 299.5,324.5C 310.469,323.854 318.136,318.52 322.5,308.5C 332.144,307.502 341.81,307.168 351.5,307.5C 352.552,307.351 353.552,307.517 354.5,308C 361.702,315.369 369.035,322.536 376.5,329.5C 377.058,330.79 378.058,331.623 379.5,332C 386.856,332.169 394.189,332.669 401.5,333.5C 401.994,335.026 402.661,336.359 403.5,337.5C 413.701,350.888 426.034,353.055 440.5,344C 450.194,334.525 452.028,323.692 446,311.5C 443.953,307.952 441.12,305.285 437.5,303.5C 426.112,297.189 415.612,298.522 406,307.5C 403.94,310.286 402.44,313.286 401.5,316.5C 397.833,316.5 394.167,316.5 390.5,316.5C 388.712,316.785 387.045,316.452 385.5,315.5C 378.479,307.812 371.146,300.479 363.5,293.5C 362.711,293.217 362.044,292.717 361.5,292C 349.171,291.5 336.838,291.333 324.5,291.5C 324.5,285.833 324.5,280.167 324.5,274.5 Z"/></g>
<g><path style="opacity:1" fill="#459ace" d="M 497.5,279.5 C 495.318,297.603 491.318,315.269 485.5,332.5C 475.921,340.575 466.754,349.242 458,358.5C 457.517,357.552 457.351,356.552 457.5,355.5C 466.718,335.843 473.718,315.509 478.5,294.5C 478.351,295.552 478.517,296.552 479,297.5C 485.035,291.297 491.202,285.297 497.5,279.5 Z"/></g>
<g><path style="opacity:1" fill="#f9f6fa" d="M 24.5,287.5 C 26.1667,286.167 27.8333,284.833 29.5,283.5C 31.4024,282.489 33.4024,282.322 35.5,283C 42.5384,287.186 43.2051,292.186 37.5,298C 28.4264,300.768 24.093,297.268 24.5,287.5 Z"/></g>
<g><path style="opacity:1" fill="#5a7ebe" d="M 307.5,197.5 C 308.492,204.982 308.825,212.648 308.5,220.5C 308.5,231.833 308.5,243.167 308.5,254.5C 308.333,266.171 308.5,277.838 309,289.5C 314.035,284.297 319.202,279.297 324.5,274.5C 324.5,280.167 324.5,285.833 324.5,291.5C 336.838,291.333 349.171,291.5 361.5,292C 362.044,292.717 362.711,293.217 363.5,293.5C 359.897,298.442 355.897,303.108 351.5,307.5C 341.81,307.168 332.144,307.502 322.5,308.5C 318.136,318.52 310.469,323.854 299.5,324.5C 299.5,332.833 299.5,341.167 299.5,349.5C 307.167,349.5 314.833,349.5 322.5,349.5C 317.5,354.833 312.5,360.167 307.5,365.5C 301.167,365.5 294.833,365.5 288.5,365.5C 285.909,364.746 284.076,363.079 283,360.5C 282.5,348.505 282.333,336.505 282.5,324.5C 279.833,324.5 277.167,324.5 274.5,324.5C 279.297,319.202 284.297,314.035 289.5,309C 277.838,308.5 266.171,308.333 254.5,308.5C 235.326,308.83 216.326,308.497 197.5,307.5C 232.502,307.667 267.502,307.5 302.5,307C 303.931,306.535 305.097,305.701 306,304.5C 307.487,268.92 307.987,233.253 307.5,197.5 Z"/></g>
<g><path style="opacity:1" fill="#6a5eac" d="M 190.5,262.5 C 190.667,274.838 190.5,287.171 190,299.5C 185.963,303.369 182.13,307.369 178.5,311.5C 177.609,310.739 176.942,309.739 176.5,308.5C 168.521,307.335 160.521,307.168 152.5,308C 137.668,320.001 123.002,332.168 108.5,344.5C 107.508,351.648 107.175,358.981 107.5,366.5C 112.5,366.5 117.5,366.5 122.5,366.5C 106.702,382.799 90.7018,398.965 74.5,415C 62.1712,415.5 49.8378,415.667 37.5,415.5C 42.5,410.167 47.5,404.833 52.5,399.5C 64.5046,399.667 76.5046,399.5 88.5,399C 93.3699,394.298 98.0366,389.465 102.5,384.5C 103.289,384.217 103.956,383.717 104.5,383C 93.1716,382.5 81.8382,382.333 70.5,382.5C 75.5,377.167 80.5,371.833 85.5,366.5C 87.5,366.5 89.5,366.5 91.5,366.5C 91.5,357.5 91.5,348.5 91.5,339.5C 91.7512,337.83 92.4178,336.33 93.5,335C 111.125,321.044 128.458,306.711 145.5,292C 155.161,291.5 164.828,291.334 174.5,291.5C 174.5,286.833 174.5,282.167 174.5,277.5C 179.833,272.5 185.167,267.5 190.5,262.5 Z"/></g>
<g><path style="opacity:1" fill="#4b8dc7" d="M 437.5,303.5 C 433.331,309.017 428.331,313.35 422.5,316.5C 419.5,317.5 417.5,319.5 416.5,322.5C 413.35,328.331 409.017,333.331 403.5,337.5C 402.661,336.359 401.994,335.026 401.5,333.5C 394.189,332.669 386.856,332.169 379.5,332C 378.058,331.623 377.058,330.79 376.5,329.5C 381.774,325.895 386.441,321.562 390.5,316.5C 394.167,316.5 397.833,316.5 401.5,316.5C 402.44,313.286 403.94,310.286 406,307.5C 415.612,298.522 426.112,297.189 437.5,303.5 Z"/></g>
<g><path style="opacity:1" fill="#5287c3" d="M 363.5,293.5 C 371.146,300.479 378.479,307.812 385.5,315.5C 387.045,316.452 388.712,316.785 390.5,316.5C 386.441,321.562 381.774,325.895 376.5,329.5C 369.035,322.536 361.702,315.369 354.5,308C 353.552,307.517 352.552,307.351 351.5,307.5C 355.897,303.108 359.897,298.442 363.5,293.5 Z"/></g>
<g><path style="opacity:1" fill="#fdfdfe" d="M 178.5,311.5 C 180.257,316.425 183.59,319.925 188.5,322C 191.923,323.904 195.59,324.737 199.5,324.5C 199.666,331.508 199.5,338.508 199,345.5C 188.047,353.452 177.38,361.785 167,370.5C 166.5,379.16 166.334,387.827 166.5,396.5C 166.5,398.167 166.5,399.833 166.5,401.5C 157.884,404.009 152.384,409.676 150,418.5C 148.453,427.343 150.619,435.01 156.5,441.5C 167.025,451.197 178.358,452.031 190.5,444C 198.545,435.987 201.045,426.487 198,415.5C 196.301,412.079 194.135,409.079 191.5,406.5C 189.235,404.358 186.568,402.691 183.5,401.5C 182.503,394.866 182.17,388.2 182.5,381.5C 182.33,380.178 182.663,379.011 183.5,378C 193.975,370.359 204.309,362.525 214.5,354.5C 215,353.5 215.5,352.5 216,351.5C 216.5,342.506 216.666,333.506 216.5,324.5C 224.167,324.5 231.833,324.5 239.5,324.5C 241.476,334.781 242.143,345.448 241.5,356.5C 241.5,367.833 241.5,379.167 241.5,390.5C 241.5,403.833 241.5,417.167 241.5,430.5C 241.762,431.978 241.429,433.311 240.5,434.5C 224.468,443.431 220.635,456.098 229,472.5C 229.708,473.381 230.542,474.047 231.5,474.5C 234.44,477.977 238.107,480.477 242.5,482C 226.578,482.368 210.911,480.535 195.5,476.5C 184.778,474.371 174.445,471.037 164.5,466.5C 156.712,463.439 149.045,460.106 141.5,456.5C 138.777,454.719 135.943,453.052 133,451.5C 132.5,444.842 132.334,438.175 132.5,431.5C 132.5,420.167 132.5,408.833 132.5,397.5C 132.666,388.494 132.5,379.494 132,370.5C 130.568,368.561 128.735,367.228 126.5,366.5C 120.69,365.51 114.69,365.177 108.5,365.5C 108.5,358.5 108.5,351.5 108.5,344.5C 123.002,332.168 137.668,320.001 152.5,308C 160.521,307.168 168.521,307.335 176.5,308.5C 176.942,309.739 177.609,310.739 178.5,311.5 Z"/></g>
<g><path style="opacity:1" fill="#626eb5" d="M 191.5,197.5 C 191.333,232.502 191.5,267.502 192,302.5C 193.076,305.079 194.909,306.746 197.5,307.5C 216.326,308.497 235.326,308.83 254.5,308.5C 249.5,313.833 244.5,319.167 239.5,324.5C 231.833,324.5 224.167,324.5 216.5,324.5C 216.666,333.506 216.5,342.506 216,351.5C 215.5,352.5 215,353.5 214.5,354.5C 204.309,362.525 193.975,370.359 183.5,378C 182.663,379.011 182.33,380.178 182.5,381.5C 177.167,386.5 171.833,391.5 166.5,396.5C 166.334,387.827 166.5,379.16 167,370.5C 177.38,361.785 188.047,353.452 199,345.5C 199.5,338.508 199.666,331.508 199.5,324.5C 195.59,324.737 191.923,323.904 188.5,322C 183.59,319.925 180.257,316.425 178.5,311.5C 182.13,307.369 185.963,303.369 190,299.5C 190.5,287.171 190.667,274.838 190.5,262.5C 190.5,251.833 190.5,241.167 190.5,230.5C 190.172,219.321 190.505,208.321 191.5,197.5 Z"/></g>
<g><path style="opacity:1" fill="#5a73b8" d="M 254.5,308.5 C 266.171,308.333 277.838,308.5 289.5,309C 284.297,314.035 279.297,319.202 274.5,324.5C 268.833,324.5 263.167,324.5 257.5,324.5C 257.5,330.167 257.5,335.833 257.5,341.5C 252.167,346.5 246.833,351.5 241.5,356.5C 242.143,345.448 241.476,334.781 239.5,324.5C 244.5,319.167 249.5,313.833 254.5,308.5 Z"/></g>
<g><path style="opacity:1" fill="#fcfdfe" d="M 422.5,316.5 C 431.61,316.772 434.443,321.105 431,329.5C 422.244,335.229 417.411,332.896 416.5,322.5C 417.5,319.5 419.5,317.5 422.5,316.5 Z"/></g>
<g><path style="opacity:1" fill="#4995cb" d="M 437.5,303.5 C 441.12,305.285 443.953,307.952 446,311.5C 452.028,323.692 450.194,334.525 440.5,344C 426.034,353.055 413.701,350.888 403.5,337.5C 409.017,333.331 413.35,328.331 416.5,322.5C 417.411,332.896 422.244,335.229 431,329.5C 434.443,321.105 431.61,316.772 422.5,316.5C 428.331,313.35 433.331,309.017 437.5,303.5 Z"/></g>
<g><path style="opacity:1" fill="#fefefe" d="M 274.5,324.5 C 277.167,324.5 279.833,324.5 282.5,324.5C 282.333,336.505 282.5,348.505 283,360.5C 284.076,363.079 285.909,364.746 288.5,365.5C 310.663,366.332 332.996,366.832 355.5,367C 358.703,370.371 362.036,373.538 365.5,376.5C 370.009,381.176 374.343,386.009 378.5,391C 374.68,395.489 370.847,399.989 367,404.5C 366.5,419.496 366.333,434.496 366.5,449.5C 366.586,450.496 366.252,451.329 365.5,452C 343.57,463.916 320.57,472.75 296.5,478.5C 290.743,478.682 285.076,479.515 279.5,481C 271.514,481.999 263.514,482.333 255.5,482C 266.274,478.728 272.607,471.561 274.5,460.5C 275.139,452.4 272.473,445.734 266.5,440.5C 264.26,438.034 261.593,436.034 258.5,434.5C 257.504,428.202 257.17,421.868 257.5,415.5C 257.5,402.167 257.5,388.833 257.5,375.5C 257.5,364.167 257.5,352.833 257.5,341.5C 257.5,335.833 257.5,330.167 257.5,324.5C 263.167,324.5 268.833,324.5 274.5,324.5 Z"/></g>
<g><path style="opacity:1" fill="#7650a4" d="M 26.5,318.5 C 29.9453,328.158 33.612,337.825 37.5,347.5C 34.2297,352.44 30.2297,356.773 25.5,360.5C 21.2238,350.948 17.2238,341.281 13.5,331.5C 18.8333,328.167 23.1667,323.833 26.5,318.5 Z"/></g>
<g><path style="opacity:1" fill="#3e9fd1" d="M 485.5,332.5 C 481.32,343.861 476.32,354.861 470.5,365.5C 474.783,366.492 479.116,366.826 483.5,366.5C 478.5,371.833 473.5,377.167 468.5,382.5C 457.167,382.5 445.833,382.5 434.5,382.5C 439.5,377.167 444.5,371.833 449.5,366.5C 450.496,366.586 451.329,366.252 452,365.5C 453.608,361.944 455.441,358.611 457.5,355.5C 457.351,356.552 457.517,357.552 458,358.5C 466.754,349.242 475.921,340.575 485.5,332.5 Z"/></g>
<g><path style="opacity:1" fill="#4d86c3" d="M 322.5,349.5 C 334.167,349.5 345.833,349.5 357.5,349.5C 352.703,354.798 347.703,359.965 342.5,365C 330.838,365.5 319.171,365.667 307.5,365.5C 312.5,360.167 317.5,354.833 322.5,349.5 Z"/></g>
<g><path style="opacity:1" fill="#508fc7" d="M 357.5,349.5 C 359.179,349.892 360.846,350.392 362.5,351C 367.37,355.702 372.037,360.535 376.5,365.5C 372.5,368.833 368.833,372.5 365.5,376.5C 362.036,373.538 358.703,370.371 355.5,367C 332.996,366.832 310.663,366.332 288.5,365.5C 294.833,365.5 301.167,365.5 307.5,365.5C 319.171,365.667 330.838,365.5 342.5,365C 347.703,359.965 352.703,354.798 357.5,349.5 Z"/></g>
<g><path style="opacity:1" fill="#5679bc" d="M 257.5,341.5 C 257.5,352.833 257.5,364.167 257.5,375.5C 252.167,380.5 246.833,385.5 241.5,390.5C 241.5,379.167 241.5,367.833 241.5,356.5C 246.833,351.5 252.167,346.5 257.5,341.5 Z"/></g>
<g><path style="opacity:1" fill="#7258a9" d="M 37.5,347.5 C 40.8333,353.5 44.1667,359.5 47.5,365.5C 49.2646,366.461 51.2646,366.795 53.5,366.5C 35.8333,384.833 17.8333,402.833 -0.5,420.5C -0.5,415.167 -0.5,409.833 -0.5,404.5C 9.77062,393.728 20.2706,383.062 31,372.5C 29.9488,368.239 28.1155,364.239 25.5,360.5C 30.2297,356.773 34.2297,352.44 37.5,347.5 Z"/></g>
<g><path style="opacity:1" fill="#dad5e9" d="M 91.5,339.5 C 91.5,348.5 91.5,357.5 91.5,366.5C 89.5,366.5 87.5,366.5 85.5,366.5C 74.8333,366.5 64.1667,366.5 53.5,366.5C 51.2646,366.795 49.2646,366.461 47.5,365.5C 61.8333,365.5 76.1667,365.5 90.5,365.5C 90.1736,356.651 90.507,347.984 91.5,339.5 Z"/></g>
<g><path style="opacity:1" fill="#d8d7ea" d="M 108.5,344.5 C 108.5,351.5 108.5,358.5 108.5,365.5C 114.69,365.177 120.69,365.51 126.5,366.5C 125.167,366.5 123.833,366.5 122.5,366.5C 117.5,366.5 112.5,366.5 107.5,366.5C 107.175,358.981 107.508,351.648 108.5,344.5 Z"/></g>
<g><path style="opacity:1" fill="#6c5aaa" d="M 53.5,366.5 C 64.1667,366.5 74.8333,366.5 85.5,366.5C 80.5,371.833 75.5,377.167 70.5,382.5C 61.6506,382.174 52.9839,382.507 44.5,383.5C 39.0353,388.464 33.702,393.63 28.5,399C 36.4931,399.5 44.4931,399.666 52.5,399.5C 47.5,404.833 42.5,410.167 37.5,415.5C 30.3134,415.175 23.3134,415.509 16.5,416.5C 15.5088,423.313 15.1755,430.313 15.5,437.5C 10.1667,442.5 4.83333,447.5 -0.5,452.5C -0.5,441.833 -0.5,431.167 -0.5,420.5C 17.8333,402.833 35.8333,384.833 53.5,366.5 Z"/></g>
<g><path style="opacity:1" fill="#6567b2" d="M 122.5,366.5 C 123.833,366.5 125.167,366.5 126.5,366.5C 128.735,367.228 130.568,368.561 132,370.5C 132.5,379.494 132.666,388.494 132.5,397.5C 127.167,402.5 121.833,407.5 116.5,412.5C 116.666,406.491 116.499,400.491 116,394.5C 115.283,395.044 114.783,395.711 114.5,396.5C 109.535,400.963 104.702,405.63 100,410.5C 99.5004,417.158 99.3337,423.825 99.5,430.5C 94.1667,435.5 88.8333,440.5 83.5,445.5C 83.8271,435.652 83.4938,425.986 82.5,416.5C 60.5,416.5 38.5,416.5 16.5,416.5C 23.3134,415.509 30.3134,415.175 37.5,415.5C 49.8378,415.667 62.1712,415.5 74.5,415C 90.7018,398.965 106.702,382.799 122.5,366.5 Z"/></g>
<g><path style="opacity:1" fill="#4298cd" d="M 376.5,365.5 C 381.176,370.009 386.009,374.343 391,378.5C 395.489,374.68 399.989,370.847 404.5,367C 419.496,366.5 434.496,366.333 449.5,366.5C 444.5,371.833 439.5,377.167 434.5,382.5C 426.826,382.334 419.159,382.5 411.5,383C 406.167,388.333 400.833,393.667 395.5,399C 402.492,399.5 409.492,399.666 416.5,399.5C 411.5,404.833 406.5,410.167 401.5,415.5C 394.978,415.177 388.645,415.51 382.5,416.5C 382.5,422.5 382.5,428.5 382.5,434.5C 377.167,439.5 371.833,444.5 366.5,449.5C 366.333,434.496 366.5,419.496 367,404.5C 370.847,399.989 374.68,395.489 378.5,391C 374.343,386.009 370.009,381.176 365.5,376.5C 368.833,372.5 372.5,368.833 376.5,365.5 Z"/></g>
<g><path style="opacity:1" fill="#3ba6d5" d="M 483.5,366.5 C 487.182,366.335 490.848,366.501 494.5,367C 496.687,368.025 498.354,369.525 499.5,371.5C 499.5,376.5 499.5,381.5 499.5,386.5C 494.202,391.297 489.035,396.297 484,401.5C 483.814,399.1 483.314,396.766 482.5,394.5C 481.893,394.624 481.56,394.957 481.5,395.5C 476.5,400.833 471.5,406.167 466.5,411.5C 465.681,414.305 465.181,417.305 465,420.5C 459.965,425.703 454.798,430.703 449.5,435.5C 449.5,429.167 449.5,422.833 449.5,416.5C 427.167,416.5 404.833,416.5 382.5,416.5C 388.645,415.51 394.978,415.177 401.5,415.5C 412.838,415.667 424.172,415.5 435.5,415C 440.703,409.965 445.703,404.798 450.5,399.5C 451.873,399.657 453.207,399.49 454.5,399C 459.833,393.667 465.167,388.333 470.5,383C 469.906,382.536 469.239,382.369 468.5,382.5C 473.5,377.167 478.5,371.833 483.5,366.5 Z"/></g>
<g><path style="opacity:1" fill="#527fbf" d="M 257.5,375.5 C 257.5,388.833 257.5,402.167 257.5,415.5C 252.167,420.5 246.833,425.5 241.5,430.5C 241.5,417.167 241.5,403.833 241.5,390.5C 246.833,385.5 252.167,380.5 257.5,375.5 Z"/></g>
<g><path style="opacity:1" fill="#5c74b9" d="M 182.5,381.5 C 182.17,388.2 182.503,394.866 183.5,401.5C 186.568,402.691 189.235,404.358 191.5,406.5C 188.105,410.898 184.105,414.564 179.5,417.5C 169.167,415.167 165.167,419.167 167.5,429.5C 164.564,434.105 160.898,438.105 156.5,441.5C 150.619,435.01 148.453,427.343 150,418.5C 152.384,409.676 157.884,404.009 166.5,401.5C 166.5,399.833 166.5,398.167 166.5,396.5C 171.833,391.5 177.167,386.5 182.5,381.5 Z"/></g>
<g><path style="opacity:1" fill="#d8d5e9" d="M 44.5,383.5 C 52.9839,382.507 61.6506,382.174 70.5,382.5C 81.8382,382.333 93.1716,382.5 104.5,383C 103.956,383.717 103.289,384.217 102.5,384.5C 83.3405,383.503 64.0072,383.17 44.5,383.5 Z"/></g>
<g><path style="opacity:1" fill="#fdfdfe" d="M 44.5,383.5 C 64.0072,383.17 83.3405,383.503 102.5,384.5C 98.0366,389.465 93.3699,394.298 88.5,399C 76.5046,399.5 64.5046,399.667 52.5,399.5C 44.4931,399.666 36.4931,399.5 28.5,399C 33.702,393.63 39.0353,388.464 44.5,383.5 Z"/></g>
<g><path style="opacity:1" fill="#fcfdfe" d="M 434.5,382.5 C 445.833,382.5 457.167,382.5 468.5,382.5C 469.239,382.369 469.906,382.536 470.5,383C 465.167,388.333 459.833,393.667 454.5,399C 453.207,399.49 451.873,399.657 450.5,399.5C 439.167,399.5 427.833,399.5 416.5,399.5C 409.492,399.666 402.492,399.5 395.5,399C 400.833,393.667 406.167,388.333 411.5,383C 419.159,382.5 426.826,382.334 434.5,382.5 Z"/></g>
<g><path style="opacity:1" fill="#38aad7" d="M 499.5,386.5 C 499.5,411.167 499.5,435.833 499.5,460.5C 486.833,473.833 473.833,486.833 460.5,499.5C 430.833,499.5 401.167,499.5 371.5,499.5C 369.525,498.354 368.025,496.687 367,494.5C 366.501,490.848 366.335,487.182 366.5,483.5C 371.833,478.5 377.167,473.5 382.5,468.5C 382.5,473.167 382.5,477.833 382.5,482.5C 404.833,482.5 427.167,482.5 449.5,482.5C 449.5,466.833 449.5,451.167 449.5,435.5C 454.798,430.703 459.965,425.703 465,420.5C 465.181,417.305 465.681,414.305 466.5,411.5C 466.167,430.845 466.5,450.178 467.5,469.5C 472.485,465.015 477.319,460.349 482,455.5C 482.829,435.329 482.662,415.329 481.5,395.5C 481.56,394.957 481.893,394.624 482.5,394.5C 483.314,396.766 483.814,399.1 484,401.5C 489.035,396.297 494.202,391.297 499.5,386.5 Z"/></g>
<g><path style="opacity:1" fill="#d5d8eb" d="M 116.5,412.5 C 116.5,423.833 116.5,435.167 116.5,446.5C 116.806,449.385 116.473,452.052 115.5,454.5C 115.83,434.993 115.497,415.659 114.5,396.5C 114.783,395.711 115.283,395.044 116,394.5C 116.499,400.491 116.666,406.491 116.5,412.5 Z"/></g>
<g><path style="opacity:1" fill="#fdfdfe" d="M 114.5,396.5 C 115.497,415.659 115.83,434.993 115.5,454.5C 110.536,459.965 105.37,465.298 100,470.5C 99.5045,468.527 99.3379,466.527 99.5,464.5C 99.5,453.167 99.5,441.833 99.5,430.5C 99.3337,423.825 99.5004,417.158 100,410.5C 104.702,405.63 109.535,400.963 114.5,396.5 Z"/></g>
<g><path style="opacity:1" fill="#fdfefe" d="M 481.5,395.5 C 482.662,415.329 482.829,435.329 482,455.5C 477.319,460.349 472.485,465.015 467.5,469.5C 466.5,450.178 466.167,430.845 466.5,411.5C 471.5,406.167 476.5,400.833 481.5,395.5 Z"/></g>
<g><path style="opacity:1" fill="#3c9fd1" d="M 416.5,399.5 C 427.833,399.5 439.167,399.5 450.5,399.5C 445.703,404.798 440.703,409.965 435.5,415C 424.172,415.5 412.838,415.667 401.5,415.5C 406.5,410.167 411.5,404.833 416.5,399.5 Z"/></g>
<g><path style="opacity:1" fill="#597bbd" d="M 191.5,406.5 C 194.135,409.079 196.301,412.079 198,415.5C 201.045,426.487 198.545,435.987 190.5,444C 178.358,452.031 167.025,451.197 156.5,441.5C 160.898,438.105 164.564,434.105 167.5,429.5C 171.052,432.84 175.052,433.34 179.5,431C 183.47,426.43 183.47,421.93 179.5,417.5C 184.105,414.564 188.105,410.898 191.5,406.5 Z"/></g>
<g><path style="opacity:1" fill="#4f87c3" d="M 257.5,415.5 C 257.17,421.868 257.504,428.202 258.5,434.5C 261.593,436.034 264.26,438.034 266.5,440.5C 263.167,444.5 259.5,448.167 255.5,451.5C 243.3,448.036 239.3,452.369 243.5,464.5C 239.773,468.233 235.773,471.566 231.5,474.5C 230.542,474.047 229.708,473.381 229,472.5C 220.635,456.098 224.468,443.431 240.5,434.5C 241.429,433.311 241.762,431.978 241.5,430.5C 246.833,425.5 252.167,420.5 257.5,415.5 Z"/></g>
<g><path style="opacity:1" fill="#fefffe" d="M 16.5,416.5 C 38.5,416.5 60.5,416.5 82.5,416.5C 82.5,438.5 82.5,460.5 82.5,482.5C 60.5,482.5 38.5,482.5 16.5,482.5C 16.5,460.5 16.5,438.5 16.5,416.5 Z"/></g>
<g><path style="opacity:1" fill="#5e6db5" d="M 132.5,397.5 C 132.5,408.833 132.5,420.167 132.5,431.5C 127.167,436.5 121.833,441.5 116.5,446.5C 116.5,435.167 116.5,423.833 116.5,412.5C 121.833,407.5 127.167,402.5 132.5,397.5 Z"/></g>
<g><path style="opacity:1" fill="#fcfdfe" d="M 179.5,417.5 C 183.47,421.93 183.47,426.43 179.5,431C 175.052,433.34 171.052,432.84 167.5,429.5C 165.167,419.167 169.167,415.167 179.5,417.5 Z"/></g>
<g><path style="opacity:1" fill="#fefefe" d="M 382.5,416.5 C 404.833,416.5 427.167,416.5 449.5,416.5C 449.5,422.833 449.5,429.167 449.5,435.5C 449.5,451.167 449.5,466.833 449.5,482.5C 427.167,482.5 404.833,482.5 382.5,482.5C 382.5,477.833 382.5,473.167 382.5,468.5C 382.5,457.167 382.5,445.833 382.5,434.5C 382.5,428.5 382.5,422.5 382.5,416.5 Z"/></g>
<g><path style="opacity:1" fill="#6076ba" d="M 82.5,416.5 C 83.4938,425.986 83.8271,435.652 83.5,445.5C 83.3335,456.838 83.5001,468.172 84,479.5C 89.0354,474.297 94.202,469.297 99.5,464.5C 99.3379,466.527 99.5045,468.527 100,470.5C 105.37,465.298 110.536,459.965 115.5,454.5C 116.473,452.052 116.806,449.385 116.5,446.5C 121.833,441.5 127.167,436.5 132.5,431.5C 132.334,438.175 132.5,444.842 133,451.5C 135.943,453.052 138.777,454.719 141.5,456.5C 137.833,460.5 134.167,464.5 130.5,468.5C 129.153,467.972 127.819,467.805 126.5,468C 115.907,479.096 104.907,489.596 93.5,499.5C 83.8333,499.5 74.1667,499.5 64.5,499.5C 69.2969,494.202 74.2969,489.035 79.5,484C 68.1716,483.5 56.8382,483.333 45.5,483.5C 35.6522,483.827 25.9856,483.494 16.5,482.5C 38.5,482.5 60.5,482.5 82.5,482.5C 82.5,460.5 82.5,438.5 82.5,416.5 Z"/></g>
<g><path style="opacity:1" fill="#419dd0" d="M 382.5,434.5 C 382.5,445.833 382.5,457.167 382.5,468.5C 377.167,473.5 371.833,478.5 366.5,483.5C 366.826,479.116 366.492,474.783 365.5,470.5C 338.509,484.718 309.843,493.718 279.5,497.5C 285.297,491.202 291.297,485.035 297.5,479C 297.272,478.601 296.938,478.435 296.5,478.5C 320.57,472.75 343.57,463.916 365.5,452C 366.252,451.329 366.586,450.496 366.5,449.5C 371.833,444.5 377.167,439.5 382.5,434.5 Z"/></g>
<g><path style="opacity:1" fill="#4d8cc6" d="M 266.5,440.5 C 272.473,445.734 275.139,452.4 274.5,460.5C 266.671,467.495 259.338,474.995 252.5,483C 254.167,483.333 255.833,483.667 257.5,484C 252.833,488.667 248.167,493.333 243.5,498C 238.845,498.499 234.179,498.666 229.5,498.5C 212.712,497.331 196.379,494.331 180.5,489.5C 186.36,486.317 191.36,481.984 195.5,476.5C 210.911,480.535 226.578,482.368 242.5,482C 238.107,480.477 234.44,477.977 231.5,474.5C 235.773,471.566 239.773,468.233 243.5,464.5C 255.76,467.905 259.76,463.572 255.5,451.5C 259.5,448.167 263.167,444.5 266.5,440.5 Z"/></g>
<g><path style="opacity:1" fill="#5e6db5" d="M 99.5,430.5 C 99.5,441.833 99.5,453.167 99.5,464.5C 94.202,469.297 89.0354,474.297 84,479.5C 83.5001,468.172 83.3335,456.838 83.5,445.5C 88.8333,440.5 94.1667,435.5 99.5,430.5 Z"/></g>
<g><path style="opacity:1" fill="#f9fbfd" d="M 255.5,451.5 C 259.76,463.572 255.76,467.905 243.5,464.5C 239.3,452.369 243.3,448.036 255.5,451.5 Z"/></g>
<g><path style="opacity:1" fill="#587bbc" d="M 141.5,456.5 C 149.045,460.106 156.712,463.439 164.5,466.5C 161.23,471.44 157.23,475.773 152.5,479.5C 144.57,476.868 137.237,473.202 130.5,468.5C 134.167,464.5 137.833,460.5 141.5,456.5 Z"/></g>
<g><path style="opacity:1" fill="#6761ae" d="M 15.5,437.5 C 15.6665,449.838 15.4999,462.171 15,474.5C 9.96464,479.703 4.79798,484.703 -0.5,489.5C -0.5,477.167 -0.5,464.833 -0.5,452.5C 4.83333,447.5 10.1667,442.5 15.5,437.5 Z"/></g>
<g><path style="opacity:1" fill="#fbfdfe" d="M 499.5,460.5 C 499.5,473.5 499.5,486.5 499.5,499.5C 486.5,499.5 473.5,499.5 460.5,499.5C 473.833,486.833 486.833,473.833 499.5,460.5 Z"/></g>
<g><path style="opacity:1" fill="#fefefe" d="M 130.5,468.5 C 137.237,473.202 144.57,476.868 152.5,479.5C 161.39,483.799 170.724,487.132 180.5,489.5C 196.379,494.331 212.712,497.331 229.5,498.5C 229.5,498.833 229.5,499.167 229.5,499.5C 184.167,499.5 138.833,499.5 93.5,499.5C 104.907,489.596 115.907,479.096 126.5,468C 127.819,467.805 129.153,467.972 130.5,468.5 Z"/></g>
<g><path style="opacity:1" fill="#5481c0" d="M 164.5,466.5 C 174.445,471.037 184.778,474.371 195.5,476.5C 191.36,481.984 186.36,486.317 180.5,489.5C 170.724,487.132 161.39,483.799 152.5,479.5C 157.23,475.773 161.23,471.44 164.5,466.5 Z"/></g>
<g><path style="opacity:1" fill="#fbfcfd" d="M 366.5,483.5 C 366.335,487.182 366.501,490.848 367,494.5C 368.025,496.687 369.525,498.354 371.5,499.5C 335.167,499.5 298.833,499.5 262.5,499.5C 268.004,498.635 273.671,497.968 279.5,497.5C 309.843,493.718 338.509,484.718 365.5,470.5C 366.492,474.783 366.826,479.116 366.5,483.5 Z"/></g>
<g><path style="opacity:1" fill="#4a94ca" d="M 274.5,460.5 C 272.607,471.561 266.274,478.728 255.5,482C 263.514,482.333 271.514,481.999 279.5,481C 285.076,479.515 290.743,478.682 296.5,478.5C 296.938,478.435 297.272,478.601 297.5,479C 291.297,485.035 285.297,491.202 279.5,497.5C 273.671,497.968 268.004,498.635 262.5,499.5C 251.5,499.5 240.5,499.5 229.5,499.5C 229.5,499.167 229.5,498.833 229.5,498.5C 234.179,498.666 238.845,498.499 243.5,498C 248.167,493.333 252.833,488.667 257.5,484C 255.833,483.667 254.167,483.333 252.5,483C 259.338,474.995 266.671,467.495 274.5,460.5 Z"/></g>
<g><path style="opacity:1" fill="#676ab3" d="M 16.5,416.5 C 16.5,438.5 16.5,460.5 16.5,482.5C 25.9856,483.494 35.6522,483.827 45.5,483.5C 40.5,488.833 35.5,494.167 30.5,499.5C 21.8333,499.5 13.1667,499.5 4.5,499.5C 2.45654,497.792 0.789873,495.792 -0.5,493.5C -0.5,492.167 -0.5,490.833 -0.5,489.5C 4.79798,484.703 9.96464,479.703 15,474.5C 15.4999,462.171 15.6665,449.838 15.5,437.5C 15.1755,430.313 15.5088,423.313 16.5,416.5 Z"/></g>
<g><path style="opacity:1" fill="#5e6db5" d="M 45.5,483.5 C 56.8382,483.333 68.1716,483.5 79.5,484C 74.2969,489.035 69.2969,494.202 64.5,499.5C 53.1667,499.5 41.8333,499.5 30.5,499.5C 35.5,494.167 40.5,488.833 45.5,483.5 Z"/></g>
<g><path style="opacity:1" fill="#f2f2f8" d="M -0.5,493.5 C 0.789873,495.792 2.45654,497.792 4.5,499.5C 2.83333,499.5 1.16667,499.5 -0.5,499.5C -0.5,497.5 -0.5,495.5 -0.5,493.5 Z"/></g>
</svg>
